<?xml version="1.0" encoding="iso-8859-1"?>
<!-- Uploaded to: SVG Repo, www.svgrepo.com, Generator: SVG Repo Mixer Tools -->
<svg height="800px" width="800px" version="1.1" id="Layer_1" xmlns="http://www.w3.org/2000/svg" xmlns:xlink="http://www.w3.org/1999/xlink" 
	 viewBox="0 0 512 512" xml:space="preserve">
<path style="fill:#4C213A;" d="M376.481,509.182c-8.239,0-16.474-2.12-23.821-6.362l-87.878-50.737
	c-14.693-8.481-23.82-24.29-23.82-41.257V309.352c0-16.965,9.126-32.774,23.82-41.257l87.878-50.737
	c14.695-8.484,32.95-8.484,47.641,0l87.878,50.737C502.872,276.579,512,292.386,512,309.352v8.803
	c0,8.305-6.734,15.038-15.038,15.038c-8.304,0-15.038-6.732-15.038-15.038v-8.803c0-6.254-3.365-12.084-8.783-15.212l-87.878-50.737
	c-5.417-3.128-12.146-3.128-17.565,0L279.82,294.14c-5.418,3.128-8.782,8.956-8.782,15.212v101.474
	c0,6.256,3.364,12.084,8.782,15.211l87.878,50.738c5.42,3.128,12.146,3.128,17.565,0l87.878-50.737
	c5.418-3.128,8.783-8.956,8.783-15.211v-13.97c0-8.305,6.734-15.038,15.038-15.038c8.304,0,15.038,6.732,15.038,15.038v13.97
	c0,16.965-9.128,32.774-23.821,41.257l-87.878,50.737C392.955,507.062,384.717,509.182,376.481,509.182z"/>
<path style="fill:#E7B3A8;" d="M239.699,281.119l-87.88-50.737c-10.087-5.824-22.514-5.824-32.602,0L31.34,281.119
	c-10.087,5.823-16.302,16.586-16.302,28.233v101.474c0,11.648,6.214,22.41,16.301,28.235l87.878,50.737
	c10.087,5.824,22.516,5.824,32.602,0l87.88-50.737c10.087-5.824,16.301-16.586,16.301-28.235V309.352
	C256,297.705,249.786,286.941,239.699,281.119z M173.293,376.989c0,3.038-1.621,5.845-4.251,7.364l-29.269,16.899
	c-2.632,1.519-5.872,1.519-8.504,0l-29.274-16.901c-2.632-1.519-4.251-4.326-4.251-7.364v-33.798c0-3.038,1.621-5.845,4.251-7.364
	l29.271-16.899c2.632-1.519,5.872-1.519,8.504,0l29.271,16.899c2.632,1.519,4.251,4.326,4.251,7.364v33.8H173.293z"/>
<path style="fill:#4C213A;" d="M135.52,509.203c-8.352,0-16.588-2.207-23.821-6.383l-87.878-50.737C9.126,443.6,0,427.791,0,410.827
	V309.353c0-16.965,9.126-32.773,23.821-41.257l87.878-50.737c7.233-4.176,15.469-6.383,23.821-6.383
	c8.35,0,16.586,2.208,23.82,6.383l87.878,50.737c14.693,8.484,23.82,24.293,23.82,41.257v101.474
	c0,16.964-9.126,32.773-23.818,41.257l-87.88,50.737C152.107,506.996,143.871,509.203,135.52,509.203z M135.52,241.051
	c-3.08,0-6.116,0.814-8.783,2.353l-87.878,50.737c-5.418,3.128-8.783,8.956-8.783,15.211v101.474c0,6.254,3.365,12.084,8.783,15.212
	l87.878,50.737c5.332,3.078,12.23,3.08,17.565,0l87.878-50.737c5.417-3.128,8.782-8.956,8.782-15.212V309.352
	c0-6.256-3.365-12.084-8.783-15.212l-87.877-50.735C141.636,241.865,138.598,241.051,135.52,241.051z M135.52,417.429
	c-4.128,0-8.199-1.092-11.773-3.155l-29.271-16.899c-7.26-4.194-11.77-12.005-11.77-20.386v-33.798
	c0-8.382,4.51-16.192,11.767-20.385l29.275-16.901c7.143-4.126,16.394-4.128,23.543,0.002l29.269,16.896
	c7.26,4.192,11.77,12.003,11.77,20.388v33.8c0,8.382-4.51,16.192-11.767,20.385l-29.272,16.901
	C143.714,416.34,139.645,417.429,135.52,417.429z M112.782,373.215l22.738,13.128l22.735-13.126v-26.254l-22.737-13.128
	l-22.737,13.128V373.215z"/>
<path style="fill:#E7B3A8;" d="M360.18,72.94l-87.88-50.737c-10.087-5.824-22.516-5.824-32.602,0L151.82,72.94
	c-10.087,5.824-16.301,16.586-16.301,28.235v101.474c0,11.648,6.214,22.411,16.301,28.235l87.88,50.737
	c10.087,5.824,22.516,5.824,32.601,0l87.88-50.737c10.087-5.824,16.301-16.586,16.301-28.235V101.174
	C376.481,89.526,370.268,78.764,360.18,72.94z M293.774,168.811c0,3.038-1.621,5.845-4.251,7.364l-29.269,16.899
	c-2.632,1.519-5.872,1.519-8.504,0l-29.274-16.901c-2.632-1.519-4.251-4.326-4.251-7.364v-33.797c0-3.038,1.621-5.845,4.251-7.364
	l29.271-16.899c2.632-1.519,5.872-1.519,8.504,0l29.271,16.899c2.632,1.519,4.251,4.326,4.251,7.364v33.799H293.774z"/>
<path style="fill:#4C213A;" d="M256,301.026c-8.352,0-16.588-2.208-23.821-6.383l-87.877-50.735
	c-14.693-8.484-23.821-24.292-23.821-41.257V101.176c0-16.965,9.126-32.773,23.821-41.257L232.18,9.18
	c7.232-4.176,15.468-6.383,23.82-6.383s16.588,2.208,23.821,6.383l87.877,50.735c14.693,8.483,23.821,24.29,23.821,41.257v101.474
	c0,16.967-9.128,32.774-23.821,41.259l-87.878,50.735C272.588,298.818,264.352,301.026,256,301.026z M256,32.872
	c-3.08,0-6.114,0.814-8.78,2.352l-87.88,50.737c-5.418,3.128-8.783,8.958-8.783,15.212v101.474c0,6.254,3.365,12.084,8.783,15.212
	l87.878,50.737c5.334,3.08,12.232,3.078,17.562,0l87.88-50.737c5.418-3.128,8.783-8.956,8.783-15.212V101.173
	c0-6.256-3.365-12.084-8.783-15.211l-87.878-50.737C262.116,33.686,259.08,32.872,256,32.872z M256.001,209.251
	c-4.125,0-8.195-1.09-11.77-3.153l-29.274-16.901c-7.26-4.194-11.77-12.005-11.77-20.386v-33.798c0-8.382,4.51-16.192,11.767-20.385
	l29.275-16.901c7.143-4.126,16.394-4.128,23.543,0.002l29.269,16.896c7.26,4.195,11.77,12.006,11.77,20.388v33.8
	c0,8.383-4.51,16.195-11.77,20.386l-29.271,16.899C264.2,208.161,260.129,209.251,256.001,209.251z M233.263,165.038l22.738,13.128
	l22.735-13.126v-26.256L256,125.657l-22.737,13.126L233.263,165.038L233.263,165.038z"/>
</svg>