<svg version="1.1" id="Layer_1" xmlns="http://www.w3.org/2000/svg" xmlns:xlink="http://www.w3.org/1999/xlink" x="0px" y="0px"
	 width="100%" viewBox="0 0 500 500" enable-background="new 0 0 500 500" xml:space="preserve">
<path fill="#000000" opacity="1.000000" stroke="none" 
	d="
M278.000000,501.000000 
	C185.333359,501.000000 93.166710,501.000000 1.000049,501.000000 
	C1.000033,334.333405 1.000033,167.666794 1.000016,1.000139 
	C167.666565,1.000093 334.333130,1.000093 500.999756,1.000046 
	C500.999847,167.666519 500.999847,334.333038 500.999939,500.999786 
	C426.833344,501.000000 352.666656,501.000000 278.000000,501.000000 
M322.052063,198.961533 
	C322.052063,198.961533 322.128387,198.929184 321.876709,199.633835 
	C320.913879,199.833542 319.951019,200.033264 318.195282,200.127029 
	C317.143036,200.222549 316.090759,200.318085 314.459686,200.339935 
	C314.032227,200.592560 313.604797,200.845184 312.652191,201.441849 
	C310.039276,205.609955 310.611053,207.592041 315.470490,208.868927 
	C321.844757,210.543854 328.310211,211.942673 334.808502,213.029434 
	C336.640533,213.335815 338.724762,212.134216 340.693298,211.624268 
	C339.907959,209.455399 339.505951,207.028091 338.255280,205.172943 
	C335.856781,201.615295 332.837067,198.481720 330.344696,194.980286 
	C328.655914,192.607834 329.159332,190.776123 332.333130,189.856705 
	C346.137756,185.857681 359.951782,181.876343 373.641022,177.508255 
	C375.866547,176.798126 377.480865,174.172485 379.377655,172.432205 
	C377.413513,171.010056 375.625397,168.799164 373.452087,168.314102 
	C367.015686,166.877457 360.404022,166.249863 353.904175,165.067825 
	C345.616241,163.560547 337.325592,162.013947 329.123932,160.106705 
	C324.333252,158.992676 323.547516,156.723740 326.100800,152.500641 
	C327.551270,150.101547 329.591736,148.067429 331.185791,145.744934 
	C333.442902,142.456375 332.272491,138.749512 328.532990,137.350952 
	C327.007690,136.780457 325.340179,136.472412 323.711365,136.316330 
	C315.795746,135.557907 314.574799,133.861313 317.844910,126.680077 
	C321.330078,119.026489 325.275482,111.582489 329.591064,103.682419 
	C334.036499,97.097008 338.483490,90.512650 342.926666,83.925713 
	C344.855316,81.066521 346.042084,77.513245 342.731842,75.646545 
	C340.980469,74.658920 336.951324,75.784172 335.055634,77.319786 
	C327.717590,83.263924 320.981171,89.945328 313.721466,95.992966 
	C306.087402,102.352524 298.679260,109.159470 288.857910,112.963417 
	C288.188171,110.630447 287.552399,108.756065 287.130432,106.834732 
	C286.812714,105.387985 287.011993,103.799576 286.548950,102.419205 
	C285.771301,100.101036 285.138397,96.595543 283.541901,95.996834 
	C281.789154,95.339554 278.963715,97.293282 276.707428,98.330612 
	C275.529114,98.872345 274.637878,100.006927 273.498993,100.671585 
	C268.066040,103.842270 265.302673,102.979546 263.674408,96.951080 
	C261.170837,87.681824 258.973206,78.321541 256.942902,68.935616 
	C255.404114,61.821838 254.551392,54.555740 252.895294,47.473904 
	C252.463150,45.625912 250.171219,44.212830 248.733459,42.599995 
	C247.218887,44.144138 245.013779,45.437843 244.342819,47.287926 
	C243.177689,50.500736 243.052048,54.076874 242.330185,57.466518 
	C239.645325,70.073570 237.246292,82.757217 234.031433,95.229485 
	C232.243164,102.167198 227.446457,102.987274 222.310287,98.088554 
	C220.267639,96.140335 218.253296,94.149986 216.084854,92.348846 
	C211.968842,88.930061 207.828339,91.725800 208.051361,96.242516 
	C208.264679,100.562859 208.179062,104.907196 208.013382,109.232887 
	C207.937119,111.223747 207.355896,113.195251 206.890701,115.810448 
	C204.118500,114.238831 202.032150,113.254753 200.158432,111.962372 
	C185.040771,101.535187 169.971039,91.038567 154.865723,80.593430 
	C152.239273,78.777275 149.172852,75.507599 146.271484,78.738815 
	C143.555328,81.763763 146.647873,84.884117 148.538330,87.588341 
	C148.821243,87.993027 149.213440,88.323212 149.565872,88.677116 
	C162.615814,101.781792 173.788513,116.264107 181.942444,133.647461 
	C178.873688,138.098953 174.191711,137.964615 169.521011,138.293839 
	C167.436066,138.440811 165.427063,139.665466 163.383591,140.401016 
	C164.235519,142.588943 164.762695,144.986786 166.011307,146.918259 
	C168.181458,150.275238 170.797226,153.344147 173.794968,157.280838 
	C170.765915,158.355606 169.133484,159.044495 167.440720,159.517441 
	C157.420364,162.317047 147.324020,164.868820 137.401901,167.978333 
	C135.055481,168.713684 133.278671,171.266647 131.239838,172.983521 
	C133.348770,174.621536 135.225143,176.918976 137.614578,177.761673 
	C142.753311,179.574036 148.250046,180.354965 153.428238,182.075714 
	C160.549652,184.442215 167.511856,187.287872 176.047195,190.493423 
	C169.495697,196.420029 163.926285,201.237091 158.666901,206.371704 
	C157.354111,207.653366 157.040710,209.958710 156.267990,211.793564 
	C158.028839,212.472946 159.917068,213.954132 161.529297,213.697998 
	C170.196045,212.321091 178.834290,210.684616 187.379639,208.696167 
	C188.950150,208.330704 190.047592,205.932144 191.363388,204.472031 
	C189.606430,203.015564 188.047516,201.076416 186.032242,200.249619 
	C184.302917,199.540131 182.051743,200.102631 180.037277,200.102631 
	C181.531921,197.108734 183.364807,194.772995 183.852478,192.183884 
	C184.884171,186.706451 182.121704,182.929092 175.382034,180.203842 
	C169.630676,177.878235 163.711029,175.968842 156.745529,173.474106 
	C159.528732,172.307922 161.114471,171.476959 162.798325,170.975266 
	C165.636627,170.129562 168.563416,169.582626 171.406693,168.751602 
	C180.741318,166.023361 184.143936,158.501999 180.018539,149.923340 
	C179.474869,148.792801 179.103699,147.579300 178.686417,146.492249 
	C179.193192,146.080368 179.415558,145.788849 179.706482,145.679169 
	C191.913422,141.077316 193.533524,137.344849 187.979752,125.556213 
	C185.516846,120.328384 182.586761,115.320648 179.326324,109.193680 
	C181.076813,110.045181 181.776184,110.321198 182.411087,110.704109 
	C189.069504,114.719826 195.513931,119.152962 202.425110,122.669655 
	C209.522369,126.281044 215.131699,122.799324 215.905731,115.122154 
	C216.208862,112.115639 216.726608,109.130753 217.209229,105.689430 
	C218.364609,106.501114 219.099960,107.093506 219.903717,107.570663 
	C228.075409,112.421898 234.962952,111.154953 239.978394,103.097252 
	C242.281952,99.396408 243.560593,94.937462 244.698166,90.661140 
	C246.150070,85.203232 246.989243,79.582329 248.092484,74.031677 
	C249.692474,77.437210 250.286301,80.834846 251.200089,84.144135 
	C253.127960,91.126083 254.812637,98.217636 257.374664,104.969147 
	C259.583099,110.788895 264.588562,113.226501 270.661346,112.262421 
	C273.369446,111.832497 275.949951,110.599121 278.974396,109.603302 
	C279.532288,111.403809 280.426147,113.085846 280.524170,114.813042 
	C280.949188,122.302841 286.241638,125.338081 293.561737,122.014763 
	C295.661285,121.061569 297.741333,120.002266 299.667145,118.742210 
	C304.464691,115.603111 309.168335,112.320580 313.909698,109.095627 
	C313.754883,112.779823 312.638428,116.071350 311.436005,119.331161 
	C310.013489,123.187515 307.702148,126.917206 307.219482,130.877701 
	C306.171295,139.478455 312.270935,143.058167 319.758331,145.478180 
	C318.732758,147.186203 317.883270,148.549393 317.083771,149.941284 
	C313.203552,156.696426 315.596375,164.698807 322.710358,167.863312 
	C325.542725,169.123230 328.673706,169.789322 331.727417,170.457672 
	C337.714355,171.767990 343.742401,172.890244 350.248322,174.189133 
	C341.812042,177.131775 333.984161,179.604080 326.361084,182.597916 
	C319.510956,185.288208 318.422119,188.579391 321.045227,196.639069 
	C321.391357,197.387680 321.737488,198.136292 322.052063,198.961533 
M350.005096,435.001038 
	C350.005096,435.001038 349.986969,434.964172 350.646942,434.781708 
	C360.569366,425.652222 363.770172,412.823639 357.780762,401.151398 
	C350.930298,387.800995 343.170410,374.912415 335.669128,361.901917 
	C322.563751,339.171417 309.507080,316.410004 296.097443,293.859314 
	C291.914734,286.825287 289.099731,279.873322 289.831360,271.478790 
	C290.362732,265.382874 289.825958,259.193848 289.922974,252.360931 
	C289.870453,251.898041 289.817902,251.435150 289.915588,250.335892 
	C289.859253,249.907227 289.802917,249.478561 290.017975,248.308929 
	C291.971497,247.139832 293.789673,245.514847 295.903931,244.887009 
	C302.267487,242.997314 305.573853,239.188370 305.764893,232.796341 
	C305.977173,225.693604 302.644409,220.107712 296.756256,218.382095 
	C294.091736,217.601212 291.217590,217.208435 288.437134,217.201523 
	C262.281281,217.136490 236.125107,217.187088 209.969040,217.217697 
	C201.091888,217.228073 195.836075,221.957321 195.082153,230.560425 
	C194.474686,237.492371 199.024643,243.152374 206.786087,244.790955 
	C209.284988,245.318512 210.461792,246.222931 210.420929,249.023300 
	C210.289719,258.014557 210.312119,267.012482 210.514343,276.002411 
	C210.625275,280.933502 210.007950,285.378845 206.922073,289.563110 
	C203.895966,293.666260 201.582687,298.299469 199.004593,302.727997 
	C180.364944,334.745972 161.772522,366.791534 143.079926,398.778564 
	C138.750351,406.187408 138.444168,414.170502 140.940826,421.786774 
	C145.164230,434.670685 156.589630,442.562836 170.110764,442.590698 
	C223.256073,442.700226 276.402679,442.774170 329.545837,442.416595 
	C335.025574,442.379730 340.485352,439.376465 346.587402,437.707886 
	C347.713623,436.801422 348.839844,435.894928 350.005096,435.001038 
M222.334656,140.150406 
	C221.496872,140.970367 220.794876,142.183273 219.793350,142.529373 
	C217.636429,143.274734 215.287109,143.441544 213.083740,144.077881 
	C199.117035,148.111374 193.783463,156.122406 192.476517,166.702530 
	C190.808243,180.207764 197.679260,191.851334 209.385086,196.391846 
	C213.595169,198.024857 218.249207,198.513321 223.327713,199.666519 
	C223.327713,204.812683 223.327713,210.202057 223.327713,215.584473 
	C226.547607,215.584473 229.159073,215.584473 232.322433,215.584473 
	C232.322433,209.373627 232.319870,203.419754 232.324982,197.465897 
	C232.325836,196.466629 232.557983,195.422607 232.343979,194.475967 
	C231.477158,190.641479 229.292053,188.395401 225.063416,188.389145 
	C221.420761,188.383743 217.614151,188.670380 214.168594,187.748917 
	C205.586899,185.453781 200.904892,176.288513 202.848267,166.667542 
	C204.538010,158.302338 212.636475,152.624039 221.851776,153.343094 
	C228.770248,153.882935 228.968506,153.178116 231.099976,146.336914 
	C232.301895,142.479202 234.746292,138.231964 237.913177,135.905624 
	C248.291275,128.282028 264.574554,132.751328 267.277100,147.909225 
	C268.394287,154.175064 271.255707,155.693848 277.150085,154.075073 
	C283.797272,152.249588 289.752838,153.690491 294.566986,158.552338 
	C299.373871,163.406891 301.502258,169.114532 299.531647,176.148544 
	C297.927856,181.873169 294.226074,185.355606 289.377167,188.296295 
	C287.912262,189.184708 286.123413,192.290756 286.606506,193.078308 
	C287.679382,194.827332 289.952850,196.277374 292.012115,196.837616 
	C293.507141,197.244339 295.670258,196.395416 297.148499,195.480865 
	C314.689880,184.628510 312.654266,161.199295 301.296844,151.410507 
	C293.997467,145.119278 285.713562,142.295410 276.315155,143.388962 
	C274.459045,135.384384 266.750793,127.185112 259.627045,124.174515 
	C246.284500,118.535774 228.652496,125.230293 222.334656,140.150406 
M280.196991,194.399353 
	C280.589935,190.931763 278.796783,188.440643 275.614471,188.849792 
	C273.339935,189.142258 269.666718,191.464752 269.515961,193.141937 
	C268.847778,200.576706 269.226562,208.105560 269.226562,215.506592 
	C278.148346,216.243439 277.876831,216.238831 278.011597,208.309540 
	C278.086578,203.898605 279.244446,199.506088 280.196991,194.399353 
M354.489258,129.720428 
	C356.337677,129.031693 358.620087,128.790680 359.917358,127.533295 
	C361.326477,126.167488 363.015381,123.250023 362.431976,122.099350 
	C361.552429,120.364525 358.408051,118.217186 356.931671,118.650177 
	C353.116669,119.769051 349.518158,121.961082 346.210358,124.265831 
	C345.244110,124.939064 344.816132,127.854218 345.465515,128.973572 
	C346.147644,130.149307 348.373718,130.727173 350.009430,130.951569 
	C351.183502,131.112640 352.496216,130.263062 354.489258,129.720428 
M141.412521,130.901413 
	C146.172363,129.639862 147.178696,127.053879 143.739059,123.852203 
	C141.637711,121.896217 138.760422,120.778084 136.244720,119.261909 
	C133.421661,117.560486 131.212036,118.176895 129.614578,121.011497 
	C127.934227,123.993217 129.292160,126.248955 131.845367,127.532402 
	C134.614365,128.924347 137.696991,129.692413 141.412521,130.901413 
M300.926025,75.232826 
	C302.723267,69.130615 299.306854,64.050934 293.922943,64.885468 
	C290.229675,65.457947 287.495483,67.887047 287.615997,71.329773 
	C287.702820,73.810257 289.554901,77.066490 291.634827,78.446014 
	C294.863251,80.587296 298.306335,79.255814 300.926025,75.232826 
M199.283539,73.339554 
	C203.708664,75.531052 206.007355,74.874382 205.375717,71.433563 
	C204.644714,67.451424 203.535599,63.335140 201.537857,59.887074 
	C200.713135,58.463627 196.993866,57.913223 194.896896,58.369919 
	C193.847580,58.598446 192.439331,62.404972 193.025085,63.851540 
	C194.334656,67.085617 196.792755,69.854630 199.283539,73.339554 
M149.592651,237.026627 
	C146.570038,241.297470 146.722672,245.504288 149.992111,248.036392 
	C152.968674,250.341675 157.519531,249.923691 159.911850,247.125320 
	C162.568253,244.018005 162.497589,239.046204 158.881683,237.101746 
	C156.541916,235.843521 153.096375,236.641586 149.592651,237.026627 
M332.818054,248.291489 
	C329.604401,253.261185 330.815460,258.640167 335.511169,260.079254 
	C338.975250,261.140869 342.346466,260.230286 343.484314,256.983795 
	C344.315735,254.611526 343.976990,250.966614 342.624237,248.888626 
	C340.464111,245.570435 336.754181,245.748367 332.818054,248.291489 
M361.780731,208.641144 
	C362.282959,210.959991 362.067413,213.960251 363.463318,215.430740 
	C365.344025,217.411880 368.285889,217.192001 370.274261,214.507156 
	C371.991058,212.188950 372.925507,209.930603 370.267944,207.618347 
	C367.428680,205.147980 364.752411,205.022003 361.780731,208.641144 
M121.934502,191.147659 
	C116.014946,191.117264 113.208076,193.387436 114.850845,197.237000 
	C115.570160,198.922607 117.728638,201.101303 119.212456,201.085373 
	C121.269089,201.063293 124.602859,199.537460 125.019264,198.009460 
	C125.527878,196.143143 123.580856,193.607605 121.934502,191.147659 
z"/>
<path fill="#33D2E3" opacity="1.000000" stroke="none" 
	d="
M321.084442,195.958145 
	C318.422119,188.579391 319.510956,185.288208 326.361084,182.597916 
	C333.984161,179.604080 341.812042,177.131775 350.248322,174.189133 
	C343.742401,172.890244 337.714355,171.767990 331.727417,170.457672 
	C328.673706,169.789322 325.542725,169.123230 322.710358,167.863312 
	C315.596375,164.698807 313.203552,156.696426 317.083771,149.941284 
	C317.883270,148.549393 318.732758,147.186203 319.758331,145.478180 
	C312.270935,143.058167 306.171295,139.478455 307.219482,130.877701 
	C307.702148,126.917206 310.013489,123.187515 311.436005,119.331161 
	C312.638428,116.071350 313.754883,112.779823 313.909698,109.095627 
	C309.168335,112.320580 304.464691,115.603111 299.667145,118.742210 
	C297.741333,120.002266 295.661285,121.061569 293.561737,122.014763 
	C286.241638,125.338081 280.949188,122.302841 280.524170,114.813042 
	C280.426147,113.085846 279.532288,111.403809 278.974396,109.603302 
	C275.949951,110.599121 273.369446,111.832497 270.661346,112.262421 
	C264.588562,113.226501 259.583099,110.788895 257.374664,104.969147 
	C254.812637,98.217636 253.127960,91.126083 251.200089,84.144135 
	C250.286301,80.834846 249.692474,77.437210 248.092484,74.031677 
	C246.989243,79.582329 246.150070,85.203232 244.698166,90.661140 
	C243.560593,94.937462 242.281952,99.396408 239.978394,103.097252 
	C234.962952,111.154953 228.075409,112.421898 219.903717,107.570663 
	C219.099960,107.093506 218.364609,106.501114 217.209229,105.689430 
	C216.726608,109.130753 216.208862,112.115639 215.905731,115.122154 
	C215.131699,122.799324 209.522369,126.281044 202.425110,122.669655 
	C195.513931,119.152962 189.069504,114.719826 182.411087,110.704109 
	C181.776184,110.321198 181.076813,110.045181 179.326324,109.193680 
	C182.586761,115.320648 185.516846,120.328384 187.979752,125.556213 
	C193.533524,137.344849 191.913422,141.077316 179.706482,145.679169 
	C179.415558,145.788849 179.193192,146.080368 178.686417,146.492249 
	C179.103699,147.579300 179.474869,148.792801 180.018539,149.923340 
	C184.143936,158.501999 180.741318,166.023361 171.406693,168.751602 
	C168.563416,169.582626 165.636627,170.129562 162.798325,170.975266 
	C161.114471,171.476959 159.528732,172.307922 156.745529,173.474106 
	C163.711029,175.968842 169.630676,177.878235 175.382034,180.203842 
	C182.121704,182.929092 184.884171,186.706451 183.852478,192.183884 
	C183.364807,194.772995 181.531921,197.108734 180.037277,200.102631 
	C182.051743,200.102631 184.302917,199.540131 186.032242,200.249619 
	C188.047516,201.076416 189.606430,203.015564 191.363403,204.472046 
	C190.047592,205.932144 188.950150,208.330704 187.379639,208.696167 
	C178.834290,210.684616 170.196045,212.321091 161.529297,213.697998 
	C159.917068,213.954132 158.028839,212.472946 156.267990,211.793564 
	C157.040710,209.958710 157.354111,207.653366 158.666901,206.371704 
	C163.926285,201.237091 169.495697,196.420029 176.047195,190.493423 
	C167.511856,187.287872 160.549652,184.442215 153.428238,182.075714 
	C148.250046,180.354965 142.753311,179.574036 137.614578,177.761673 
	C135.225143,176.918976 133.348770,174.621536 131.239838,172.983521 
	C133.278671,171.266647 135.055481,168.713684 137.401901,167.978333 
	C147.324020,164.868820 157.420364,162.317047 167.440720,159.517441 
	C169.133484,159.044495 170.765915,158.355606 173.794968,157.280838 
	C170.797226,153.344147 168.181458,150.275238 166.011307,146.918259 
	C164.762695,144.986786 164.235519,142.588943 163.383606,140.401016 
	C165.427063,139.665466 167.436066,138.440811 169.521011,138.293839 
	C174.191711,137.964615 178.873688,138.098953 182.184998,133.089508 
	C183.120285,132.350677 183.812988,132.169785 184.550049,132.360138 
	C184.590225,133.228714 184.586075,133.726044 184.469849,134.384964 
	C184.235199,134.915329 184.112625,135.284073 183.885345,136.002228 
	C180.499176,138.136856 177.217728,139.922073 173.524399,141.704803 
	C171.253967,141.894211 169.395416,142.086105 166.344757,142.401093 
	C168.484787,144.811508 169.832993,146.205063 171.032959,147.716309 
	C172.269958,149.274155 173.571732,150.838440 174.477692,152.589981 
	C176.833237,157.143936 175.702454,160.040482 170.991501,161.437927 
	C160.947266,164.417419 150.857529,167.243286 140.802734,170.187698 
	C139.042770,170.703064 137.362259,171.489685 135.645050,172.151031 
	C135.683426,172.593506 135.721802,173.035980 135.760178,173.478455 
	C137.595963,174.025177 139.454361,174.506226 141.263809,175.129379 
	C152.099213,178.860962 163.024689,182.362976 173.707642,186.491425 
	C178.896515,188.496704 179.061264,191.009659 175.157990,195.120819 
	C172.639267,197.773682 169.882996,200.199432 167.280914,202.775177 
	C165.053040,204.980469 162.893021,207.254303 160.702988,209.497818 
	C160.969955,209.897659 161.236938,210.297501 161.503906,210.697357 
	C169.917526,208.876282 178.331131,207.055206 186.744736,205.234131 
	C186.626007,204.539291 186.507278,203.844452 186.388550,203.149612 
	C181.314468,203.752243 176.240387,204.354889 171.166306,204.957520 
	C171.042038,204.505722 170.917770,204.053925 170.793503,203.602127 
	C172.720871,201.791824 174.695511,200.028931 176.567261,198.162842 
	C183.588501,191.162811 182.456970,185.737183 173.134689,182.177292 
	C168.784042,180.515930 164.285538,179.245544 159.905365,177.656448 
	C156.259354,176.333694 152.688370,174.804169 148.077072,172.964462 
	C150.145172,171.672348 150.995163,170.870377 151.997345,170.560349 
	C157.396729,168.890015 162.812302,167.263062 168.262604,165.768127 
	C179.158218,162.779617 181.139664,158.106934 175.713760,148.291321 
	C174.872223,146.768951 174.620102,144.920761 174.495804,143.183014 
	C176.981567,142.639725 179.050797,142.051743 181.155685,141.651245 
	C185.553009,140.814606 188.040436,138.244888 187.753799,133.757401 
	C187.609802,131.503159 186.975861,129.027924 185.791672,127.135628 
	C180.353256,118.445129 174.646973,109.922119 169.024643,101.346970 
	C168.129364,99.981476 167.172073,98.656624 166.243454,97.312988 
	C170.208527,98.567215 173.131424,100.731018 176.223770,102.617020 
	C179.402695,104.555817 182.747009,106.223457 186.008270,108.006302 
	C185.997604,108.002846 185.984650,107.984520 186.048752,108.222504 
	C186.293839,108.742004 186.526505,108.971024 187.010895,109.425186 
	C193.146225,112.802666 199.081512,115.902504 205.007614,119.002579 
	C204.998413,119.002800 204.990250,118.986252 205.136337,119.302681 
	C207.854340,122.120087 210.403564,120.608688 211.573715,118.563797 
	C212.782089,116.452126 212.609497,113.550224 213.074020,110.559738 
	C213.497589,106.607727 213.888184,103.090004 214.376953,98.687973 
	C216.677216,100.557976 218.025391,101.725525 219.445892,102.797188 
	C228.859070,109.898682 236.631775,107.623207 239.810028,96.179977 
	C242.424957,86.764938 243.987549,77.057632 246.008713,67.235382 
	C246.002075,66.501778 246.003250,66.012634 246.235168,65.208771 
	C247.526138,62.693378 248.586349,60.492702 249.685333,58.703888 
	C250.807953,64.998795 251.691528,70.927650 253.024124,76.753799 
	C254.876495,84.852325 256.708801,92.986618 259.209778,100.896912 
	C261.756744,108.952751 268.029114,110.908249 275.275909,106.607986 
	C276.659180,105.787140 278.135803,105.123535 279.735382,104.302147 
	C280.616211,105.791031 281.281311,106.915260 281.997437,108.394272 
	C283.187042,111.169411 284.325623,113.589767 285.538818,116.422256 
	C287.712646,121.054794 291.142059,119.583572 293.550171,117.925476 
	C302.205383,111.966011 310.622589,105.653343 318.979706,99.277512 
	C320.094025,98.427391 320.345886,96.446884 320.995667,94.998695 
	C320.994171,95.007538 320.976105,95.010818 321.319092,95.137260 
	C325.074005,96.080696 323.963715,98.396889 323.185394,100.352615 
	C321.899872,103.582802 320.376862,106.718483 318.811096,110.043442 
	C318.618958,110.323250 318.507996,110.467079 318.532898,110.581284 
	C318.590363,110.844856 318.713715,111.094063 318.699646,111.598251 
	C318.534790,112.205681 318.480652,112.563957 318.116028,113.017921 
	C316.136505,116.343475 314.225311,119.473412 312.843475,122.821800 
	C308.583313,133.144943 309.837708,140.417114 320.959351,141.900009 
	C324.012299,142.307068 324.210754,144.268478 322.537842,146.598557 
	C321.859619,147.543228 321.200592,148.513809 320.648804,149.535233 
	C316.109039,157.938858 318.940948,164.226318 328.194214,166.310913 
	C329.490723,166.603012 330.813660,166.776978 332.112396,167.060379 
	C341.185425,169.040146 350.255310,171.034348 359.203369,173.327103 
	C358.916687,174.031418 358.752838,174.432556 358.244629,174.921371 
	C348.103363,178.184708 338.255005,181.212418 328.527954,184.589432 
	C322.332458,186.740387 321.286346,190.230164 324.604279,196.076691 
	C325.946350,198.441498 327.433044,200.724243 329.326508,203.815979 
	C324.210236,203.815979 320.199280,203.815979 316.188324,203.815979 
	C316.127075,204.428207 316.065857,205.040451 316.004639,205.652679 
	C322.807495,207.146698 329.610321,208.640717 337.643494,210.404938 
	C336.596252,208.080887 336.368622,207.116196 335.809540,206.416260 
	C333.633453,203.691910 331.233246,201.141357 329.134308,198.361603 
	C324.448181,192.155380 325.079041,189.078629 332.231232,186.495331 
	C341.739838,183.060913 351.459564,180.211029 361.459503,177.053131 
	C364.950684,176.125259 368.070984,175.254303 371.537964,174.335144 
	C372.749725,173.758835 373.614807,173.230743 374.479858,172.702637 
	C373.289368,172.229706 372.098907,171.756775 370.541626,171.198303 
	C369.174133,171.054245 368.173431,170.995728 367.017242,170.774048 
	C366.624390,170.408844 366.349854,170.306335 365.644318,170.229736 
	C364.188873,170.070267 363.127319,169.984451 361.742615,169.681793 
	C350.505249,167.290543 339.582031,165.159973 328.680145,162.925339 
	C322.094727,161.575485 320.022125,157.148682 323.142334,151.106186 
	C324.049805,149.348801 325.313721,147.761749 326.513916,146.171890 
	C329.697723,141.954346 329.367432,140.923279 324.220306,139.527084 
	C323.262421,139.267258 322.272278,139.111069 321.288452,138.964752 
	C313.548645,137.813797 311.355713,134.131714 314.240875,126.750305 
	C316.051697,122.117401 318.127472,117.588051 320.223511,112.702957 
	C324.031708,106.593117 327.700714,100.792587 331.633911,95.111954 
	C331.641632,96.449692 331.500519,97.706879 331.101624,98.876137 
	C330.502563,100.632095 329.722839,102.326439 329.019928,104.046982 
	C325.275482,111.582489 321.330078,119.026489 317.844910,126.680077 
	C314.574799,133.861313 315.795746,135.557907 323.711365,136.316330 
	C325.340179,136.472412 327.007690,136.780457 328.532990,137.350952 
	C332.272491,138.749512 333.442902,142.456375 331.185791,145.744934 
	C329.591736,148.067429 327.551270,150.101547 326.100800,152.500641 
	C323.547516,156.723740 324.333252,158.992676 329.123932,160.106705 
	C337.325592,162.013947 345.616241,163.560547 353.904175,165.067825 
	C360.404022,166.249863 367.015686,166.877457 373.452087,168.314102 
	C375.625397,168.799164 377.413513,171.010056 379.377655,172.432205 
	C377.480865,174.172485 375.866547,176.798126 373.641022,177.508255 
	C359.951782,181.876343 346.137756,185.857681 332.333130,189.856705 
	C329.159332,190.776123 328.655914,192.607834 330.344696,194.980286 
	C332.837067,198.481720 335.856781,201.615295 338.255280,205.172943 
	C339.505951,207.028091 339.907959,209.455399 340.693298,211.624268 
	C338.724762,212.134216 336.640533,213.335815 334.808502,213.029434 
	C328.310211,211.942673 321.844757,210.543854 315.470490,208.868927 
	C310.611053,207.592041 310.039276,205.609955 313.179779,201.293091 
	C314.151093,200.900757 314.594818,200.657181 315.038513,200.413605 
	C316.090759,200.318085 317.143036,200.222549 318.855469,200.366440 
	C320.882080,200.851181 322.248505,201.096497 323.614960,201.341827 
	C323.749817,201.081131 323.884705,200.820435 324.019562,200.559738 
	C323.389160,200.016220 322.758789,199.472702 322.128387,198.929184 
	C322.128387,198.929184 322.052063,198.961533 322.081970,198.599121 
	C321.769409,197.477188 321.426910,196.717667 321.084442,195.958145 
M314.424408,107.849884 
	C314.494904,108.246109 314.565399,108.642326 314.635895,109.038544 
	C315.038025,108.925522 315.440186,108.812492 315.842316,108.699463 
	C315.613281,108.204880 315.384247,107.710297 314.424408,107.849884 
z"/>
<path fill="#30CEDE" opacity="1.000000" stroke="none" 
	d="
M345.954407,437.749634 
	C340.485352,439.376465 335.025574,442.379730 329.545837,442.416595 
	C276.402679,442.774170 223.256073,442.700226 170.110764,442.590698 
	C156.589630,442.562836 145.164230,434.670685 140.940826,421.786774 
	C138.444168,414.170502 138.750351,406.187408 143.079926,398.778564 
	C161.772522,366.791534 180.364944,334.745972 199.004593,302.727997 
	C201.582687,298.299469 203.895966,293.666260 206.922073,289.563110 
	C210.007950,285.378845 210.625275,280.933502 210.514343,276.002411 
	C210.312119,267.012482 210.289719,258.014557 210.420929,249.023300 
	C210.461792,246.222931 209.284988,245.318512 206.786087,244.790955 
	C199.024643,243.152374 194.474686,237.492371 195.082153,230.560425 
	C195.836075,221.957321 201.091888,217.228073 209.969040,217.217697 
	C236.125107,217.187088 262.281281,217.136490 288.437134,217.201523 
	C291.217590,217.208435 294.091736,217.601212 296.756256,218.382095 
	C302.644409,220.107712 305.977173,225.693604 305.764893,232.796341 
	C305.573853,239.188370 302.267487,242.997314 295.903931,244.887009 
	C293.789673,245.514847 291.971497,247.139832 289.747925,248.852539 
	C289.573700,249.921509 289.669525,250.446884 289.765381,250.972260 
	C289.817902,251.435150 289.870453,251.898041 289.654297,253.063873 
	C289.256134,260.813202 289.211670,267.862671 288.957703,274.904572 
	C288.847687,277.953522 288.305603,280.986847 287.736389,283.678314 
	C287.337433,273.035858 287.108948,262.742889 287.002808,252.448669 
	C286.914307,243.864365 286.977844,243.863708 295.049316,241.300064 
	C300.250580,239.648071 303.327881,235.115204 302.731415,229.984436 
	C302.037262,224.013412 298.560791,220.778824 292.388641,220.769684 
	C264.611420,220.728546 236.834045,220.740372 209.056870,220.798523 
	C203.033142,220.811142 199.696060,223.671860 199.048462,228.983627 
	C198.184448,236.070618 200.285019,240.514450 206.628098,241.325516 
	C212.434219,242.067932 214.659302,244.595901 214.584778,250.249756 
	C214.416168,251.710144 214.412659,252.865021 214.321609,254.473694 
	C214.266144,258.354248 214.298218,261.781006 214.246613,265.610565 
	C214.215714,267.938599 214.268494,269.863800 214.258362,272.257172 
	C213.769318,277.357269 213.343185,281.989197 212.704483,286.822693 
	C212.308456,287.364532 212.125000,287.704803 211.726562,288.303040 
	C206.140274,297.523529 200.679001,306.433563 195.416046,315.459290 
	C183.877304,335.247681 172.439011,355.094666 160.778931,375.048065 
	C160.367905,375.382416 160.223160,375.635345 159.966232,376.233887 
	C155.858276,383.112000 151.968597,389.705719 148.032455,396.271606 
	C143.378983,404.034119 141.313370,412.175995 144.291779,421.311768 
	C144.496979,421.815399 144.689728,422.056793 144.986938,422.546265 
	C145.351486,423.550842 145.662506,424.266663 146.096298,425.239166 
	C146.522171,425.717194 146.825302,425.938538 147.224823,426.453094 
	C148.468246,428.205139 149.615250,429.663940 150.973099,431.398376 
	C155.095779,433.569336 159.007645,435.464661 163.164459,437.559814 
	C164.626938,438.115814 165.844452,438.471985 167.520935,438.908508 
	C176.120422,439.037659 184.260986,439.133179 192.401474,439.127472 
	C237.264755,439.095917 282.128021,439.039642 327.391418,439.038361 
	C329.026306,438.730469 330.261017,438.376038 331.662476,438.029083 
	C331.829193,438.036530 332.162964,438.036652 332.162964,438.036652 
	C332.162964,438.036652 332.496429,438.022430 332.770935,438.261871 
	C337.170319,437.606537 342.119598,438.359802 344.008667,433.006042 
	C344.000000,432.999268 344.006927,433.019409 344.368347,433.144836 
	C345.157013,432.337311 345.584320,431.404358 346.168030,430.334534 
	C346.706390,429.795837 347.088379,429.394043 347.481445,429.301270 
	C348.097778,429.938232 348.703033,430.266205 349.590698,430.547394 
	C350.253387,430.486511 350.633667,430.472412 350.983276,430.787842 
	C350.630737,432.399628 350.308838,433.681915 349.986938,434.964172 
	C349.986969,434.964172 350.005096,435.001038 349.661896,435.050842 
	C348.197266,435.983643 347.075836,436.866638 345.954407,437.749634 
z"/>
<path fill="#32D1E0" opacity="1.000000" stroke="none" 
	d="
M222.442581,139.761749 
	C228.652496,125.230293 246.284500,118.535774 259.627045,124.174515 
	C266.750793,127.185112 274.459045,135.384384 276.315155,143.388962 
	C285.713562,142.295410 293.997467,145.119278 301.296844,151.410507 
	C312.654266,161.199295 314.689880,184.628510 297.148499,195.480865 
	C295.670258,196.395416 293.507141,197.244339 292.012115,196.837616 
	C289.952850,196.277374 287.679382,194.827332 286.606506,193.078308 
	C286.123413,192.290756 287.912262,189.184708 289.377167,188.296295 
	C294.226074,185.355606 297.927856,181.873169 299.531647,176.148544 
	C301.502258,169.114532 299.373871,163.406891 294.566986,158.552338 
	C289.752838,153.690491 283.797272,152.249588 277.150085,154.075073 
	C271.255707,155.693848 268.394287,154.175064 267.277100,147.909225 
	C264.574554,132.751328 248.291275,128.282028 237.913177,135.905624 
	C234.746292,138.231964 232.301895,142.479202 231.099976,146.336914 
	C228.968506,153.178116 228.770248,153.882935 221.851776,153.343094 
	C212.636475,152.624039 204.538010,158.302338 202.848267,166.667542 
	C200.904892,176.288513 205.586899,185.453781 214.168594,187.748917 
	C217.614151,188.670380 221.420761,188.383743 225.063416,188.389145 
	C229.292053,188.395401 231.477158,190.641479 232.343979,194.475967 
	C232.557983,195.422607 232.325836,196.466629 232.324982,197.465897 
	C232.319870,203.419754 232.322433,209.373627 232.322433,215.584473 
	C229.159073,215.584473 226.547607,215.584473 223.327713,215.584473 
	C223.327713,210.202057 223.327713,204.812683 223.327713,199.666519 
	C218.249207,198.513321 213.595169,198.024857 209.385086,196.391846 
	C197.679260,191.851334 190.808243,180.207764 192.476517,166.702530 
	C193.783463,156.122406 199.117035,148.111374 213.083740,144.077881 
	C215.287109,143.441544 217.636429,143.274734 219.793350,142.529373 
	C220.794876,142.183273 221.496872,140.970367 222.442581,139.761749 
M289.373505,147.663925 
	C285.749329,147.358093 282.117645,146.748123 278.503235,146.837402 
	C275.294250,146.916672 273.899719,145.937912 272.907806,142.738876 
	C269.578033,131.999557 261.443634,126.282875 250.793457,125.279335 
	C240.297729,124.290344 231.626038,129.378540 226.992172,138.646927 
	C224.212296,144.207077 220.978622,146.089493 215.233917,146.927521 
	C202.628876,148.766312 194.735184,160.101761 195.847275,173.532394 
	C196.792145,184.943527 207.322342,194.792648 218.913269,195.106522 
	C225.863953,195.294739 225.896957,195.291473 226.587036,202.308838 
	C226.869888,205.185257 226.975693,208.079102 227.162048,210.965012 
	C227.751877,210.931305 228.341721,210.897598 228.931564,210.863907 
	C228.931564,206.442657 228.737289,202.010437 228.986557,197.603287 
	C229.232895,193.248093 227.487808,191.391144 223.164505,191.810715 
	C221.844589,191.938797 220.498566,191.903671 219.170883,191.829208 
	C204.194962,190.989212 194.986603,176.271133 200.740280,162.395096 
	C204.212967,154.020050 210.795410,149.973831 220.964706,149.963898 
	C223.583923,149.961334 225.989349,150.461334 227.138382,146.697464 
	C230.830185,134.604187 237.921692,129.068771 248.828568,129.028488 
	C259.803894,128.987946 266.947754,134.498108 270.723724,146.515457 
	C271.875580,150.181335 273.379608,151.084793 277.184570,150.367508 
	C287.675446,148.389862 297.866486,153.778687 301.860748,163.071899 
	C305.089752,170.584641 304.029205,183.072266 293.985352,188.915344 
	C292.704071,189.660721 291.164795,189.962616 289.745026,190.469971 
	C290.495331,191.417679 291.245667,192.365402 291.995972,193.313110 
	C293.786469,192.575546 295.792969,192.141830 297.330719,191.048706 
	C304.675446,185.827515 307.375092,178.162888 306.705688,169.662476 
	C305.878876,159.163208 300.236786,151.703384 289.373505,147.663925 
z"/>
<path fill="#34CFDF" opacity="1.000000" stroke="none" 
	d="
M329.305481,103.864700 
	C329.722839,102.326439 330.502563,100.632095 331.101624,98.876137 
	C331.500519,97.706879 331.641632,96.449692 331.728943,94.806412 
	C334.808716,89.327194 338.057587,84.273422 341.306458,79.219658 
	C340.824982,78.818283 340.343506,78.416916 339.862030,78.015549 
	C332.508667,82.422958 326.271423,88.157059 320.976105,95.010818 
	C320.976105,95.010818 320.994171,95.007538 320.634827,94.924103 
	C318.772827,95.794624 317.201294,96.656326 315.778931,97.717888 
	C307.970551,103.545708 300.267883,109.519196 292.345245,115.185905 
	C291.046173,116.115082 288.834290,115.768059 286.993683,115.644951 
	C285.682037,112.097237 284.420990,108.915436 283.174164,105.324982 
	C282.976532,103.047966 282.764709,101.179619 282.445587,98.364845 
	C279.913239,99.811699 278.199799,100.686119 276.593170,101.725685 
	C266.651947,108.158188 263.461639,107.372673 260.334625,95.870438 
	C256.943573,83.397018 254.682022,70.616516 251.940475,57.564812 
	C251.300034,53.815689 250.647049,50.471680 249.994049,47.127674 
	C249.123230,47.117268 248.252396,47.106861 247.381561,47.096455 
	C246.531570,52.287163 245.681580,57.477867 244.656693,62.902023 
	C244.628036,63.801273 244.774277,64.467079 245.169281,65.292114 
	C245.613541,65.475395 245.808990,65.499443 246.004425,65.523499 
	C246.003250,66.012634 246.002075,66.501778 245.601990,67.288605 
	C244.347702,69.051079 243.083679,70.418343 242.706894,71.997330 
	C240.973724,79.260452 239.695389,86.635056 237.865540,93.871460 
	C235.074631,104.908516 226.948380,106.970375 218.721680,98.979836 
	C217.065796,97.371490 215.143387,96.037537 213.343872,94.577072 
	C212.763092,94.836205 212.182297,95.095345 211.601517,95.354485 
	C211.412811,100.561722 211.224106,105.768959 210.996048,111.386742 
	C211.417206,116.226418 209.611938,118.775070 204.990250,118.986252 
	C204.990250,118.986252 204.998413,119.002800 204.867920,118.691330 
	C199.213806,114.861717 193.690155,111.343582 187.798645,107.777382 
	C186.948715,107.814384 186.466690,107.899452 185.984650,107.984528 
	C185.984650,107.984520 185.997604,108.002846 186.014603,107.650444 
	C185.596573,106.605659 185.317917,105.696609 184.703293,105.253090 
	C173.949448,97.492882 163.169037,89.769043 152.336578,82.119194 
	C151.592972,81.594070 150.393158,81.714966 149.405518,81.535423 
	C149.145172,81.892914 148.884827,82.250397 148.624481,82.607880 
	C151.575897,86.057510 154.427933,89.598389 157.496674,92.940285 
	C168.307724,104.713623 178.294571,117.040871 184.505707,131.988892 
	C183.812988,132.169785 183.120285,132.350677 182.227097,132.716095 
	C173.788513,116.264107 162.615814,101.781792 149.565872,88.677116 
	C149.213440,88.323212 148.821243,87.993027 148.538330,87.588341 
	C146.647873,84.884117 143.555328,81.763763 146.271484,78.738815 
	C149.172852,75.507599 152.239273,78.777275 154.865723,80.593430 
	C169.971039,91.038567 185.040771,101.535187 200.158432,111.962372 
	C202.032150,113.254753 204.118500,114.238831 206.890701,115.810448 
	C207.355896,113.195251 207.937119,111.223747 208.013382,109.232887 
	C208.179062,104.907196 208.264679,100.562859 208.051361,96.242516 
	C207.828339,91.725800 211.968842,88.930061 216.084854,92.348846 
	C218.253296,94.149986 220.267639,96.140335 222.310287,98.088554 
	C227.446457,102.987274 232.243164,102.167198 234.031433,95.229485 
	C237.246292,82.757217 239.645325,70.073570 242.330185,57.466518 
	C243.052048,54.076874 243.177689,50.500736 244.342819,47.287926 
	C245.013779,45.437843 247.218887,44.144138 248.733459,42.599998 
	C250.171219,44.212830 252.463150,45.625912 252.895294,47.473904 
	C254.551392,54.555740 255.404114,61.821838 256.942902,68.935616 
	C258.973206,78.321541 261.170837,87.681824 263.674408,96.951080 
	C265.302673,102.979546 268.066040,103.842270 273.498993,100.671585 
	C274.637878,100.006927 275.529114,98.872345 276.707428,98.330612 
	C278.963715,97.293282 281.789154,95.339554 283.541901,95.996834 
	C285.138397,96.595543 285.771301,100.101036 286.548950,102.419205 
	C287.011993,103.799576 286.812714,105.387985 287.130432,106.834732 
	C287.552399,108.756065 288.188171,110.630447 288.857910,112.963417 
	C298.679260,109.159470 306.087402,102.352524 313.721466,95.992966 
	C320.981171,89.945328 327.717590,83.263924 335.055634,77.319786 
	C336.951324,75.784172 340.980469,74.658920 342.731842,75.646545 
	C346.042084,77.513245 344.855316,81.066521 342.926666,83.925713 
	C338.483490,90.512650 334.036499,97.097008 329.305481,103.864700 
z"/>
<path fill="#37D0E0" opacity="1.000000" stroke="none" 
	d="
M350.316956,434.872925 
	C350.308838,433.681915 350.630737,432.399628 351.062073,430.459198 
	C351.228302,429.584320 351.285126,429.367645 351.636902,428.980530 
	C358.140289,418.435822 358.903107,407.995575 352.632385,397.287720 
	C346.420532,386.680389 340.445312,375.934753 334.289978,365.293976 
	C322.319000,344.599701 310.247162,323.963623 298.321045,303.243622 
	C294.692169,296.938995 291.403992,290.438232 287.959808,284.027283 
	C288.305603,280.986847 288.847687,277.953522 288.957703,274.904572 
	C289.211670,267.862671 289.256134,260.813202 289.575500,253.406586 
	C289.825958,259.193848 290.362732,265.382874 289.831360,271.478790 
	C289.099731,279.873322 291.914734,286.825287 296.097443,293.859314 
	C309.507080,316.410004 322.563751,339.171417 335.669128,361.901917 
	C343.170410,374.912415 350.930298,387.800995 357.780762,401.151398 
	C363.770172,412.823639 360.569366,425.652222 350.316956,434.872925 
z"/>
<path fill="#31CFE0" opacity="1.000000" stroke="none" 
	d="
M280.055603,194.752319 
	C279.244446,199.506088 278.086578,203.898605 278.011597,208.309540 
	C277.876831,216.238831 278.148346,216.243439 269.226562,215.506592 
	C269.226562,208.105560 268.847778,200.576706 269.515961,193.141937 
	C269.666718,191.464752 273.339935,189.142258 275.614471,188.849792 
	C278.796783,188.440643 280.589935,190.931763 280.055603,194.752319 
M271.815216,200.642136 
	C272.059845,204.172653 272.304443,207.703156 272.549072,211.233673 
	C273.039948,211.211029 273.530853,211.188400 274.021759,211.165771 
	C274.950531,205.627762 275.924255,200.096375 276.741150,194.541916 
	C276.826385,193.962128 276.027344,192.744736 275.560577,192.703369 
	C274.740875,192.630737 273.292816,193.048187 273.108215,193.596924 
	C272.446625,195.563309 272.204224,197.670731 271.815216,200.642136 
z"/>
<path fill="#43DEEA" opacity="1.000000" stroke="none" 
	d="
M354.118164,129.792389 
	C352.496216,130.263062 351.183502,131.112640 350.009430,130.951569 
	C348.373718,130.727173 346.147644,130.149307 345.465515,128.973572 
	C344.816132,127.854218 345.244110,124.939064 346.210358,124.265831 
	C349.518158,121.961082 353.116669,119.769051 356.931671,118.650177 
	C358.408051,118.217186 361.552429,120.364525 362.431976,122.099350 
	C363.015381,123.250023 361.326477,126.167488 359.917358,127.533295 
	C358.620087,128.790680 356.337677,129.031693 354.118164,129.792389 
z"/>
<path fill="#33D2E3" opacity="1.000000" stroke="none" 
	d="
M141.027679,130.816986 
	C137.696991,129.692413 134.614365,128.924347 131.845367,127.532402 
	C129.292160,126.248955 127.934227,123.993217 129.614578,121.011497 
	C131.212036,118.176895 133.421661,117.560486 136.244720,119.261909 
	C138.760422,120.778084 141.637711,121.896217 143.739059,123.852203 
	C147.178696,127.053879 146.172363,129.639862 141.027679,130.816986 
z"/>
<path fill="#34CFDF" opacity="1.000000" stroke="none" 
	d="
M300.771118,75.574303 
	C298.306335,79.255814 294.863251,80.587296 291.634827,78.446014 
	C289.554901,77.066490 287.702820,73.810257 287.615997,71.329773 
	C287.495483,67.887047 290.229675,65.457947 293.922943,64.885468 
	C299.306854,64.050934 302.723267,69.130615 300.771118,75.574303 
M297.640411,70.211357 
	C295.948669,69.863510 294.119324,68.994003 292.623505,69.388695 
	C291.879669,69.584969 291.180267,72.253716 291.522034,73.516823 
	C291.786316,74.493530 294.556732,75.823914 294.744629,75.623093 
	C296.024200,74.255600 296.914642,72.523956 297.640411,70.211357 
z"/>
<path fill="#34CFDF" opacity="1.000000" stroke="none" 
	d="
M199.033279,73.076317 
	C196.792755,69.854630 194.334656,67.085617 193.025085,63.851540 
	C192.439331,62.404972 193.847580,58.598446 194.896896,58.369919 
	C196.993866,57.913223 200.713135,58.463627 201.537857,59.887074 
	C203.535599,63.335140 204.644714,67.451424 205.375717,71.433563 
	C206.007355,74.874382 203.708664,75.531052 199.033279,73.076317 
M196.165054,63.227032 
	C197.733124,65.629593 199.301193,68.032150 200.869263,70.434708 
	C201.279205,70.160309 201.689148,69.885902 202.099091,69.611496 
	C201.227325,67.354027 200.544144,64.989288 199.360825,62.909050 
	C199.035599,62.337326 197.215134,62.616165 196.165054,63.227032 
z"/>
<path fill="#34C8D4" opacity="1.000000" stroke="none" 
	d="
M149.869507,236.772430 
	C153.096375,236.641586 156.541916,235.843521 158.881683,237.101746 
	C162.497589,239.046204 162.568253,244.018005 159.911850,247.125320 
	C157.519531,249.923691 152.968674,250.341675 149.992111,248.036392 
	C146.722672,245.504288 146.570038,241.297470 149.869507,236.772430 
M153.684769,245.953766 
	C155.152893,244.838837 156.852264,243.901230 157.934219,242.490189 
	C158.221710,242.115295 156.805176,239.564392 155.828232,239.305359 
	C154.554916,238.967743 151.695847,239.895584 151.688126,240.318527 
	C151.655182,242.122101 152.421722,243.940292 153.684769,245.953766 
z"/>
<path fill="#34C8D4" opacity="1.000000" stroke="none" 
	d="
M333.087097,248.039322 
	C336.754181,245.748367 340.464111,245.570435 342.624237,248.888626 
	C343.976990,250.966614 344.315735,254.611526 343.484314,256.983795 
	C342.346466,260.230286 338.975250,261.140869 335.511169,260.079254 
	C330.815460,258.640167 329.604401,253.261185 333.087097,248.039322 
M334.706116,254.984039 
	C338.003510,257.510254 340.735352,257.285461 340.902710,254.329239 
	C340.979126,252.979721 339.675201,250.612946 338.569031,250.318939 
	C335.718933,249.561417 334.471313,251.555984 334.706116,254.984039 
z"/>
<path fill="#34CFDF" opacity="1.000000" stroke="none" 
	d="
M362.010315,208.356384 
	C364.752411,205.022003 367.428680,205.147980 370.267944,207.618347 
	C372.925507,209.930603 371.991058,212.188950 370.274261,214.507156 
	C368.285889,217.192001 365.344025,217.411880 363.463318,215.430740 
	C362.067413,213.960251 362.282959,210.959991 362.010315,208.356384 
z"/>
<path fill="#37D0E0" opacity="1.000000" stroke="none" 
	d="
M122.315140,191.254578 
	C123.580856,193.607605 125.527878,196.143143 125.019264,198.009460 
	C124.602859,199.537460 121.269089,201.063293 119.212456,201.085373 
	C117.728638,201.101303 115.570160,198.922607 114.850845,197.237000 
	C113.208076,193.387436 116.014946,191.117264 122.315140,191.254578 
z"/>
<path fill="#15A5B5" opacity="1.000000" stroke="none" 
	d="
M322.002563,199.281509 
	C322.758789,199.472702 323.389160,200.016220 324.019562,200.559738 
	C323.884705,200.820435 323.749817,201.081131 323.614960,201.341827 
	C322.248505,201.096497 320.882080,200.851181 319.251892,200.419403 
	C319.951019,200.033264 320.913879,199.833542 322.002563,199.281509 
z"/>
<path fill="#37D0E0" opacity="1.000000" stroke="none" 
	d="
M346.270874,437.728760 
	C347.075836,436.866638 348.197266,435.983643 349.642395,435.044556 
	C348.839844,435.894928 347.713623,436.801422 346.270874,437.728760 
z"/>
<path fill="#15A5B5" opacity="1.000000" stroke="none" 
	d="
M321.064819,196.298615 
	C321.426910,196.717667 321.769409,197.477188 322.097778,198.560791 
	C321.737488,198.136292 321.391357,197.387680 321.064819,196.298615 
z"/>
<path fill="#37D0E0" opacity="1.000000" stroke="none" 
	d="
M289.840485,250.654083 
	C289.669525,250.446884 289.573700,249.921509 289.612213,249.223022 
	C289.802917,249.478561 289.859253,249.907227 289.840485,250.654083 
z"/>
<path fill="#15A5B5" opacity="1.000000" stroke="none" 
	d="
M314.749084,200.376770 
	C314.594818,200.657181 314.151093,200.900757 313.442352,201.121063 
	C313.604797,200.845184 314.032227,200.592560 314.749084,200.376770 
z"/>
<path fill="#88FDFF" opacity="1.000000" stroke="none" 
	d="
M174.095413,143.223251 
	C174.620102,144.920761 174.872223,146.768951 175.713760,148.291321 
	C181.139664,158.106934 179.158218,162.779617 168.262604,165.768127 
	C162.812302,167.263062 157.396729,168.890015 151.997345,170.560349 
	C150.995163,170.870377 150.145172,171.672348 148.077072,172.964462 
	C152.688370,174.804169 156.259354,176.333694 159.905365,177.656448 
	C164.285538,179.245544 168.784042,180.515930 173.134689,182.177292 
	C182.456970,185.737183 183.588501,191.162811 176.567261,198.162842 
	C174.695511,200.028931 172.720871,201.791824 170.793503,203.602127 
	C170.917770,204.053925 171.042038,204.505722 171.166306,204.957520 
	C176.240387,204.354889 181.314468,203.752243 186.388550,203.149612 
	C186.507278,203.844452 186.626007,204.539291 186.744736,205.234131 
	C178.331131,207.055206 169.917526,208.876282 161.503906,210.697357 
	C161.236938,210.297501 160.969955,209.897659 160.702988,209.497818 
	C162.893021,207.254303 165.053040,204.980469 167.280914,202.775177 
	C169.882996,200.199432 172.639267,197.773682 175.157990,195.120819 
	C179.061264,191.009659 178.896515,188.496704 173.707642,186.491425 
	C163.024689,182.362976 152.099213,178.860962 141.263809,175.129379 
	C139.454361,174.506226 137.595963,174.025177 135.760178,173.478455 
	C135.721802,173.035980 135.683426,172.593506 135.645050,172.151031 
	C137.362259,171.489685 139.042770,170.703064 140.802734,170.187698 
	C150.857529,167.243286 160.947266,164.417419 170.991501,161.437927 
	C175.702454,160.040482 176.833237,157.143936 174.477692,152.589981 
	C173.571732,150.838440 172.269958,149.274155 171.032959,147.716309 
	C169.832993,146.205063 168.484787,144.811508 166.344757,142.401093 
	C169.395416,142.086105 171.253967,141.894211 173.560974,142.085144 
	C174.038086,142.719757 174.066742,142.971497 174.095413,143.223251 
z"/>
<path fill="#84FCFF" opacity="1.000000" stroke="none" 
	d="
M174.495804,143.183014 
	C174.066742,142.971497 174.038086,142.719757 173.972855,142.087646 
	C177.217728,139.922073 180.499176,138.136856 184.062714,135.889099 
	C184.423843,135.025497 184.502869,134.624435 184.581909,134.223358 
	C184.586075,133.726044 184.590225,133.228714 184.550049,132.360138 
	C178.294571,117.040871 168.307724,104.713623 157.496674,92.940285 
	C154.427933,89.598389 151.575897,86.057510 148.624481,82.607880 
	C148.884827,82.250397 149.145172,81.892914 149.405518,81.535423 
	C150.393158,81.714966 151.592972,81.594070 152.336578,82.119194 
	C163.169037,89.769043 173.949448,97.492882 184.703293,105.253090 
	C185.317917,105.696609 185.596573,106.605659 186.025269,107.653900 
	C182.747009,106.223457 179.402695,104.555817 176.223770,102.617020 
	C173.131424,100.731018 170.208527,98.567215 166.243454,97.312988 
	C167.172073,98.656624 168.129364,99.981476 169.024643,101.346970 
	C174.646973,109.922119 180.353256,118.445129 185.791672,127.135628 
	C186.975861,129.027924 187.609802,131.503159 187.753799,133.757401 
	C188.040436,138.244888 185.553009,140.814606 181.155685,141.651245 
	C179.050797,142.051743 176.981567,142.639725 174.495804,143.183014 
z"/>
<path fill="#82FDFF" opacity="1.000000" stroke="none" 
	d="
M359.326202,173.023926 
	C350.255310,171.034348 341.185425,169.040146 332.112396,167.060379 
	C330.813660,166.776978 329.490723,166.603012 328.194214,166.310913 
	C318.940948,164.226318 316.109039,157.938858 320.648804,149.535233 
	C321.200592,148.513809 321.859619,147.543228 322.537842,146.598557 
	C324.210754,144.268478 324.012299,142.307068 320.959351,141.900009 
	C309.837708,140.417114 308.583313,133.144943 312.843475,122.821800 
	C314.225311,119.473412 316.136505,116.343475 318.531189,113.037613 
	C319.532684,112.978485 319.808502,112.995361 320.084351,113.012253 
	C318.127472,117.588051 316.051697,122.117401 314.240875,126.750305 
	C311.355713,134.131714 313.548645,137.813797 321.288452,138.964752 
	C322.272278,139.111069 323.262421,139.267258 324.220306,139.527084 
	C329.367432,140.923279 329.697723,141.954346 326.513916,146.171890 
	C325.313721,147.761749 324.049805,149.348801 323.142334,151.106186 
	C320.022125,157.148682 322.094727,161.575485 328.680145,162.925339 
	C339.582031,165.159973 350.505249,167.290543 361.600769,169.968552 
	C360.963470,171.322754 360.144836,172.173340 359.326202,173.023926 
z"/>
<path fill="#84FCFF" opacity="1.000000" stroke="none" 
	d="
M361.088623,177.110046 
	C351.459564,180.211029 341.739838,183.060913 332.231232,186.495331 
	C325.079041,189.078629 324.448181,192.155380 329.134308,198.361603 
	C331.233246,201.141357 333.633453,203.691910 335.809540,206.416260 
	C336.368622,207.116196 336.596252,208.080887 337.643494,210.404938 
	C329.610321,208.640717 322.807495,207.146698 316.004639,205.652679 
	C316.065857,205.040451 316.127075,204.428207 316.188324,203.815979 
	C320.199280,203.815979 324.210236,203.815979 329.326508,203.815979 
	C327.433044,200.724243 325.946350,198.441498 324.604279,196.076691 
	C321.286346,190.230164 322.332458,186.740387 328.527954,184.589432 
	C338.255005,181.212418 348.103363,178.184708 358.557129,175.079407 
	C359.838837,175.803192 360.463745,176.456619 361.088623,177.110046 
z"/>
<path fill="#7BFCFE" opacity="1.000000" stroke="none" 
	d="
M251.927917,57.969925 
	C254.682022,70.616516 256.943573,83.397018 260.334625,95.870438 
	C263.461639,107.372673 266.651947,108.158188 276.593170,101.725685 
	C278.199799,100.686119 279.913239,99.811699 282.445587,98.364845 
	C282.764709,101.179619 282.976532,103.047966 283.088257,105.649948 
	C282.640900,106.935547 282.293671,107.487511 281.946411,108.039482 
	C281.281311,106.915260 280.616211,105.791031 279.735382,104.302147 
	C278.135803,105.123535 276.659180,105.787140 275.275909,106.607986 
	C268.029114,110.908249 261.756744,108.952751 259.209778,100.896912 
	C256.708801,92.986618 254.876495,84.852325 253.024124,76.753799 
	C251.691528,70.927650 250.807953,64.998795 250.063812,58.618919 
	C250.911667,58.071365 251.419800,58.020645 251.927917,57.969925 
z"/>
<path fill="#97FDFE" opacity="1.000000" stroke="none" 
	d="
M320.223511,112.702950 
	C319.808502,112.995361 319.532684,112.978485 318.841675,112.941910 
	C318.480652,112.563957 318.534790,112.205681 318.752441,111.234772 
	C318.928589,110.379417 318.941284,110.136711 318.953949,109.893997 
	C320.376862,106.718483 321.899872,103.582802 323.185394,100.352615 
	C323.963715,98.396889 325.074005,96.080696 321.319092,95.137260 
	C326.271423,88.157059 332.508667,82.422958 339.862030,78.015549 
	C340.343506,78.416916 340.824982,78.818283 341.306458,79.219658 
	C338.057587,84.273422 334.808716,89.327194 331.464783,94.686508 
	C327.700714,100.792587 324.031708,106.593117 320.223511,112.702950 
z"/>
<path fill="#78FCFF" opacity="1.000000" stroke="none" 
	d="
M211.035400,110.976196 
	C211.224106,105.768959 211.412811,100.561722 211.601517,95.354485 
	C212.182297,95.095345 212.763092,94.836205 213.343872,94.577072 
	C215.143387,96.037537 217.065796,97.371490 218.721680,98.979836 
	C226.948380,106.970375 235.074631,104.908516 237.865540,93.871460 
	C239.695389,86.635056 240.973724,79.260452 242.706894,71.997330 
	C243.083679,70.418343 244.347702,69.051079 245.609802,67.533073 
	C243.987549,77.057632 242.424957,86.764938 239.810028,96.179977 
	C236.631775,107.623207 228.859070,109.898682 219.445892,102.797188 
	C218.025391,101.725525 216.677216,100.557976 214.376953,98.687973 
	C213.888184,103.090004 213.497589,106.607727 212.739197,110.560638 
	C211.926056,110.989288 211.480728,110.982742 211.035400,110.976196 
z"/>
<path fill="#88FDFF" opacity="1.000000" stroke="none" 
	d="
M287.044281,116.010864 
	C288.834290,115.768059 291.046173,116.115082 292.345245,115.185905 
	C300.267883,109.519196 307.970551,103.545708 315.778931,97.717888 
	C317.201294,96.656326 318.772827,95.794624 320.636322,94.915260 
	C320.345886,96.446884 320.094025,98.427391 318.979706,99.277512 
	C310.622589,105.653343 302.205383,111.966011 293.550171,117.925476 
	C291.142059,119.583572 287.712646,121.054794 285.936401,116.427551 
	C286.520966,116.017426 286.782623,116.014145 287.044281,116.010864 
z"/>
<path fill="#89FDFF" opacity="1.000000" stroke="none" 
	d="
M251.940475,57.564812 
	C251.419800,58.020645 250.911667,58.071365 250.025055,58.207054 
	C248.586349,60.492702 247.526138,62.693378 246.235168,65.208771 
	C245.808990,65.499443 245.613541,65.475395 245.179169,64.881790 
	C244.904037,63.764351 244.867813,63.216465 244.831589,62.668575 
	C245.681580,57.477867 246.531570,52.287163 247.381561,47.096455 
	C248.252396,47.106861 249.123230,47.117268 249.994049,47.127674 
	C250.647049,50.471680 251.300034,53.815689 251.940475,57.564812 
z"/>
<path fill="#97FDFE" opacity="1.000000" stroke="none" 
	d="
M361.459534,177.053131 
	C360.463745,176.456619 359.838837,175.803192 358.901459,174.991730 
	C358.752838,174.432556 358.916687,174.031418 359.203369,173.327103 
	C360.144836,172.173340 360.963470,171.322754 361.923950,170.185394 
	C363.127319,169.984451 364.188873,170.070267 365.805206,170.376434 
	C366.603973,170.774490 366.874878,170.887955 367.172699,170.937225 
	C368.173431,170.995728 369.174133,171.054245 370.572083,171.580704 
	C371.043304,172.826889 371.117310,173.605118 371.191284,174.383347 
	C368.070984,175.254303 364.950684,176.125259 361.459534,177.053131 
z"/>
<path fill="#6CFAFF" opacity="1.000000" stroke="none" 
	d="
M188.166519,107.825447 
	C193.690155,111.343582 199.213806,114.861717 204.877136,118.691101 
	C199.081512,115.902504 193.146225,112.802666 187.264252,109.233322 
	C187.600555,108.451042 187.883545,108.138245 188.166519,107.825447 
z"/>
<path fill="#6CFAFF" opacity="1.000000" stroke="none" 
	d="
M210.996048,111.386734 
	C211.480728,110.982742 211.926056,110.989288 212.706207,110.994934 
	C212.609497,113.550224 212.782089,116.452126 211.573715,118.563797 
	C210.403564,120.608688 207.854340,122.120087 205.136337,119.302681 
	C209.611938,118.775070 211.417206,116.226418 210.996048,111.386734 
z"/>
<path fill="#6CFAFF" opacity="1.000000" stroke="none" 
	d="
M286.993683,115.644951 
	C286.782623,116.014145 286.520966,116.017426 285.861755,116.015411 
	C284.325623,113.589767 283.187042,111.169411 281.997437,108.394272 
	C282.293671,107.487511 282.640900,106.935547 283.074036,106.058609 
	C284.420990,108.915436 285.682037,112.097237 286.993683,115.644951 
z"/>
<path fill="#82FDFF" opacity="1.000000" stroke="none" 
	d="
M371.537964,174.335144 
	C371.117310,173.605118 371.043304,172.826889 370.938843,171.666260 
	C372.098907,171.756775 373.289368,172.229706 374.479858,172.702637 
	C373.614807,173.230743 372.749725,173.758835 371.537964,174.335144 
z"/>
<path fill="#34CFDF" opacity="1.000000" stroke="none" 
	d="
M184.469849,134.384964 
	C184.502869,134.624435 184.423843,135.025497 184.167435,135.539703 
	C184.112625,135.284073 184.235199,134.915329 184.469849,134.384964 
z"/>
<path fill="#000000" opacity="1.000000" stroke="none" 
	d="
M314.789795,107.532791 
	C315.384247,107.710297 315.613281,108.204880 315.842316,108.699463 
	C315.440186,108.812492 315.038025,108.925522 314.635864,109.038544 
	C314.565399,108.642326 314.494904,108.246109 314.789795,107.532791 
z"/>
<path fill="#84FCFF" opacity="1.000000" stroke="none" 
	d="
M187.798645,107.777382 
	C187.883545,108.138245 187.600555,108.451042 187.064209,108.955688 
	C186.526505,108.971024 186.293839,108.742004 186.048752,108.222511 
	C186.466690,107.899452 186.948715,107.814384 187.798645,107.777382 
z"/>
<path fill="#82FDFF" opacity="1.000000" stroke="none" 
	d="
M318.811096,110.043442 
	C318.941284,110.136711 318.928589,110.379417 318.863098,110.985611 
	C318.713715,111.094063 318.590363,110.844856 318.532898,110.581284 
	C318.507996,110.467079 318.618958,110.323250 318.811096,110.043442 
z"/>
<path fill="#82FDFF" opacity="1.000000" stroke="none" 
	d="
M367.017242,170.774048 
	C366.874878,170.887955 366.603973,170.774490 366.199097,170.450089 
	C366.349854,170.306335 366.624390,170.408844 367.017242,170.774048 
z"/>
<path fill="#33D2E3" opacity="1.000000" stroke="none" 
	d="
M347.470367,428.992279 
	C347.088379,429.394043 346.706390,429.795837 345.889191,430.523315 
	C344.971619,431.572479 344.489288,432.295959 344.006958,433.019409 
	C344.006927,433.019409 344.000000,432.999268 343.630554,432.930115 
	C339.672852,434.581482 336.084656,436.301971 332.496429,438.022430 
	C332.496429,438.022430 332.162964,438.036652 332.162964,438.036652 
	C332.162964,438.036652 331.829193,438.036530 331.559082,437.648193 
	C329.851654,436.910492 328.414368,436.561096 326.513428,436.150574 
	C273.036224,436.064056 220.022659,436.038605 166.677673,435.912598 
	C165.225052,435.564301 164.103851,435.316620 162.677277,434.895020 
	C159.330185,433.027649 156.288437,431.334198 153.064285,429.369995 
	C151.180389,426.704620 149.478897,424.310028 147.702606,421.718201 
	C147.472198,421.278137 147.272034,421.080383 146.925186,420.534851 
	C145.290588,414.096283 145.686813,408.171783 148.635925,402.672241 
	C151.855484,396.668274 155.407761,390.841614 158.854050,384.960541 
	C177.765945,352.687622 196.705734,320.431000 215.559280,288.124054 
	C216.433899,286.625275 216.973358,284.701447 216.989639,282.969238 
	C217.080368,273.316132 216.961411,263.661072 216.959625,253.606781 
	C216.976654,252.135681 216.948257,251.064499 216.956146,249.609009 
	C216.774902,248.262131 216.244919,247.249695 216.389236,246.344803 
	C217.544952,239.097931 213.111206,238.670273 207.710220,238.647736 
	C206.179214,238.641357 204.030518,237.065933 203.237930,235.621429 
	C199.822540,229.396942 203.195557,224.047897 210.534622,224.027878 
	C237.349518,223.954681 264.164795,223.986465 290.979858,224.032242 
	C297.065338,224.042633 298.844666,225.694870 299.012451,231.026489 
	C299.180298,236.361572 297.122925,238.370560 291.038239,238.813034 
	C283.926239,239.330200 283.094208,240.042587 283.151215,247.161469 
	C283.241821,258.474182 283.445404,269.789673 283.883759,281.093079 
	C283.982849,283.648438 284.770752,286.428833 286.040771,288.648346 
	C299.592224,312.331696 313.362122,335.889923 326.952087,359.551453 
	C335.488037,374.413452 344.114899,389.237183 352.103851,404.392822 
	C355.458496,410.756805 355.746124,417.803802 350.919189,424.156952 
	C349.937286,425.449280 349.358307,427.047729 348.308044,428.613586 
	C347.838531,428.812195 347.654449,428.902222 347.470367,428.992279 
M168.661575,433.598450 
	C170.145660,433.717712 171.629715,433.940857 173.113831,433.941193 
	C224.477798,433.953003 275.841766,433.950714 327.205719,433.905518 
	C328.818787,433.904114 330.431458,433.428802 332.748169,432.943939 
	C349.886719,429.686462 354.282959,413.352325 347.361206,401.924103 
	C343.159424,394.986725 339.416626,387.773102 335.334900,380.760834 
	C319.181641,353.010071 302.932312,325.315094 286.837830,297.530365 
	C284.473511,293.448730 281.305573,289.094055 281.003387,284.694397 
	C280.080475,271.258118 280.264984,257.738373 280.243042,244.250732 
	C280.232391,237.687851 282.706024,235.478302 289.340393,235.262573 
	C295.433502,235.064453 296.060547,234.197662 294.379333,227.619995 
	C285.501221,227.619995 276.490662,227.608597 267.480133,227.622360 
	C248.480850,227.651367 229.481506,227.732895 210.482422,227.689178 
	C207.526810,227.682388 205.630737,228.272202 205.700546,231.723083 
	C205.769043,235.110153 207.947769,235.184311 210.473602,235.250534 
	C218.895996,235.471405 220.920868,237.576370 220.927490,245.916000 
	C220.935562,256.080688 220.705399,266.251160 220.983292,276.408020 
	C221.171783,283.298126 219.576630,289.317566 215.630310,295.062561 
	C211.237091,301.458160 207.492249,308.304260 203.555878,315.007507 
	C192.083054,334.544434 180.633270,354.095032 169.219467,373.666504 
	C163.369705,383.697235 157.258789,393.598480 151.911926,403.893768 
	C145.621017,416.006714 152.197617,432.214813 168.661575,433.598450 
z"/>
<path fill="#8CFEFF" opacity="1.000000" stroke="none" 
	d="
M348.593567,428.505066 
	C349.358307,427.047729 349.937286,425.449280 350.919189,424.156952 
	C355.746124,417.803802 355.458496,410.756805 352.103851,404.392822 
	C344.114899,389.237183 335.488037,374.413452 326.952087,359.551453 
	C313.362122,335.889923 299.592224,312.331696 286.040771,288.648346 
	C284.770752,286.428833 283.982849,283.648438 283.883759,281.093079 
	C283.445404,269.789673 283.241821,258.474182 283.151215,247.161469 
	C283.094208,240.042587 283.926239,239.330200 291.038239,238.813034 
	C297.122925,238.370560 299.180298,236.361572 299.012451,231.026489 
	C298.844666,225.694870 297.065338,224.042633 290.979858,224.032242 
	C264.164795,223.986465 237.349518,223.954681 210.534622,224.027878 
	C203.195557,224.047897 199.822540,229.396942 203.237930,235.621429 
	C204.030518,237.065933 206.179214,238.641357 207.710220,238.647736 
	C213.111206,238.670273 217.544952,239.097931 216.389236,246.344803 
	C216.244919,247.249695 216.774902,248.262131 216.595505,249.605682 
	C215.715668,249.972488 215.232788,249.958359 214.749893,249.944229 
	C214.659302,244.595901 212.434219,242.067932 206.628098,241.325516 
	C200.285019,240.514450 198.184448,236.070618 199.048462,228.983627 
	C199.696060,223.671860 203.033142,220.811142 209.056870,220.798523 
	C236.834045,220.740372 264.611420,220.728546 292.388641,220.769684 
	C298.560791,220.778824 302.037262,224.013412 302.731415,229.984436 
	C303.327881,235.115204 300.250580,239.648071 295.049316,241.300064 
	C286.977844,243.863708 286.914307,243.864365 287.002808,252.448669 
	C287.108948,262.742889 287.337433,273.035858 287.736389,283.678314 
	C291.403992,290.438232 294.692169,296.938995 298.321045,303.243622 
	C310.247162,323.963623 322.319000,344.599701 334.289978,365.293976 
	C340.445312,375.934753 346.420532,386.680389 352.632385,397.287720 
	C358.903107,407.995575 358.140289,418.435822 351.247559,428.942932 
	C350.047821,429.055603 349.532379,429.035553 348.911530,428.887512 
	C348.806152,428.759491 348.593567,428.505066 348.593567,428.505066 
z"/>
<path fill="#8CFEFF" opacity="1.000000" stroke="none" 
	d="
M147.777405,421.915405 
	C149.478897,424.310028 151.180389,426.704620 152.814270,429.646637 
	C152.085205,430.503632 151.423737,430.813202 150.762268,431.122772 
	C149.615250,429.663940 148.468246,428.205139 147.055679,426.231445 
	C146.517929,425.471924 146.245728,425.227203 145.973541,424.982483 
	C145.662506,424.266663 145.351486,423.550842 144.912582,422.324036 
	C144.652084,421.531464 144.466614,421.290497 144.228333,421.090210 
	C141.313370,412.175995 143.378983,404.034119 148.032455,396.271606 
	C151.968597,389.705719 155.858276,383.112000 160.130432,376.092407 
	C160.697525,375.440094 160.853302,375.194611 160.959686,374.917725 
	C172.439011,355.094666 183.877304,335.247681 195.416046,315.459290 
	C200.679001,306.433563 206.140274,297.523529 211.941956,288.105469 
	C212.553894,287.307007 212.735474,286.964081 212.917053,286.621155 
	C213.343185,281.989197 213.769318,277.357269 214.420502,271.966522 
	C214.540466,269.207733 214.435379,267.207764 214.330292,265.207764 
	C214.298218,261.781006 214.266144,258.354248 214.630676,254.468628 
	C215.656265,254.008759 216.285217,254.007721 216.914169,254.006683 
	C216.961411,263.661072 217.080368,273.316132 216.989639,282.969238 
	C216.973358,284.701447 216.433899,286.625275 215.559280,288.124054 
	C196.705734,320.431000 177.765945,352.687622 158.854050,384.960541 
	C155.407761,390.841614 151.855484,396.668274 148.635925,402.672241 
	C145.686813,408.171783 145.290588,414.096283 147.019104,420.723419 
	C147.364212,421.543701 147.551636,421.747223 147.777405,421.915405 
z"/>
<path fill="#94FFFF" opacity="1.000000" stroke="none" 
	d="
M167.009094,436.013184 
	C220.022659,436.038605 273.036224,436.064056 326.518524,436.496002 
	C326.988586,437.598969 326.989960,438.295410 326.991302,438.991852 
	C282.128021,439.039642 237.264755,439.095917 192.401474,439.127472 
	C184.260986,439.133179 176.120422,439.037659 167.504700,438.558289 
	C167.022690,437.422852 167.015884,436.718018 167.009094,436.013184 
z"/>
<path fill="#89FDFF" opacity="1.000000" stroke="none" 
	d="
M150.973099,431.398376 
	C151.423737,430.813202 152.085205,430.503632 152.996674,429.917389 
	C156.288437,431.334198 159.330185,433.027649 162.673309,435.274963 
	C162.956284,436.339264 162.937897,436.849640 162.919495,437.359985 
	C159.007645,435.464661 155.095779,433.569336 150.973099,431.398376 
z"/>
<path fill="#8CFEFF" opacity="1.000000" stroke="none" 
	d="
M332.770935,438.261871 
	C336.084656,436.301971 339.672852,434.581482 343.639221,432.936890 
	C342.119598,438.359802 337.170319,437.606537 332.770935,438.261871 
z"/>
<path fill="#8CFEFF" opacity="1.000000" stroke="none" 
	d="
M327.391418,439.038361 
	C326.989960,438.295410 326.988586,437.598969 326.982147,436.557129 
	C328.414368,436.561096 329.851654,436.910492 331.392365,437.640747 
	C330.261017,438.376038 329.026306,438.730469 327.391418,439.038361 
z"/>
<path fill="#81FEFF" opacity="1.000000" stroke="none" 
	d="
M163.164459,437.559814 
	C162.937897,436.849640 162.956284,436.339264 162.978668,435.448914 
	C164.103851,435.316620 165.225052,435.564301 166.677673,435.912598 
	C167.015884,436.718018 167.022690,437.422852 167.045731,438.477905 
	C165.844452,438.471985 164.626938,438.115814 163.164459,437.559814 
z"/>
<path fill="#89FDFF" opacity="1.000000" stroke="none" 
	d="
M216.959625,253.606781 
	C216.285217,254.007721 215.656265,254.008759 214.718231,254.014847 
	C214.412659,252.865021 214.416168,251.710144 214.584778,250.249756 
	C215.232788,249.958359 215.715668,249.972488 216.559204,249.989960 
	C216.948257,251.064499 216.976654,252.135681 216.959625,253.606781 
z"/>
<path fill="#89FDFF" opacity="1.000000" stroke="none" 
	d="
M214.246597,265.610565 
	C214.435379,267.207764 214.540466,269.207733 214.483414,271.498383 
	C214.268494,269.863800 214.215714,267.938599 214.246597,265.610565 
z"/>
<path fill="#8CFEFF" opacity="1.000000" stroke="none" 
	d="
M344.368347,433.144867 
	C344.489288,432.295959 344.971619,431.572479 345.732788,430.660217 
	C345.584320,431.404358 345.157013,432.337311 344.368347,433.144867 
z"/>
<path fill="#8CFEFF" opacity="1.000000" stroke="none" 
	d="
M347.481445,429.301270 
	C347.654449,428.902222 347.838531,428.812195 348.308075,428.613586 
	C348.593567,428.505066 348.806152,428.759491 348.974915,429.283783 
	C349.198547,430.070129 349.253418,430.332153 349.308258,430.594177 
	C348.703033,430.266205 348.097778,429.938232 347.481445,429.301270 
z"/>
<path fill="#81FEFF" opacity="1.000000" stroke="none" 
	d="
M349.590698,430.547394 
	C349.253418,430.332153 349.198547,430.070129 349.080322,429.411804 
	C349.532379,429.035553 350.047821,429.055603 350.952606,429.113312 
	C351.285126,429.367645 351.228302,429.584320 351.092712,430.129700 
	C350.633667,430.472412 350.253387,430.486511 349.590698,430.547394 
z"/>
<path fill="#89FDFF" opacity="1.000000" stroke="none" 
	d="
M212.704483,286.822693 
	C212.735474,286.964081 212.553894,287.307007 212.156921,287.847534 
	C212.125000,287.704803 212.308456,287.364532 212.704483,286.822693 
z"/>
<path fill="#89FDFF" opacity="1.000000" stroke="none" 
	d="
M146.096283,425.239166 
	C146.245728,425.227203 146.517929,425.471924 146.959274,425.938232 
	C146.825302,425.938538 146.522171,425.717194 146.096283,425.239166 
z"/>
<path fill="#89FDFF" opacity="1.000000" stroke="none" 
	d="
M144.291779,421.311768 
	C144.466614,421.290497 144.652084,421.531464 144.859070,422.035278 
	C144.689728,422.056793 144.496979,421.815399 144.291779,421.311768 
z"/>
<path fill="#89FDFF" opacity="1.000000" stroke="none" 
	d="
M160.778915,375.048065 
	C160.853302,375.194611 160.697525,375.440094 160.328140,375.795715 
	C160.223160,375.635345 160.367905,375.382416 160.778915,375.048065 
z"/>
<path fill="#8CFDFF" opacity="1.000000" stroke="none" 
	d="
M289.751404,147.820007 
	C300.236786,151.703384 305.878876,159.163208 306.705688,169.662476 
	C307.375092,178.162888 304.675446,185.827515 297.330719,191.048706 
	C295.792969,192.141830 293.786469,192.575546 291.995972,193.313110 
	C291.245667,192.365402 290.495331,191.417679 289.745026,190.469971 
	C291.164795,189.962616 292.704071,189.660721 293.985352,188.915344 
	C304.029205,183.072266 305.089752,170.584641 301.860748,163.071899 
	C297.866486,153.778687 287.675446,148.389862 277.184570,150.367508 
	C273.379608,151.084793 271.875580,150.181335 270.723724,146.515457 
	C266.947754,134.498108 259.803894,128.987946 248.828568,129.028488 
	C237.921692,129.068771 230.830185,134.604187 227.138382,146.697464 
	C225.989349,150.461334 223.583923,149.961334 220.964706,149.963898 
	C210.795410,149.973831 204.212967,154.020050 200.740280,162.395096 
	C194.986603,176.271133 204.194962,190.989212 219.170883,191.829208 
	C220.498566,191.903671 221.844589,191.938797 223.164505,191.810715 
	C227.487808,191.391144 229.232895,193.248093 228.986557,197.603287 
	C228.737289,202.010437 228.931564,206.442657 228.931564,210.863907 
	C228.341721,210.897598 227.751877,210.931305 227.162048,210.965012 
	C226.975693,208.079102 226.869888,205.185257 226.587036,202.308838 
	C225.896957,195.291473 225.863953,195.294739 218.913269,195.106522 
	C207.322342,194.792648 196.792145,184.943527 195.847275,173.532394 
	C194.735184,160.101761 202.628876,148.766312 215.233917,146.927521 
	C220.978622,146.089493 224.212296,144.207077 226.992172,138.646927 
	C231.626038,129.378540 240.297729,124.290344 250.793457,125.279335 
	C261.443634,126.282875 269.578033,131.999557 272.907806,142.738876 
	C273.899719,145.937912 275.294250,146.916672 278.503235,146.837402 
	C282.117645,146.748123 285.749329,147.358093 289.751404,147.820007 
z"/>
<path fill="#78FCFF" opacity="1.000000" stroke="none" 
	d="
M244.656693,62.902023 
	C244.867813,63.216465 244.904037,63.764351 244.930374,64.722565 
	C244.774277,64.467079 244.628036,63.801273 244.656693,62.902023 
z"/>
<path fill="#84FCFF" opacity="1.000000" stroke="none" 
	d="
M271.809265,200.183472 
	C272.204224,197.670731 272.446625,195.563309 273.108215,193.596924 
	C273.292816,193.048187 274.740875,192.630737 275.560577,192.703369 
	C276.027344,192.744736 276.826385,193.962128 276.741150,194.541916 
	C275.924255,200.096375 274.950531,205.627762 274.021759,211.165771 
	C273.530853,211.188400 273.039948,211.211029 272.549072,211.233673 
	C272.304443,207.703156 272.059845,204.172653 271.809265,200.183472 
z"/>
<path fill="#8CFDFF" opacity="1.000000" stroke="none" 
	d="
M297.785553,70.560608 
	C296.914642,72.523956 296.024200,74.255600 294.744629,75.623093 
	C294.556732,75.823914 291.786316,74.493530 291.522034,73.516823 
	C291.180267,72.253716 291.879669,69.584969 292.623505,69.388695 
	C294.119324,68.994003 295.948669,69.863510 297.785553,70.560608 
z"/>
<path fill="#78FCFF" opacity="1.000000" stroke="none" 
	d="
M196.122925,62.865868 
	C197.215134,62.616165 199.035599,62.337326 199.360825,62.909050 
	C200.544144,64.989288 201.227325,67.354027 202.099091,69.611496 
	C201.689148,69.885902 201.279205,70.160309 200.869263,70.434708 
	C199.301193,68.032150 197.733124,65.629593 196.122925,62.865868 
z"/>
<path fill="#8CFDFF" opacity="1.000000" stroke="none" 
	d="
M153.290649,245.853455 
	C152.421722,243.940292 151.655182,242.122101 151.688126,240.318527 
	C151.695847,239.895584 154.554916,238.967743 155.828232,239.305359 
	C156.805176,239.564392 158.221710,242.115295 157.934219,242.490189 
	C156.852264,243.901230 155.152893,244.838837 153.290649,245.853455 
z"/>
<path fill="#88FDFF" opacity="1.000000" stroke="none" 
	d="
M334.565186,254.643951 
	C334.471313,251.555984 335.718933,249.561417 338.569031,250.318939 
	C339.675201,250.612946 340.979126,252.979721 340.902710,254.329239 
	C340.735352,257.285461 338.003510,257.510254 334.565186,254.643951 
z"/>
<path fill="#000101" opacity="1.000000" stroke="none" 
	d="
M167.941513,433.181793 
	C152.197617,432.214813 145.621017,416.006714 151.911926,403.893768 
	C157.258789,393.598480 163.369705,383.697235 169.219467,373.666504 
	C180.633270,354.095032 192.083054,334.544434 203.555878,315.007507 
	C207.492249,308.304260 211.237091,301.458160 215.630310,295.062561 
	C219.576630,289.317566 221.171783,283.298126 220.983292,276.408020 
	C220.705399,266.251160 220.935562,256.080688 220.927490,245.916000 
	C220.920868,237.576370 218.895996,235.471405 210.473602,235.250534 
	C207.947769,235.184311 205.769043,235.110153 205.700546,231.723083 
	C205.630737,228.272202 207.526810,227.682388 210.482422,227.689178 
	C229.481506,227.732895 248.480850,227.651367 267.480133,227.622360 
	C276.490662,227.608597 285.501221,227.619995 294.379333,227.619995 
	C296.060547,234.197662 295.433502,235.064453 289.340393,235.262573 
	C282.706024,235.478302 280.232391,237.687851 280.243042,244.250732 
	C280.264984,257.738373 280.080475,271.258118 281.003387,284.694397 
	C281.305573,289.094055 284.473511,293.448730 286.837830,297.530365 
	C302.932312,325.315094 319.181641,353.010071 335.334900,380.760834 
	C339.416626,387.773102 343.159424,394.986725 347.361206,401.924103 
	C354.282959,413.352325 349.886719,429.686462 331.929321,432.983673 
	C299.006439,433.019470 266.902435,432.993622 234.798477,433.019104 
	C212.512787,433.036774 190.227173,433.125061 167.941513,433.181793 
M264.684357,369.195221 
	C256.646912,376.616486 255.602783,386.177704 258.096527,395.814148 
	C261.434021,408.711121 275.231110,416.531342 288.429260,414.390656 
	C300.846680,412.376617 311.077332,400.098175 309.731628,386.786835 
	C308.590271,375.496857 302.771454,367.503662 292.378998,363.413696 
	C282.459930,359.510071 273.164307,361.298370 264.684357,369.195221 
M217.345322,334.783020 
	C208.997482,339.622589 203.796265,349.142914 205.402115,357.533783 
	C207.175018,366.797607 212.736969,373.083710 221.846573,375.671265 
	C230.810806,378.217529 240.730484,374.488007 246.030304,367.093140 
	C251.319138,359.713593 250.787170,347.347778 244.865906,340.025848 
	C238.403046,332.034210 228.849518,330.043427 217.345322,334.783020 
M274.705078,316.075500 
	C274.699890,314.756378 274.812592,313.424347 274.670105,312.120209 
	C273.847473,304.591400 266.252808,298.927826 258.343903,299.705811 
	C251.198776,300.408630 244.502686,307.836151 245.419281,315.159210 
	C246.318924,322.346954 252.094086,328.709106 258.639954,329.237122 
	C266.624939,329.881226 272.287842,325.498291 274.705078,316.075500 
M254.221909,278.866791 
	C257.447784,275.673004 256.151611,272.640472 253.854568,269.684723 
	C251.806534,267.049438 249.262207,265.954468 246.044373,267.492706 
	C242.633102,269.123413 241.357285,272.020599 241.661926,275.607605 
	C242.121704,281.021576 248.446793,282.973389 254.221909,278.866791 
z"/>
<path fill="#15A5B5" opacity="1.000000" stroke="none" 
	d="
M168.301544,433.390137 
	C190.227173,433.125061 212.512787,433.036774 234.798477,433.019104 
	C266.902435,432.993622 299.006439,433.019470 331.577393,433.098907 
	C330.431458,433.428802 328.818787,433.904114 327.205719,433.905518 
	C275.841766,433.950714 224.477798,433.953003 173.113831,433.941193 
	C171.629715,433.940857 170.145660,433.717712 168.301544,433.390137 
z"/>
<path fill="#89FDFF" opacity="1.000000" stroke="none" 
	d="
M147.702606,421.718201 
	C147.551636,421.747223 147.364212,421.543701 147.121246,421.116272 
	C147.272034,421.080383 147.472198,421.278137 147.702606,421.718201 
z"/>
<path fill="#31CFE0" opacity="1.000000" stroke="none" 
	d="
M264.943939,368.949463 
	C273.164307,361.298370 282.459930,359.510071 292.378998,363.413696 
	C302.771454,367.503662 308.590271,375.496857 309.731628,386.786835 
	C311.077332,400.098175 300.846680,412.376617 288.429260,414.390656 
	C275.231110,416.531342 261.434021,408.711121 258.096527,395.814148 
	C255.602783,386.177704 256.646912,376.616486 264.943939,368.949463 
M297.118622,406.739441 
	C303.972992,402.100311 306.447449,395.475677 306.201141,387.426025 
	C305.888397,377.202911 299.940063,369.335297 289.447235,365.705048 
	C281.517090,362.961426 270.744690,366.420380 265.298004,373.459351 
	C259.515228,380.932587 258.937592,392.979736 263.994415,400.647736 
	C271.174438,411.535309 284.019318,414.113983 297.118622,406.739441 
z"/>
<path fill="#31CFE0" opacity="1.000000" stroke="none" 
	d="
M217.677277,334.606201 
	C228.849518,330.043427 238.403046,332.034210 244.865906,340.025848 
	C250.787170,347.347778 251.319138,359.713593 246.030304,367.093140 
	C240.730484,374.488007 230.810806,378.217529 221.846573,375.671265 
	C212.736969,373.083710 207.175018,366.797607 205.402115,357.533783 
	C203.796265,349.142914 208.997482,339.622589 217.677277,334.606201 
M224.515945,335.846252 
	C216.412033,337.143250 211.148346,341.875366 209.355392,349.727081 
	C207.747910,356.766724 209.262772,363.451538 215.051163,368.304413 
	C221.181580,373.444122 228.080399,374.401550 235.547501,371.076111 
	C244.254532,367.198486 248.365280,358.128632 245.494476,348.681091 
	C242.673737,339.398315 234.529892,334.176819 224.515945,335.846252 
z"/>
<path fill="#31CFE0" opacity="1.000000" stroke="none" 
	d="
M274.644196,316.486481 
	C272.287842,325.498291 266.624939,329.881226 258.639954,329.237122 
	C252.094086,328.709106 246.318924,322.346954 245.419281,315.159210 
	C244.502686,307.836151 251.198776,300.408630 258.343903,299.705811 
	C266.252808,298.927826 273.847473,304.591400 274.670105,312.120209 
	C274.812592,313.424347 274.699890,314.756378 274.644196,316.486481 
M251.031570,307.730804 
	C250.479065,308.940430 249.713211,310.099426 249.411865,311.368683 
	C248.244034,316.287262 250.149139,320.259216 253.823273,323.333191 
	C256.946838,325.946594 260.542358,326.930878 264.484009,324.921082 
	C268.874939,322.682220 271.283783,319.222260 271.269287,314.195404 
	C271.254425,309.039398 268.471985,305.826355 263.991943,303.852631 
	C258.990143,301.648987 254.945099,303.343719 251.031570,307.730804 
z"/>
<path fill="#30CEDE" opacity="1.000000" stroke="none" 
	d="
M253.989182,279.134888 
	C248.446793,282.973389 242.121704,281.021576 241.661926,275.607605 
	C241.357285,272.020599 242.633102,269.123413 246.044373,267.492706 
	C249.262207,265.954468 251.806534,267.049438 253.854568,269.684723 
	C256.151611,272.640472 257.447784,275.673004 253.989182,279.134888 
M252.255112,273.188782 
	C250.589798,272.424744 248.960800,271.281921 247.238068,271.116730 
	C246.688110,271.064026 245.150818,273.770172 245.407257,274.912750 
	C245.677261,276.115692 248.111313,278.025421 248.622696,277.757996 
	C250.156235,276.955933 251.212845,275.242035 252.255112,273.188782 
z"/>
<path fill="#88FDFF" opacity="1.000000" stroke="none" 
	d="
M296.820251,406.958618 
	C284.019318,414.113983 271.174438,411.535309 263.994415,400.647736 
	C258.937592,392.979736 259.515228,380.932587 265.298004,373.459351 
	C270.744690,366.420380 281.517090,362.961426 289.447235,365.705048 
	C299.940063,369.335297 305.888397,377.202911 306.201141,387.426025 
	C306.447449,395.475677 303.972992,402.100311 296.820251,406.958618 
M279.381561,368.763000 
	C268.114990,371.452728 261.660614,381.784821 264.234131,393.010773 
	C266.386841,402.401215 277.685913,409.754181 286.795715,407.692932 
	C298.080231,405.139618 304.771149,395.117584 302.765320,383.772858 
	C301.084717,374.267548 290.902466,367.413391 279.381561,368.763000 
z"/>
<path fill="#89FDFF" opacity="1.000000" stroke="none" 
	d="
M224.919250,335.796967 
	C234.529892,334.176819 242.673737,339.398315 245.494476,348.681091 
	C248.365280,358.128632 244.254532,367.198486 235.547501,371.076111 
	C228.080399,374.401550 221.181580,373.444122 215.051163,368.304413 
	C209.262772,363.451538 207.747910,356.766724 209.355392,349.727081 
	C211.148346,341.875366 216.412033,337.143250 224.919250,335.796967 
M212.768250,358.474213 
	C216.124313,366.878479 222.080704,370.580261 230.033646,369.204376 
	C237.391220,367.931488 242.838181,361.970062 243.015076,354.996826 
	C243.246124,345.888794 235.952911,338.340607 227.248276,338.678864 
	C217.451767,339.059540 211.130753,347.236389 212.768250,358.474213 
z"/>
<path fill="#8CFDFF" opacity="1.000000" stroke="none" 
	d="
M251.244156,307.412567 
	C254.945099,303.343719 258.990143,301.648987 263.991943,303.852631 
	C268.471985,305.826355 271.254425,309.039398 271.269287,314.195404 
	C271.283783,319.222260 268.874939,322.682220 264.484009,324.921082 
	C260.542358,326.930878 256.946838,325.946594 253.823273,323.333191 
	C250.149139,320.259216 248.244034,316.287262 249.411865,311.368683 
	C249.713211,310.099426 250.479065,308.940430 251.244156,307.412567 
M257.553314,307.058167 
	C255.795700,309.436279 252.938492,311.679230 252.624359,314.234772 
	C252.367615,316.323364 254.653839,319.820282 256.712708,320.798462 
	C258.898193,321.836853 262.622498,321.475098 264.811981,320.219818 
	C267.817841,318.496582 268.849487,314.997406 267.185974,311.474670 
	C265.417236,307.729248 262.439941,306.094269 257.553314,307.058167 
z"/>
<path fill="#89FDFF" opacity="1.000000" stroke="none" 
	d="
M252.355347,273.536377 
	C251.212845,275.242035 250.156235,276.955933 248.622696,277.757996 
	C248.111313,278.025421 245.677261,276.115692 245.407257,274.912750 
	C245.150818,273.770172 246.688110,271.064026 247.238068,271.116730 
	C248.960800,271.281921 250.589798,272.424744 252.355347,273.536377 
z"/>
<path fill="#33D2E3" opacity="1.000000" stroke="none" 
	d="
M279.777588,368.664124 
	C290.902466,367.413391 301.084717,374.267548 302.765320,383.772858 
	C304.771149,395.117584 298.080231,405.139618 286.795715,407.692932 
	C277.685913,409.754181 266.386841,402.401215 264.234131,393.010773 
	C261.660614,381.784821 268.114990,371.452728 279.777588,368.664124 
M297.178314,379.597931 
	C295.575531,377.942780 294.192413,375.966003 292.328491,374.693268 
	C286.918121,370.998901 281.026672,370.907532 275.439209,374.038635 
	C269.676819,377.267761 266.790131,382.749451 266.854675,389.220642 
	C266.920349,395.803741 272.211792,401.985718 278.423981,403.932892 
	C284.030121,405.690125 292.264557,403.554413 295.727356,399.050995 
	C299.876251,393.655334 302.073090,387.779297 297.178314,379.597931 
z"/>
<path fill="#33D2E3" opacity="1.000000" stroke="none" 
	d="
M212.649261,358.096069 
	C211.130753,347.236389 217.451767,339.059540 227.248276,338.678864 
	C235.952911,338.340607 243.246124,345.888794 243.015076,354.996826 
	C242.838181,361.970062 237.391220,367.931488 230.033646,369.204376 
	C222.080704,370.580261 216.124313,366.878479 212.649261,358.096069 
M228.365662,342.249512 
	C226.894958,342.506317 225.349152,342.556152 223.967163,343.057495 
	C219.182938,344.793030 216.134613,348.241974 215.684906,353.313293 
	C215.219650,358.560120 217.701401,362.507690 222.254837,365.208344 
	C226.336212,367.629089 230.312973,366.875580 234.014450,364.654755 
	C238.383163,362.033600 240.531937,357.706818 239.690826,352.836304 
	C238.717758,347.201782 235.086411,343.386414 228.365662,342.249512 
z"/>
<path fill="#2CCEE1" opacity="1.000000" stroke="none" 
	d="
M257.910614,307.004761 
	C262.439941,306.094269 265.417236,307.729248 267.185974,311.474670 
	C268.849487,314.997406 267.817841,318.496582 264.811981,320.219818 
	C262.622498,321.475098 258.898193,321.836853 256.712708,320.798462 
	C254.653839,319.820282 252.367615,316.323364 252.624359,314.234772 
	C252.938492,311.679230 255.795700,309.436279 257.910614,307.004761 
M258.685089,310.878845 
	C258.124268,313.058929 257.271576,315.232300 257.221497,317.424072 
	C257.209930,317.929962 260.711395,319.362427 261.268219,318.869202 
	C262.684753,317.614471 264.161987,315.448395 264.031708,313.770020 
	C263.944153,312.641968 261.155823,311.723633 258.685089,310.878845 
z"/>
<path fill="#000304" opacity="1.000000" stroke="none" 
	d="
M297.332581,379.947876 
	C302.073090,387.779297 299.876251,393.655334 295.727356,399.050995 
	C292.264557,403.554413 284.030121,405.690125 278.423981,403.932892 
	C272.211792,401.985718 266.920349,395.803741 266.854675,389.220642 
	C266.790131,382.749451 269.676819,377.267761 275.439209,374.038635 
	C281.026672,370.907532 286.918121,370.998901 292.328491,374.693268 
	C294.192413,375.966003 295.575531,377.942780 297.332581,379.947876 
z"/>
<path fill="#000506" opacity="1.000000" stroke="none" 
	d="
M228.747589,342.292175 
	C235.086411,343.386414 238.717758,347.201782 239.690826,352.836304 
	C240.531937,357.706818 238.383163,362.033600 234.014450,364.654755 
	C230.312973,366.875580 226.336212,367.629089 222.254837,365.208344 
	C217.701401,362.507690 215.219650,358.560120 215.684906,353.313293 
	C216.134613,348.241974 219.182938,344.793030 223.967163,343.057495 
	C225.349152,342.556152 226.894958,342.506317 228.747589,342.292175 
z"/>
<path fill="#000000" opacity="1.000000" stroke="none" 
	d="
M259.130463,310.795166 
	C261.155823,311.723633 263.944153,312.641968 264.031708,313.770020 
	C264.161987,315.448395 262.684753,317.614471 261.268219,318.869202 
	C260.711395,319.362427 257.209930,317.929962 257.221497,317.424072 
	C257.271576,315.232300 258.124268,313.058929 259.130463,310.795166 
z"/>
</svg>