<svg version="1.1" id="Layer_1" xmlns="http://www.w3.org/2000/svg" xmlns:xlink="http://www.w3.org/1999/xlink" x="0px" y="0px"
	 width="100%" viewBox="0 0 500 500" enable-background="new 0 0 500 500" xml:space="preserve">
<path fill="#000000" opacity="1.000000" stroke="none" 
	d="
M336.000000,501.000000 
	C224.000031,501.000000 112.500053,501.000000 1.000060,501.000000 
	C1.000040,334.333405 1.000040,167.666794 1.000020,1.000149 
	C167.666565,1.000100 334.333130,1.000100 500.999756,1.000050 
	C500.999847,167.666519 500.999847,334.333038 500.999939,500.999786 
	C446.166656,501.000000 391.333344,501.000000 336.000000,501.000000 
M151.615982,405.785706 
	C152.119400,405.745880 152.622803,405.706055 153.843536,405.739288 
	C154.564117,405.747986 155.284698,405.756683 156.495377,405.832855 
	C156.495377,405.832855 156.988510,405.793060 157.664536,405.819946 
	C158.115509,405.815338 158.566467,405.810730 159.669876,405.900574 
	C160.107239,405.871033 160.544586,405.841492 161.919952,405.862732 
	C178.621048,405.812897 195.322128,405.763062 212.754639,405.846924 
	C213.493515,405.804565 214.232407,405.762207 215.910233,405.770996 
	C223.945190,405.748077 231.980133,405.725159 240.667130,405.811523 
	C241.104889,405.776672 241.542648,405.741852 242.918060,405.761932 
	C267.164612,405.798065 291.411224,405.871246 315.657745,405.853424 
	C326.447662,405.845520 337.237457,405.654297 348.387909,405.461273 
	C348.618896,405.351715 348.804810,405.190247 349.771027,404.955902 
	C362.087982,403.363678 370.650635,397.071930 376.232513,385.740143 
	C381.907654,374.218994 379.229828,363.785797 373.934631,353.422150 
	C362.763947,331.559082 351.473328,309.756409 340.094788,288.000671 
	C326.410278,261.835938 312.514099,235.781723 298.888092,209.586792 
	C296.697449,205.375427 294.249359,200.753281 293.968475,196.194839 
	C293.110565,182.271759 293.591736,168.269333 292.862274,154.333878 
	C292.494904,147.315338 295.194824,142.942505 301.076202,139.908676 
	C302.098694,139.381241 303.023102,138.663651 304.526642,137.590454 
	C309.310913,130.834244 310.916962,123.583153 306.234161,116.322548 
	C302.287231,110.202881 296.134216,108.112274 288.019562,109.386383 
	C284.705170,109.391953 281.390808,109.397522 277.148651,109.200485 
	C271.743073,109.261314 266.337494,109.322144 260.218842,109.386108 
	C259.505829,109.387627 258.792786,109.389145 257.147949,109.196198 
	C241.214905,109.160049 225.260696,108.620323 209.357315,109.289330 
	C200.743958,109.651665 196.640991,112.448494 193.811493,120.722191 
	C191.413925,127.732880 193.171646,134.039948 199.397491,139.554550 
	C207.174347,142.695633 208.485458,148.843674 208.214325,156.494446 
	C207.767242,169.110184 208.203354,181.755341 208.098022,194.386688 
	C208.077835,196.808395 207.812622,199.492081 206.754257,201.599884 
	C197.083282,220.860321 187.195969,240.012024 177.405106,259.212433 
	C172.001816,269.808594 166.662170,280.437256 160.857391,291.604279 
	C159.748184,293.446045 158.535645,295.234070 157.545868,297.137939 
	C148.370941,314.785828 139.324402,332.501038 130.055923,350.099487 
	C123.569038,362.416412 119.005325,374.744415 127.444870,388.417877 
	C127.590919,388.628937 127.779648,388.789978 128.136536,389.402283 
	C128.170639,389.571106 128.204727,389.739929 128.417877,390.542999 
	C133.376755,396.731110 138.486008,402.708435 147.603775,404.101837 
	C148.689468,404.635651 149.775162,405.169434 151.615982,405.785706 
z"/>
<path fill="#096225" opacity="1.000000" stroke="none" 
	d="
M348.027313,405.546265 
	C337.237457,405.654297 326.447662,405.845520 315.657745,405.853424 
	C291.411224,405.871246 267.164612,405.798065 242.266571,405.628571 
	C241.081757,405.564209 240.548416,405.633209 240.015091,405.702240 
	C231.980133,405.725159 223.945190,405.748077 215.213287,405.614075 
	C213.685287,405.542511 212.854263,405.627869 212.023224,405.713196 
	C195.322128,405.763062 178.621048,405.812897 161.269592,405.723022 
	C160.085281,405.657593 159.551361,405.731842 159.017441,405.806091 
	C158.566467,405.810730 158.115509,405.815338 157.213135,405.738464 
	C156.493576,405.571472 156.241425,405.607635 156.005280,405.765381 
	C155.284698,405.756683 154.564117,405.747986 153.461700,405.386414 
	C153.042892,404.393036 153.005890,403.752563 153.371628,403.040833 
	C164.197952,402.614349 174.621536,402.259064 185.496719,401.970154 
	C189.614594,401.981201 193.280884,401.925934 197.410858,401.965179 
	C220.266861,402.000366 242.659180,401.940979 265.510559,401.952423 
	C275.628113,401.974457 285.286591,401.925659 295.388672,401.971619 
	C298.239136,402.009979 300.645966,401.953552 303.486938,401.973694 
	C306.263489,401.999908 308.605927,401.949493 311.411560,401.996277 
	C320.372406,402.045593 328.870056,401.997772 337.689484,402.037476 
	C338.890442,402.039276 339.769623,401.953522 341.081482,401.967773 
	C341.805817,402.017578 342.097565,401.967346 342.482758,402.019318 
	C342.576202,402.121552 342.829071,402.011444 343.223206,402.111206 
	C346.428436,401.826416 349.239563,401.441895 352.399170,401.056946 
	C353.822571,400.667297 354.897522,400.278076 356.329468,399.880188 
	C370.738556,394.304108 382.450073,375.726013 371.209503,355.290863 
	C355.194214,326.175415 340.255707,296.467957 324.825104,267.030212 
	C322.687714,262.952637 320.366974,258.971161 317.978149,254.632263 
	C314.617889,248.186859 311.410583,242.054382 308.135986,235.567688 
	C306.396423,232.130096 304.724121,229.046707 303.045685,225.671890 
	C302.764893,224.896591 302.490204,224.412704 302.148407,223.574066 
	C299.135345,217.773926 296.189392,212.328522 293.106934,206.545166 
	C291.964233,202.771713 290.958038,199.336243 290.084656,195.524628 
	C290.294586,179.041290 290.403076,162.934128 290.426147,146.826859 
	C290.431702,142.965317 290.573090,139.768524 295.686798,138.986267 
	C298.262695,138.592239 300.555725,136.349442 303.011230,135.274200 
	C303.361481,136.415131 303.677155,137.224503 303.992798,138.033890 
	C303.023102,138.663651 302.098694,139.381241 301.076202,139.908676 
	C295.194824,142.942505 292.494904,147.315338 292.862274,154.333878 
	C293.591736,168.269333 293.110565,182.271759 293.968475,196.194839 
	C294.249359,200.753281 296.697449,205.375427 298.888092,209.586792 
	C312.514099,235.781723 326.410278,261.835938 340.094788,288.000671 
	C351.473328,309.756409 362.763947,331.559082 373.934631,353.422150 
	C379.229828,363.785797 381.907654,374.218994 376.232513,385.740143 
	C370.650635,397.071930 362.087982,403.363678 349.190826,405.038849 
	C348.394989,405.234161 348.200562,405.375671 348.027313,405.546265 
z"/>
<path fill="#085F22" opacity="1.000000" stroke="none" 
	d="
M161.293839,291.051239 
	C166.662170,280.437256 172.001816,269.808594 177.405106,259.212433 
	C187.195969,240.012024 197.083282,220.860321 206.754257,201.599884 
	C207.812622,199.492081 208.077835,196.808395 208.098022,194.386688 
	C208.203354,181.755341 207.767242,169.110184 208.214325,156.494446 
	C208.485458,148.843674 207.174347,142.695633 199.211670,138.862976 
	C199.067734,137.334717 199.109634,136.498032 199.488739,135.786438 
	C202.036957,137.026123 204.142059,138.667282 206.482529,139.137833 
	C210.475098,139.940536 211.262070,142.078918 211.266785,145.803329 
	C211.286972,161.777176 211.787445,177.751450 211.710327,193.723633 
	C211.691772,197.568405 210.878220,201.781738 209.161575,205.185822 
	C197.508469,228.294022 185.582642,251.265976 173.587112,274.199402 
	C170.395264,280.301697 166.652832,286.115967 162.922943,291.946655 
	C162.219742,291.570953 161.756790,291.311096 161.293839,291.051239 
z"/>
<path fill="#06541D" opacity="1.000000" stroke="none" 
	d="
M161.075623,291.327759 
	C161.756790,291.311096 162.219742,291.570953 162.859619,292.313110 
	C160.045593,299.211151 157.239594,305.721191 154.027359,312.024200 
	C145.909485,327.953033 137.588928,343.778442 129.388809,359.665558 
	C124.176865,369.763306 125.837349,379.461639 130.959167,389.029419 
	C129.855545,389.408081 129.047195,389.658417 128.238831,389.908722 
	C128.204727,389.739929 128.170639,389.571106 127.966980,389.002747 
	C127.647087,388.410614 127.478996,388.235016 127.293137,388.076416 
	C119.005325,374.744415 123.569038,362.416412 130.055923,350.099487 
	C139.324402,332.501038 148.370941,314.785828 157.545868,297.137939 
	C158.535645,295.234070 159.748184,293.446045 161.075623,291.327759 
z"/>
<path fill="#167534" opacity="1.000000" stroke="none" 
	d="
M278.076416,109.403099 
	C281.390808,109.397522 284.705170,109.391953 288.737732,109.541306 
	C290.657867,110.634979 291.859802,111.573730 292.594116,112.589851 
	C264.387512,112.671509 236.648514,112.675789 209.001129,112.321075 
	C210.837372,111.350639 212.573502,110.239624 214.327942,110.209953 
	C224.625244,110.035797 234.927505,110.181580 245.226593,110.074944 
	C249.512894,110.030579 253.795486,109.629532 258.079773,109.390671 
	C258.792786,109.389145 259.505829,109.387627 260.951385,109.548149 
	C267.148102,109.607826 272.612244,109.505463 278.076416,109.403099 
z"/>
<path fill="#034814" opacity="1.000000" stroke="none" 
	d="
M257.613861,109.293434 
	C253.795486,109.629532 249.512894,110.030579 245.226593,110.074944 
	C234.927505,110.181580 224.625244,110.035797 214.327942,110.209953 
	C212.573502,110.239624 210.837372,111.350639 208.695770,112.395264 
	C207.879715,112.835129 207.460663,112.841835 206.911682,112.761795 
	C206.437561,112.607193 206.171112,112.717018 205.638489,113.119057 
	C195.440689,114.631935 193.478180,128.970474 199.151520,135.661346 
	C199.109634,136.498032 199.067734,137.334717 199.011932,138.590240 
	C193.171646,134.039948 191.413925,127.732880 193.811493,120.722191 
	C196.640991,112.448494 200.743958,109.651665 209.357315,109.289330 
	C225.260696,108.620323 241.214905,109.160049 257.613861,109.293434 
z"/>
<path fill="#034814" opacity="1.000000" stroke="none" 
	d="
M293.061737,112.512482 
	C291.859802,111.573730 290.657867,110.634979 289.189087,109.552811 
	C296.134216,108.112274 302.287231,110.202881 306.234161,116.322548 
	C310.916962,123.583153 309.310913,130.834244 304.259705,137.812164 
	C303.677155,137.224503 303.361481,136.415131 303.074341,134.962097 
	C303.465637,133.552490 303.828400,132.786514 304.354614,131.809875 
	C304.634216,131.265869 304.750397,130.932510 304.886475,130.167908 
	C305.892456,119.496727 304.389465,116.645065 295.932983,112.807388 
	C295.505066,112.550346 295.212738,112.585205 294.625122,112.802200 
	C293.890228,112.707726 293.475983,112.610100 293.061737,112.512482 
z"/>
<path fill="#034814" opacity="1.000000" stroke="none" 
	d="
M128.328354,390.225861 
	C129.047195,389.658417 129.855545,389.408081 131.234772,389.221222 
	C136.866302,393.164734 141.926956,397.044769 146.995911,401.289612 
	C147.020645,402.382385 147.037079,403.110443 147.053528,403.838470 
	C138.486008,402.708435 133.376755,396.731110 128.328354,390.225861 
z"/>
<path fill="#034814" opacity="1.000000" stroke="none" 
	d="
M277.612549,109.301788 
	C272.612244,109.505463 267.148102,109.607826 261.307922,109.546585 
	C266.337494,109.322144 271.743073,109.261314 277.612549,109.301788 
z"/>
<path fill="#096225" opacity="1.000000" stroke="none" 
	d="
M147.328644,403.970154 
	C147.037079,403.110443 147.020645,402.382385 147.344055,401.295532 
	C148.794724,401.636993 149.905548,402.337311 151.003510,403.372314 
	C150.947388,404.372406 150.904129,405.037811 150.860870,405.703217 
	C149.775162,405.169434 148.689468,404.635651 147.328644,403.970154 
z"/>
<path fill="#034814" opacity="1.000000" stroke="none" 
	d="
M151.238434,405.744446 
	C150.904129,405.037811 150.947388,404.372406 151.330093,403.330383 
	C152.102661,403.006500 152.535782,403.059296 152.968903,403.112061 
	C153.005890,403.752563 153.042892,404.393036 153.103058,405.349884 
	C152.622803,405.706055 152.119400,405.745880 151.238434,405.744446 
z"/>
<path fill="#034814" opacity="1.000000" stroke="none" 
	d="
M212.388931,405.780090 
	C212.854263,405.627869 213.685287,405.542511 214.743805,405.588501 
	C214.232407,405.762207 213.493515,405.804565 212.388931,405.780090 
z"/>
<path fill="#034814" opacity="1.000000" stroke="none" 
	d="
M159.343658,405.853333 
	C159.551361,405.731842 160.085281,405.657593 160.800583,405.697632 
	C160.544586,405.841492 160.107239,405.871033 159.343658,405.853333 
z"/>
<path fill="#034814" opacity="1.000000" stroke="none" 
	d="
M240.341110,405.756897 
	C240.548416,405.633209 241.081757,405.564209 241.797745,405.601135 
	C241.542648,405.741852 241.104889,405.776672 240.341110,405.756897 
z"/>
<path fill="#034814" opacity="1.000000" stroke="none" 
	d="
M156.250336,405.799133 
	C156.241425,405.607635 156.493576,405.571472 156.875122,405.725037 
	C156.988510,405.793060 156.495377,405.832855 156.250336,405.799133 
z"/>
<path fill="#034814" opacity="1.000000" stroke="none" 
	d="
M348.207611,405.503784 
	C348.200562,405.375671 348.394989,405.234161 348.778137,405.049316 
	C348.804810,405.190247 348.618896,405.351715 348.207611,405.503784 
z"/>
<path fill="#034814" opacity="1.000000" stroke="none" 
	d="
M127.369003,388.247131 
	C127.478996,388.235016 127.647087,388.410614 127.904236,388.752136 
	C127.779648,388.789978 127.590919,388.628937 127.369003,388.247131 
z"/>
<path fill="#ADFED5" opacity="1.000000" stroke="none" 
	d="
M342.389313,401.917084 
	C342.097565,401.967346 341.805817,402.017578 341.088928,401.607178 
	C339.443756,400.750275 338.223755,400.354034 336.594879,399.875275 
	C327.808746,399.551086 319.431458,399.309418 310.601959,399.043213 
	C307.745758,399.041229 305.341797,399.063782 302.501465,399.074799 
	C299.729858,399.069794 297.394592,399.076324 294.587402,399.060944 
	C284.394318,399.046143 274.673126,399.053253 264.486328,399.057404 
	C241.697983,399.058258 219.375259,399.062012 196.586761,399.041626 
	C192.397339,399.032501 188.673706,399.047546 184.484558,399.058502 
	C175.021957,399.062683 166.013351,398.795380 157.031601,399.170959 
	C150.451965,399.446106 144.783264,397.665222 140.107025,393.268921 
	C133.448669,387.009125 126.343140,374.715424 131.944519,363.576935 
	C137.251724,353.023407 142.600708,342.490784 147.963562,331.965393 
	C156.251495,315.699097 164.481216,299.402191 172.904419,283.206055 
	C177.576294,274.222992 182.760727,265.505890 187.408035,256.510742 
	C193.275452,245.154022 197.953049,233.080566 204.753448,222.334885 
	C212.450363,210.172501 216.296082,197.829330 215.181046,183.377563 
	C214.248047,171.285355 215.078217,159.064423 214.883026,146.904419 
	C214.804581,142.017120 214.482498,137.244949 207.503906,136.626709 
	C203.326843,136.256668 200.253479,130.737686 199.947403,126.015587 
	C199.600723,120.667236 202.320984,117.950111 207.115875,116.818115 
	C209.041565,116.363487 211.042084,116.022560 213.013519,115.995827 
	C238.318039,115.652611 263.623199,115.339027 288.929138,115.144882 
	C291.193512,115.127510 293.591675,115.673203 295.707581,116.512421 
	C300.904083,118.573509 302.671814,122.225487 302.027405,128.632889 
	C301.637665,132.508133 297.840027,136.559280 293.311279,136.869400 
	C289.032349,137.162399 287.849548,139.293915 287.826111,143.362518 
	C287.491638,149.150330 287.371185,154.586807 287.224823,160.488556 
	C287.212280,166.293655 287.225647,171.633438 287.185516,177.433258 
	C287.170319,181.603104 287.208588,185.312958 287.246277,189.346878 
	C287.245422,190.103073 287.245087,190.535187 287.189270,191.423203 
	C286.963623,198.114334 286.439758,204.447464 292.041748,209.395020 
	C292.429077,210.437775 292.680786,211.208282 292.816071,212.188080 
	C293.132111,212.935501 293.564545,213.473602 294.183716,214.295486 
	C294.923248,216.048843 295.476074,217.518448 296.101074,219.308273 
	C297.106873,220.437714 298.040497,221.246918 299.137268,222.273560 
	C299.488739,222.997360 299.677094,223.503677 299.744324,224.247864 
	C300.354431,225.373428 301.085602,226.261124 301.977325,227.485229 
	C302.473572,229.537643 302.809265,231.253632 303.193604,233.319122 
	C307.487183,241.118774 311.732117,248.568924 316.120667,256.331055 
	C317.839172,259.763672 319.414032,262.884277 321.053406,266.311584 
	C321.736725,267.425568 322.355560,268.232819 323.051025,269.404724 
	C326.407990,276.184601 329.688324,282.599792 333.037872,289.292389 
	C333.412659,290.045074 333.718201,290.520325 334.097717,291.345886 
	C343.921112,310.336609 353.818268,328.902039 363.340027,347.658020 
	C366.699310,354.275055 370.448944,361.126160 371.716888,368.278748 
	C374.040833,381.388550 367.525696,390.871613 355.756500,397.177246 
	C354.297058,397.821686 353.154816,398.401093 351.576355,398.983093 
	C348.416840,399.316193 345.693634,399.646698 342.804016,400.276917 
	C342.554901,401.023468 342.472107,401.470276 342.389313,401.917084 
M294.593292,128.683746 
	C296.577667,124.859283 296.347992,124.001251 292.104919,122.536949 
	C290.361084,122.625290 288.617279,122.713623 286.063568,122.600494 
	C284.367004,122.710709 282.670410,122.820930 280.067993,122.685051 
	C259.414673,122.744873 238.761353,122.804695 217.242630,122.602844 
	C214.887512,122.665634 212.532394,122.728424 209.876373,122.588905 
	C209.555267,122.703857 209.234161,122.818817 208.166321,123.001350 
	C204.233566,124.241501 206.037445,126.540535 207.425629,129.233948 
	C207.970749,129.468613 208.515854,129.703278 209.042877,129.959045 
	C209.042877,129.959045 209.070099,129.927322 209.281403,130.582138 
	C209.898361,131.103577 210.437088,131.904846 211.144531,132.102646 
	C217.355133,133.839081 219.182968,138.097275 219.111481,144.204117 
	C218.899002,162.354233 219.128998,180.509491 218.926193,198.659821 
	C218.890366,201.866760 218.253601,205.398941 216.789856,208.204773 
	C206.281570,228.347992 195.406586,248.299469 184.810379,268.397430 
	C176.226562,284.678467 167.809052,301.048218 159.448944,317.445526 
	C157.041290,322.167816 155.088211,327.121918 152.472107,332.469788 
	C146.876633,343.212616 141.197952,353.913513 135.751953,364.731598 
	C134.584915,367.049805 133.281540,369.971527 133.709717,372.309601 
	C136.158829,385.683838 140.836899,393.113617 157.515411,395.358032 
	C158.675858,395.237213 159.836304,395.116425 161.934387,395.009277 
	C206.281021,394.944366 250.627670,394.879425 295.735718,394.897308 
	C296.498962,394.870667 297.262207,394.843994 298.957977,394.871307 
	C314.633423,394.878387 330.308868,394.885468 346.836700,394.929474 
	C352.976440,395.873840 357.405731,392.235657 361.523529,388.775116 
	C369.762512,381.851166 370.873505,369.639771 364.954193,358.641266 
	C357.107452,344.061462 349.289032,329.465668 341.573151,314.816345 
	C332.458618,297.511566 323.531708,280.107880 314.402374,262.810974 
	C305.724060,246.368546 296.804993,230.052933 288.164154,213.591080 
	C284.574768,206.752823 282.182953,199.695938 283.566986,191.559250 
	C284.387665,186.734772 283.496094,181.624466 283.428925,176.641937 
	C283.366272,171.992874 283.315430,167.342148 283.367920,162.693390 
	C283.441101,156.214127 283.917511,149.723846 283.657104,143.261017 
	C283.420410,137.387985 285.506226,134.138885 291.244751,132.387619 
	C292.401642,132.034561 293.121002,130.247726 293.932373,129.049286 
	C293.932373,129.049286 293.946625,128.918503 294.593292,128.683746 
z"/>
<path fill="#81F8B9" opacity="1.000000" stroke="none" 
	d="
M287.238983,176.973236 
	C287.225647,171.633438 287.212280,166.293655 287.527710,160.280548 
	C287.917755,154.075195 287.978943,148.543182 288.040131,143.011154 
	C287.849548,139.293915 289.032349,137.162399 293.311279,136.869400 
	C297.840027,136.559280 301.637665,132.508133 302.027405,128.632889 
	C302.671814,122.225487 300.904083,118.573509 295.707581,116.512421 
	C293.591675,115.673203 291.193512,115.127510 288.929138,115.144882 
	C263.623199,115.339027 238.318039,115.652611 213.013519,115.995827 
	C211.042084,116.022560 209.041565,116.363487 207.115875,116.818115 
	C202.320984,117.950111 199.600723,120.667236 199.947403,126.015587 
	C200.253479,130.737686 203.326843,136.256668 207.503906,136.626709 
	C214.482498,137.244949 214.804581,142.017120 214.883026,146.904419 
	C215.078217,159.064423 214.248047,171.285355 215.181046,183.377563 
	C216.296082,197.829330 212.450363,210.172501 204.753448,222.334885 
	C197.953049,233.080566 193.275452,245.154022 187.408035,256.510742 
	C182.760727,265.505890 177.576294,274.222992 172.904419,283.206055 
	C164.481216,299.402191 156.251495,315.699097 147.963562,331.965393 
	C142.600708,342.490784 137.251724,353.023407 131.944519,363.576935 
	C126.343140,374.715424 133.448669,387.009125 140.107025,393.268921 
	C144.783264,397.665222 150.451965,399.446106 157.031601,399.170959 
	C166.013351,398.795380 175.021957,399.062683 184.495514,399.412445 
	C184.996353,400.481598 185.020752,401.192688 185.045135,401.903778 
	C174.621536,402.259064 164.197952,402.614349 153.371628,403.040833 
	C152.535782,403.059296 152.102661,403.006500 151.342957,402.995667 
	C149.905548,402.337311 148.794724,401.636993 147.335754,400.930756 
	C141.926956,397.044769 136.866302,393.164734 131.530045,389.092896 
	C125.837349,379.461639 124.176865,369.763306 129.388809,359.665558 
	C137.588928,343.778442 145.909485,327.953033 154.027359,312.024200 
	C157.239594,305.721191 160.045593,299.211151 163.099869,292.428925 
	C166.652832,286.115967 170.395264,280.301697 173.587112,274.199402 
	C185.582642,251.265976 197.508469,228.294022 209.161575,205.185822 
	C210.878220,201.781738 211.691772,197.568405 211.710327,193.723633 
	C211.787445,177.751450 211.286972,161.777176 211.266785,145.803329 
	C211.262070,142.078918 210.475098,139.940536 206.482529,139.137833 
	C204.142059,138.667282 202.036957,137.026123 199.488739,135.786438 
	C193.478180,128.970474 195.440689,114.631935 205.913513,113.148575 
	C206.702148,112.991882 206.871887,112.920212 207.041626,112.848534 
	C207.460663,112.841835 207.879715,112.835129 208.604126,112.754250 
	C236.648514,112.675789 264.387512,112.671509 292.594116,112.589844 
	C293.475983,112.610100 293.890228,112.707726 294.891388,112.907227 
	C295.666626,112.979507 295.854980,112.949913 296.043304,112.920311 
	C304.389465,116.645065 305.892456,119.496727 304.653412,130.335083 
	C304.330658,131.295837 304.260895,131.658188 304.191162,132.020538 
	C303.828400,132.786514 303.465637,133.552490 303.039795,134.630554 
	C300.555725,136.349442 298.262695,138.592239 295.686798,138.986267 
	C290.573090,139.768524 290.431702,142.965317 290.426147,146.826859 
	C290.403076,162.934128 290.294586,179.041290 289.929199,195.225616 
	C288.842255,193.857605 288.043518,192.412445 287.244781,190.967300 
	C287.245087,190.535187 287.245422,190.103073 287.546387,189.143066 
	C289.432648,184.641129 290.239929,180.707733 287.238983,176.973236 
z"/>
<path fill="#84F6BA" opacity="1.000000" stroke="none" 
	d="
M356.073730,397.112274 
	C367.525696,390.871613 374.040833,381.388550 371.716888,368.278748 
	C370.448944,361.126160 366.699310,354.275055 363.340027,347.658020 
	C353.818268,328.902039 343.921112,310.336609 334.218842,291.141479 
	C333.833496,290.062866 333.401062,289.538910 332.968628,289.014954 
	C329.688324,282.599792 326.407990,276.184601 323.027161,269.071045 
	C322.280701,267.583405 321.634796,266.794128 320.988892,266.004852 
	C319.414032,262.884277 317.839172,259.763672 316.358887,256.140137 
	C317.012695,255.406540 317.571930,255.175858 318.131134,254.945175 
	C320.366974,258.971161 322.687714,262.952637 324.825104,267.030212 
	C340.255707,296.467957 355.194214,326.175415 371.209503,355.290863 
	C382.450073,375.726013 370.738556,394.304108 356.335541,399.531708 
	C356.014313,398.498718 356.044037,397.805481 356.073730,397.112274 
z"/>
<path fill="#81F8B9" opacity="1.000000" stroke="none" 
	d="
M197.052551,399.065765 
	C219.375259,399.062012 241.697983,399.058258 264.496674,399.408905 
	C264.998932,400.469421 265.025208,401.175537 265.051483,401.881622 
	C242.659180,401.940979 220.266861,402.000366 197.425308,401.613831 
	C197.001556,400.467224 197.027054,399.766479 197.052551,399.065765 
z"/>
<path fill="#93FDC8" opacity="1.000000" stroke="none" 
	d="
M265.510559,401.952423 
	C265.025208,401.175537 264.998932,400.469421 264.962311,399.411835 
	C274.673126,399.053253 284.394318,399.046143 294.573914,399.408539 
	C295.003265,400.477631 294.974182,401.177246 294.945068,401.876862 
	C285.286591,401.925659 275.628113,401.974457 265.510559,401.952423 
z"/>
<path fill="#81F8B9" opacity="1.000000" stroke="none" 
	d="
M311.054138,399.067749 
	C319.431458,399.309418 327.808746,399.551086 336.681366,400.374359 
	C337.240387,401.287262 337.304077,401.618622 337.367737,401.949951 
	C328.870056,401.997772 320.372406,402.045593 311.426941,401.641632 
	C311.004181,400.482452 311.029175,399.775116 311.054138,399.067749 
z"/>
<path fill="#8CFBC2" opacity="1.000000" stroke="none" 
	d="
M317.978149,254.632263 
	C317.571930,255.175858 317.012695,255.406540 316.215271,255.828156 
	C311.732117,248.568924 307.487183,241.118774 303.489349,233.447388 
	C305.225372,234.124725 306.714325,235.023315 308.203247,235.921906 
	C311.410583,242.054382 314.617889,248.186859 317.978149,254.632263 
z"/>
<path fill="#8CFBC2" opacity="1.000000" stroke="none" 
	d="
M287.189270,191.423203 
	C288.043518,192.412445 288.842255,193.857605 289.796417,195.601776 
	C290.958038,199.336243 291.964233,202.771713 292.876648,206.780289 
	C292.490601,207.943176 292.198364,208.532959 291.906128,209.122742 
	C286.439758,204.447464 286.963623,198.114334 287.189270,191.423203 
z"/>
<path fill="#81F8B9" opacity="1.000000" stroke="none" 
	d="
M292.041748,209.395020 
	C292.198364,208.532959 292.490601,207.943176 293.013184,207.118256 
	C296.189392,212.328522 299.135345,217.773926 301.757355,223.587677 
	C300.910767,223.974045 300.388123,223.992020 299.865448,224.010010 
	C299.677094,223.503677 299.488739,222.997360 299.068512,221.948303 
	C297.900696,220.599747 296.964813,219.793900 296.028900,218.988037 
	C295.476074,217.518448 294.923248,216.048843 294.117828,214.010300 
	C293.554321,212.953812 293.243408,212.466293 292.932495,211.978775 
	C292.680786,211.208282 292.429077,210.437775 292.041748,209.395020 
z"/>
<path fill="#93FDC8" opacity="1.000000" stroke="none" 
	d="
M196.586777,399.041626 
	C197.027054,399.766479 197.001556,400.467224 196.961609,401.519287 
	C193.280884,401.925934 189.614594,401.981201 185.496735,401.970154 
	C185.020752,401.192688 184.996353,400.481598 184.961014,399.416565 
	C188.673706,399.047546 192.397339,399.032501 196.586777,399.041626 
z"/>
<path fill="#81F8B9" opacity="1.000000" stroke="none" 
	d="
M308.135986,235.567688 
	C306.714325,235.023315 305.225372,234.124725 303.440704,233.097885 
	C302.809265,231.253632 302.473572,229.537643 302.170593,227.271103 
	C302.486176,226.468140 302.769012,226.215729 303.051819,225.963318 
	C304.724121,229.046707 306.396423,232.130096 308.135986,235.567688 
z"/>
<path fill="#93FDC8" opacity="1.000000" stroke="none" 
	d="
M310.601929,399.043213 
	C311.029175,399.775116 311.004181,400.482452 310.963806,401.544434 
	C308.605927,401.949493 306.263489,401.999908 303.471558,401.621399 
	C302.994019,400.490387 302.965912,399.788361 302.937805,399.086304 
	C305.341797,399.063782 307.745758,399.041229 310.601929,399.043213 
z"/>
<path fill="#81F8B9" opacity="1.000000" stroke="none" 
	d="
M302.501434,399.074799 
	C302.965912,399.788361 302.994019,400.490387 303.037476,401.544769 
	C300.645966,401.953552 298.239136,402.009979 295.388672,401.971619 
	C294.974182,401.177246 295.003265,400.477631 295.045868,399.430420 
	C297.394592,399.076324 299.729858,399.069794 302.501434,399.074799 
z"/>
<path fill="#81F8B9" opacity="1.000000" stroke="none" 
	d="
M342.970398,399.977203 
	C345.693634,399.646698 348.416840,399.316193 351.576508,399.329651 
	C352.025513,400.134888 352.038116,400.596100 352.050720,401.057373 
	C349.239563,401.441895 346.428436,401.826416 343.268066,401.602661 
	C342.936005,400.655304 342.953186,400.316254 342.970398,399.977203 
z"/>
<path fill="#93FDC8" opacity="1.000000" stroke="none" 
	d="
M352.399170,401.056915 
	C352.038116,400.596100 352.025513,400.134888 352.012756,399.327087 
	C353.154816,398.401093 354.297058,397.821686 355.756531,397.177246 
	C356.044037,397.805481 356.014313,398.498718 355.978516,399.540405 
	C354.897522,400.278076 353.822571,400.667297 352.399170,401.056915 
z"/>
<path fill="#8CFBC2" opacity="1.000000" stroke="none" 
	d="
M303.045715,225.671890 
	C302.769012,226.215729 302.486176,226.468140 302.010071,226.934692 
	C301.085602,226.261124 300.354431,225.373428 299.744324,224.247864 
	C300.388123,223.992020 300.910767,223.974045 301.824493,223.942444 
	C302.490204,224.412704 302.764893,224.896591 303.045715,225.671890 
z"/>
<path fill="#93FDC8" opacity="1.000000" stroke="none" 
	d="
M337.689484,402.037476 
	C337.304077,401.618622 337.240387,401.287262 337.090210,400.456848 
	C338.223755,400.354034 339.443756,400.750275 340.656311,401.507141 
	C339.769623,401.953522 338.890442,402.039276 337.689484,402.037476 
z"/>
<path fill="#93FDC8" opacity="1.000000" stroke="none" 
	d="
M342.804016,400.276917 
	C342.953186,400.316254 342.936005,400.655304 342.873962,401.502899 
	C342.829071,402.011444 342.576202,402.121552 342.482758,402.019318 
	C342.472107,401.470276 342.554901,401.023468 342.804016,400.276917 
z"/>
<path fill="#167534" opacity="1.000000" stroke="none" 
	d="
M206.911682,112.761795 
	C206.871887,112.920212 206.702148,112.991882 206.257385,113.034042 
	C206.171112,112.717018 206.437561,112.607193 206.911682,112.761795 
z"/>
<path fill="#167534" opacity="1.000000" stroke="none" 
	d="
M295.932983,112.807388 
	C295.854980,112.949913 295.666626,112.979507 295.212036,112.904068 
	C295.212738,112.585205 295.505066,112.550346 295.932983,112.807388 
z"/>
<path fill="#096225" opacity="1.000000" stroke="none" 
	d="
M304.354614,131.809875 
	C304.260895,131.658188 304.330658,131.295837 304.633484,130.766327 
	C304.750397,130.932510 304.634216,131.265869 304.354614,131.809875 
z"/>
<path fill="#87F8BD" opacity="1.000000" stroke="none" 
	d="
M294.042084,129.121918 
	C293.121002,130.247726 292.401642,132.034561 291.244751,132.387619 
	C285.506226,134.138885 283.420410,137.387985 283.657104,143.261017 
	C283.917511,149.723846 283.441101,156.214127 283.367920,162.693390 
	C283.315430,167.342148 283.366272,171.992874 283.428925,176.641937 
	C283.496094,181.624466 284.387665,186.734772 283.566986,191.559250 
	C282.182953,199.695938 284.574768,206.752823 288.164154,213.591080 
	C296.804993,230.052933 305.724060,246.368546 314.402374,262.810974 
	C323.531708,280.107880 332.458618,297.511566 341.573151,314.816345 
	C349.289032,329.465668 357.107452,344.061462 364.954193,358.641266 
	C370.873505,369.639771 369.762512,381.851166 361.523529,388.775116 
	C357.405731,392.235657 352.976440,395.873840 346.414795,394.566589 
	C346.000305,393.509277 346.007721,392.814850 346.392456,392.032776 
	C347.798492,391.860931 348.827179,391.776642 350.040161,391.860962 
	C350.820923,391.712708 351.417389,391.395844 352.284729,390.863098 
	C364.589600,384.212006 368.794586,373.646667 363.303955,363.069885 
	C349.605225,336.681641 335.875549,310.308960 322.024567,284.000427 
	C309.646698,260.490021 296.826019,237.207657 284.807373,213.516907 
	C281.986755,207.957016 280.533142,201.194717 280.313507,194.920380 
	C279.673340,176.633408 279.976105,158.313431 279.993164,139.640686 
	C281.430176,136.544556 282.783173,133.814117 284.466064,131.042908 
	C285.816528,130.616653 286.837128,130.231186 288.256592,129.898987 
	C290.450989,129.675476 292.246552,129.398697 294.042084,129.121918 
z"/>
<path fill="#86F6BB" opacity="1.000000" stroke="none" 
	d="
M152.926712,331.969727 
	C155.088211,327.121918 157.041290,322.167816 159.448944,317.445526 
	C167.809052,301.048218 176.226562,284.678467 184.810379,268.397430 
	C195.406586,248.299469 206.281570,228.347992 216.789856,208.204773 
	C218.253601,205.398941 218.890366,201.866760 218.926193,198.659821 
	C219.128998,180.509491 218.899002,162.354233 219.111481,144.204117 
	C219.182968,138.097275 217.355133,133.839081 211.144531,132.102646 
	C210.437088,131.904846 209.898361,131.103577 209.584961,130.224121 
	C212.273346,130.222687 214.658173,130.579300 217.320557,131.162048 
	C222.737213,135.587631 220.770569,141.699585 221.711395,147.375351 
	C221.712921,148.498047 221.804382,149.250168 221.797043,150.395081 
	C221.779419,151.857697 221.860596,152.927521 221.864761,154.318604 
	C221.909622,155.860687 222.031494,157.081528 222.093475,158.363586 
	C222.033569,158.424805 222.113968,158.576065 221.968231,158.916809 
	C221.855316,170.744629 221.724518,182.235306 221.975998,193.717606 
	C222.156784,201.972443 219.847275,209.352493 215.860886,216.476837 
	C210.022781,226.910553 204.405136,237.471191 198.868454,248.069122 
	C191.109528,262.920776 183.548981,277.875885 175.833130,292.750214 
	C169.019119,305.886078 162.108643,318.971924 154.855530,332.061066 
	C153.955780,332.018127 153.441238,331.993927 152.926712,331.969727 
z"/>
<path fill="#81F8B9" opacity="1.000000" stroke="none" 
	d="
M152.699402,332.219757 
	C153.441238,331.993927 153.955780,332.018127 154.770599,332.413818 
	C149.800751,342.759613 144.470337,352.702881 139.308167,362.732727 
	C138.193619,364.898254 137.181061,367.333557 136.982147,369.716431 
	C135.982498,381.690857 145.220932,391.840790 157.296783,391.935364 
	C174.428604,392.069458 191.562622,391.895905 208.695602,391.915100 
	C237.468079,391.947327 266.240509,392.027832 295.009583,392.430847 
	C294.995605,393.453949 294.984955,394.134247 294.974304,394.814514 
	C250.627670,394.879425 206.281021,394.944366 161.209961,394.817841 
	C159.325592,394.747955 158.165634,394.869537 157.005692,394.991089 
	C140.836899,393.113617 136.158829,385.683838 133.709717,372.309601 
	C133.281540,369.971527 134.584915,367.049805 135.751953,364.731598 
	C141.197952,353.913513 146.876633,343.212616 152.699402,332.219757 
z"/>
<path fill="#056524" opacity="1.000000" stroke="none" 
	d="
M221.801331,147.004776 
	C220.770569,141.699585 222.737213,135.587631 217.356445,130.833588 
	C217.445892,127.807472 217.776962,125.335991 218.108032,122.864517 
	C238.761353,122.804695 259.414673,122.744873 280.629730,123.121658 
	C282.173035,126.066742 283.154602,128.575226 284.136169,131.083694 
	C282.783173,133.814117 281.430176,136.544556 279.708313,139.581665 
	C278.626190,139.589554 277.912964,139.290741 277.192902,138.725098 
	C277.211792,138.282181 277.237488,138.106094 277.511658,137.719681 
	C279.653168,134.289185 282.116272,131.204620 279.915894,126.792076 
	C277.627472,126.306419 275.662750,125.957191 273.697021,125.951683 
	C259.431763,125.911728 245.166260,125.922531 230.900925,125.954964 
	C221.233566,125.976944 221.233627,126.004311 223.966660,135.608734 
	C223.136948,139.680923 225.998016,144.042328 221.801331,147.004776 
z"/>
<path fill="#81F8B9" opacity="1.000000" stroke="none" 
	d="
M346.015137,392.120392 
	C346.007721,392.814850 346.000305,393.509277 345.988617,394.548157 
	C330.308868,394.885468 314.633423,394.878387 298.485382,394.504517 
	C298.004700,393.448792 297.996613,392.759827 298.453217,391.997192 
	C314.617004,391.989136 330.316071,392.054749 346.015137,392.120392 
z"/>
<path fill="#089641" opacity="1.000000" stroke="none" 
	d="
M217.675323,122.733681 
	C217.776962,125.335991 217.445892,127.807472 217.078918,130.607422 
	C214.658173,130.579300 212.273346,130.222687 209.479309,129.896698 
	C209.070099,129.927322 209.042877,129.959045 208.898056,129.689896 
	C208.206650,129.182236 207.660080,128.943726 207.113495,128.705215 
	C206.037445,126.540535 204.233566,124.241501 208.863556,122.999512 
	C209.766281,122.928856 209.971786,122.860039 210.177277,122.791214 
	C212.532394,122.728424 214.887512,122.665634 217.675323,122.733681 
z"/>
<path fill="#089641" opacity="1.000000" stroke="none" 
	d="
M293.987244,129.085602 
	C292.246552,129.398697 290.450989,129.675476 288.207642,129.658142 
	C287.627014,127.388283 288.236420,125.238495 286.415070,123.640518 
	C286.362823,123.594688 286.711609,123.091766 286.873444,122.801964 
	C288.617279,122.713623 290.361084,122.625290 292.697266,122.967285 
	C293.508575,125.237915 293.727600,127.078209 293.946625,128.918503 
	C293.946625,128.918503 293.932373,129.049286 293.987244,129.085602 
z"/>
<path fill="#076D29" opacity="1.000000" stroke="none" 
	d="
M286.468506,122.701233 
	C286.711609,123.091766 286.362823,123.594688 286.415070,123.640518 
	C288.236420,125.238495 287.627014,127.388283 287.808777,129.604874 
	C286.837128,130.231186 285.816528,130.616653 284.466064,131.042908 
	C283.154602,128.575226 282.173035,126.066742 281.082642,123.244705 
	C282.670410,122.820930 284.367004,122.710709 286.468506,122.701233 
z"/>
<path fill="#8CFBC2" opacity="1.000000" stroke="none" 
	d="
M287.826111,143.362518 
	C287.978943,148.543182 287.917755,154.075195 287.553650,159.815247 
	C287.371185,154.586807 287.491638,149.150330 287.826111,143.362518 
z"/>
<path fill="#8CFBC2" opacity="1.000000" stroke="none" 
	d="
M287.185516,177.433258 
	C290.239929,180.707733 289.432648,184.641129 287.546936,188.819000 
	C287.208588,185.312958 287.170319,181.603104 287.185516,177.433258 
z"/>
<path fill="#48CA81" opacity="1.000000" stroke="none" 
	d="
M294.269958,128.801117 
	C293.727600,127.078209 293.508575,125.237915 293.134033,123.024445 
	C296.347992,124.001251 296.577667,124.859283 294.269958,128.801117 
z"/>
<path fill="#87F8BD" opacity="1.000000" stroke="none" 
	d="
M297.988525,392.070862 
	C297.996613,392.759827 298.004700,393.448792 298.019104,394.477539 
	C297.262207,394.843994 296.498962,394.870667 295.355011,394.855896 
	C294.984955,394.134247 294.995605,393.453949 295.376801,392.349121 
	C296.494415,391.973358 297.241486,392.022125 297.988525,392.070862 
z"/>
<path fill="#87F8BD" opacity="1.000000" stroke="none" 
	d="
M157.260559,395.174561 
	C158.165634,394.869537 159.325592,394.747955 160.741150,394.811005 
	C159.836304,395.116425 158.675858,395.237213 157.260559,395.174561 
z"/>
<path fill="#8CFBC2" opacity="1.000000" stroke="none" 
	d="
M296.101074,219.308273 
	C296.964813,219.793900 297.900696,220.599747 298.905365,221.730850 
	C298.040497,221.246918 297.106873,220.437714 296.101074,219.308273 
z"/>
<path fill="#8CFBC2" opacity="1.000000" stroke="none" 
	d="
M321.053406,266.311584 
	C321.634796,266.794128 322.280701,267.583405 322.950500,268.706360 
	C322.355560,268.232819 321.736725,267.425568 321.053406,266.311584 
z"/>
<path fill="#8CFBC2" opacity="1.000000" stroke="none" 
	d="
M292.816071,212.188080 
	C293.243408,212.466293 293.554321,212.953812 293.931091,213.726532 
	C293.564545,213.473602 293.132111,212.935501 292.816071,212.188080 
z"/>
<path fill="#8CFBC2" opacity="1.000000" stroke="none" 
	d="
M333.037872,289.292389 
	C333.401062,289.538910 333.833496,290.062866 334.144836,290.791199 
	C333.718201,290.520325 333.412659,290.045074 333.037872,289.292389 
z"/>
<path fill="#86F6BB" opacity="1.000000" stroke="none" 
	d="
M207.269562,128.969574 
	C207.660080,128.943726 208.206650,129.182236 208.907104,129.679352 
	C208.515854,129.703278 207.970749,129.468613 207.269562,128.969574 
z"/>
<path fill="#48CA81" opacity="1.000000" stroke="none" 
	d="
M210.026825,122.690063 
	C209.971786,122.860039 209.766281,122.928856 209.236938,122.965729 
	C209.234161,122.818817 209.555267,122.703857 210.026825,122.690063 
z"/>
<path fill="#065E21" opacity="1.000000" stroke="none" 
	d="
M298.453247,391.997192 
	C297.241486,392.022125 296.494415,391.973358 295.380188,392.006287 
	C266.240509,392.027832 237.468079,391.947327 208.695602,391.915100 
	C191.562622,391.895905 174.428604,392.069458 157.296783,391.935364 
	C145.220932,391.840790 135.982498,381.690857 136.982147,369.716431 
	C137.181061,367.333557 138.193619,364.898254 139.308167,362.732727 
	C144.470337,352.702881 149.800751,342.759613 155.155823,332.432587 
	C162.108643,318.971924 169.019119,305.886078 175.833130,292.750214 
	C183.548981,277.875885 191.109528,262.920776 198.868454,248.069122 
	C204.405136,237.471191 210.022781,226.910553 215.860886,216.476837 
	C219.847275,209.352493 222.156784,201.972443 221.975998,193.717606 
	C221.724518,182.235306 221.855316,170.744629 222.475891,159.061127 
	C223.747299,160.140503 224.878006,161.406128 224.903534,162.693665 
	C225.143692,174.805176 225.299255,186.921127 225.217606,199.034042 
	C225.200195,201.616806 224.538956,204.384048 223.457077,206.736435 
	C219.795334,214.698380 215.924896,222.570282 211.929062,230.371521 
	C200.578247,252.532150 189.161285,274.659119 177.703796,296.764801 
	C166.014908,319.316956 154.185669,341.796509 142.546555,364.374176 
	C138.421127,372.376709 140.891373,379.941498 148.262253,385.204987 
	C153.898132,389.229523 160.090073,388.990265 166.412048,388.880859 
	C181.886658,388.613098 197.362228,388.158691 212.836685,388.186066 
	C231.071182,388.218323 249.304077,388.804230 267.539154,388.921326 
	C288.797089,389.057861 310.056976,389.014587 331.315216,388.899048 
	C337.116913,388.867554 342.964661,388.660217 348.704285,387.887390 
	C357.390228,386.717865 365.786896,374.842499 360.055023,364.336456 
	C349.484009,344.960663 339.439484,325.297333 329.199158,305.741455 
	C315.239014,279.081879 301.576874,252.261078 287.231659,225.810547 
	C280.531281,213.455933 274.978271,201.171570 276.986267,186.684082 
	C277.186371,185.240494 276.683533,183.713608 276.666138,182.223526 
	C276.506744,168.577713 276.366943,154.931564 276.289764,141.285141 
	C276.285431,140.522476 276.882538,139.756409 277.199738,138.991928 
	C277.912964,139.290741 278.626190,139.589554 279.624298,139.947388 
	C279.976105,158.313431 279.673340,176.633408 280.313507,194.920380 
	C280.533142,201.194717 281.986755,207.957016 284.807373,213.516907 
	C296.826019,237.207657 309.646698,260.490021 322.024567,284.000427 
	C335.875549,310.308960 349.605225,336.681641 363.303955,363.069885 
	C368.794586,373.646667 364.589600,384.212006 351.994141,390.844482 
	C350.907043,391.258575 350.381439,391.475464 349.855865,391.692352 
	C348.827179,391.776642 347.798492,391.860931 346.392456,392.032776 
	C330.316071,392.054749 314.617004,391.989136 298.453247,391.997192 
z"/>
<path fill="#81F8B9" opacity="1.000000" stroke="none" 
	d="
M350.040161,391.860962 
	C350.381439,391.475464 350.907043,391.258575 351.723267,391.060364 
	C351.417389,391.395844 350.820923,391.712708 350.040161,391.860962 
z"/>
<path fill="#000000" opacity="1.000000" stroke="none" 
	d="
M277.192902,138.725098 
	C276.882538,139.756409 276.285431,140.522476 276.289764,141.285141 
	C276.366943,154.931564 276.506744,168.577713 276.666138,182.223526 
	C276.683533,183.713608 277.186371,185.240494 276.986267,186.684082 
	C274.978271,201.171570 280.531281,213.455933 287.231659,225.810547 
	C301.576874,252.261078 315.239014,279.081879 329.199158,305.741455 
	C339.439484,325.297333 349.484009,344.960663 360.055023,364.336456 
	C365.786896,374.842499 357.390228,386.717865 348.704285,387.887390 
	C342.964661,388.660217 337.116913,388.867554 331.315216,388.899048 
	C310.056976,389.014587 288.797089,389.057861 267.539154,388.921326 
	C249.304077,388.804230 231.071182,388.218323 212.836685,388.186066 
	C197.362228,388.158691 181.886658,388.613098 166.412048,388.880859 
	C160.090073,388.990265 153.898132,389.229523 148.262253,385.204987 
	C140.891373,379.941498 138.421127,372.376709 142.546555,364.374176 
	C154.185669,341.796509 166.014908,319.316956 177.703796,296.764801 
	C189.161285,274.659119 200.578247,252.532150 211.929062,230.371521 
	C215.924896,222.570282 219.795334,214.698380 223.457077,206.736435 
	C224.538956,204.384048 225.200195,201.616806 225.217606,199.034042 
	C225.299255,186.921127 225.143692,174.805176 224.903534,162.693665 
	C224.878006,161.406128 223.747299,160.140503 222.621643,158.720398 
	C222.113968,158.576065 222.033569,158.424805 222.574188,158.285080 
	C223.632828,156.754318 224.150848,155.363281 224.723236,153.578659 
	C224.734665,152.129807 224.691696,151.074554 224.717178,149.558212 
	C224.510742,144.453186 224.235870,139.809219 223.960999,135.165268 
	C221.233627,126.004311 221.233566,125.976944 230.900925,125.954964 
	C245.166260,125.922531 259.431763,125.911728 273.697021,125.951683 
	C275.662750,125.957191 277.627472,126.306419 279.813660,127.149384 
	C279.110840,131.178177 278.187012,134.554108 277.263214,137.930023 
	C277.237488,138.106094 277.211792,138.282181 277.192902,138.725098 
M211.591095,282.096741 
	C197.873413,294.350586 203.901260,317.831360 220.981308,323.393585 
	C230.823380,326.598755 239.767807,324.571625 247.019119,317.935516 
	C253.854782,311.679749 257.056396,302.975098 254.488785,293.812134 
	C248.632996,272.914612 225.750443,268.078552 211.591095,282.096741 
M294.076813,365.837524 
	C305.095154,360.301544 310.976685,351.782990 309.885864,339.050201 
	C308.958344,328.223633 301.115662,318.878296 290.550751,316.282593 
	C279.989288,313.687775 268.261749,318.286285 262.468079,327.567413 
	C256.599762,336.968079 257.690308,349.105408 264.042084,357.447754 
	C271.735168,367.551727 281.867554,369.040009 294.076813,365.837524 
M270.536743,231.954239 
	C265.002960,227.096756 258.928741,225.813065 252.130066,229.124695 
	C242.717178,233.709763 239.674164,245.188431 244.970749,254.730896 
	C248.306412,260.740479 262.406708,263.298401 269.248016,258.323120 
	C276.949585,252.722244 279.806702,241.207581 270.536743,231.954239 
M239.305954,183.167053 
	C239.248840,183.993805 239.129028,184.821716 239.144485,185.647110 
	C239.274872,192.602325 242.798340,197.038605 249.310074,198.486343 
	C253.898590,199.506516 259.720917,196.574890 262.157196,192.017639 
	C264.880615,186.923248 263.679321,179.979523 259.395569,176.055054 
	C252.847092,170.055801 243.937286,172.892181 239.305954,183.167053 
z"/>
<path fill="#065E21" opacity="1.000000" stroke="none" 
	d="
M223.966644,135.608734 
	C224.235870,139.809219 224.510742,144.453186 224.374939,149.555359 
	C223.274780,150.009827 222.585312,150.006058 221.895844,150.002289 
	C221.804382,149.250168 221.712921,148.498047 221.711395,147.375351 
	C225.998016,144.042328 223.136948,139.680923 223.966644,135.608734 
z"/>
<path fill="#056524" opacity="1.000000" stroke="none" 
	d="
M221.797028,150.395081 
	C222.585312,150.006058 223.274780,150.009827 224.306503,150.016449 
	C224.691696,151.074554 224.734665,152.129807 224.384125,153.583893 
	C223.307663,153.987595 222.624725,153.992462 221.941772,153.997330 
	C221.860596,152.927521 221.779419,151.857697 221.797028,150.395081 
z"/>
<path fill="#065E21" opacity="1.000000" stroke="none" 
	d="
M221.864761,154.318604 
	C222.624725,153.992462 223.307663,153.987595 224.329742,153.977478 
	C224.150848,155.363281 223.632828,156.754318 222.634094,158.223846 
	C222.031494,157.081528 221.909622,155.860687 221.864761,154.318604 
z"/>
<path fill="#065E21" opacity="1.000000" stroke="none" 
	d="
M277.511658,137.719681 
	C278.187012,134.554108 279.110840,131.178177 280.136841,127.444946 
	C282.116272,131.204620 279.653168,134.289185 277.511658,137.719681 
z"/>
<path fill="#06561E" opacity="1.000000" stroke="none" 
	d="
M211.845886,281.842712 
	C225.750443,268.078552 248.632996,272.914612 254.488785,293.812134 
	C257.056396,302.975098 253.854782,311.679749 247.019119,317.935516 
	C239.767807,324.571625 230.823380,326.598755 220.981308,323.393585 
	C203.901260,317.831360 197.873413,294.350586 211.845886,281.842712 
M231.236160,321.100098 
	C242.356079,319.902130 251.490082,310.456879 251.896149,299.736084 
	C252.253571,290.300293 243.853271,279.908661 234.440155,278.142120 
	C223.215866,276.035706 211.974091,282.347046 208.564941,292.592316 
	C203.385773,308.156830 217.141403,322.968048 231.236160,321.100098 
z"/>
<path fill="#07581F" opacity="1.000000" stroke="none" 
	d="
M293.717010,365.992737 
	C281.867554,369.040009 271.735168,367.551727 264.042084,357.447754 
	C257.690308,349.105408 256.599762,336.968079 262.468079,327.567413 
	C268.261749,318.286285 279.989288,313.687775 290.550751,316.282593 
	C301.115662,318.878296 308.958344,328.223633 309.885864,339.050201 
	C310.976685,351.782990 305.095154,360.301544 293.717010,365.992737 
M271.626038,323.028076 
	C262.491516,329.012878 259.157043,340.676147 263.721558,350.675995 
	C268.438934,361.010681 279.601501,366.471222 290.075409,363.482117 
	C299.559753,360.775482 305.097443,354.148712 306.473907,344.724426 
	C307.626862,336.830444 305.443695,329.174072 298.804565,324.206451 
	C290.558685,318.036560 281.462372,317.016296 271.626038,323.028076 
z"/>
<path fill="#06561E" opacity="1.000000" stroke="none" 
	d="
M270.829437,232.165497 
	C279.806702,241.207581 276.949585,252.722244 269.248016,258.323120 
	C262.406708,263.298401 248.306412,260.740479 244.970749,254.730896 
	C239.674164,245.188431 242.717178,233.709763 252.130066,229.124695 
	C258.928741,225.813065 265.002960,227.096756 270.829437,232.165497 
M245.876114,247.168304 
	C247.051422,253.771088 250.379822,257.247314 256.264923,258.018463 
	C263.555206,258.973785 269.578278,255.897644 272.280670,249.838852 
	C274.554413,244.741074 273.012726,238.722473 268.193420,234.681122 
	C263.937195,231.111954 259.077301,229.848892 253.869629,232.268967 
	C247.990067,235.001282 245.281464,239.791321 245.876114,247.168304 
z"/>
<path fill="#06541D" opacity="1.000000" stroke="none" 
	d="
M239.398224,182.779373 
	C243.937286,172.892181 252.847092,170.055801 259.395569,176.055054 
	C263.679321,179.979523 264.880615,186.923248 262.157196,192.017639 
	C259.720917,196.574890 253.898590,199.506516 249.310074,198.486343 
	C242.798340,197.038605 239.274872,192.602325 239.144485,185.647110 
	C239.129028,184.821716 239.248840,183.993805 239.398224,182.779373 
M251.490128,176.810486 
	C244.958542,177.764236 242.641708,179.785873 242.100128,185.004135 
	C241.621567,189.614975 243.907486,193.556183 247.838470,194.897781 
	C253.293976,196.759659 258.446106,194.269760 260.116058,188.964249 
	C262.063965,182.775742 259.351105,178.561142 251.490128,176.810486 
z"/>
<path fill="#84F6BA" opacity="1.000000" stroke="none" 
	d="
M230.791168,321.120972 
	C217.141403,322.968048 203.385773,308.156830 208.564941,292.592316 
	C211.974091,282.347046 223.215866,276.035706 234.440155,278.142120 
	C243.853271,279.908661 252.253571,290.300293 251.896149,299.736084 
	C251.490082,310.456879 242.356079,319.902130 230.791168,321.120972 
M230.438370,281.116455 
	C220.040848,281.444763 213.679169,286.918732 211.454025,296.840637 
	C209.704041,304.643799 212.964920,310.474945 219.428741,315.173065 
	C224.827591,319.097076 230.418076,318.905365 235.941589,316.929047 
	C242.584976,314.552032 247.038406,309.512238 247.923492,302.337189 
	C249.334351,290.899567 243.853561,284.190613 230.438370,281.116455 
z"/>
<path fill="#84F6BA" opacity="1.000000" stroke="none" 
	d="
M271.934753,322.824036 
	C281.462372,317.016296 290.558685,318.036560 298.804565,324.206451 
	C305.443695,329.174072 307.626862,336.830444 306.473907,344.724426 
	C305.097443,354.148712 299.559753,360.775482 290.075409,363.482117 
	C279.601501,366.471222 268.438934,361.010681 263.721558,350.675995 
	C259.157043,340.676147 262.491516,329.012878 271.934753,322.824036 
M267.744507,350.589630 
	C271.449310,357.811310 279.309631,362.029327 287.001282,360.923096 
	C295.079773,359.761261 302.596588,352.453064 303.816071,344.574951 
	C305.033875,336.707672 298.571381,324.723145 291.767670,323.556122 
	C283.997314,322.223236 276.120544,321.727417 270.301392,329.096222 
	C265.203949,335.551147 263.478912,342.280609 267.744507,350.589630 
z"/>
<path fill="#81F8B9" opacity="1.000000" stroke="none" 
	d="
M245.817444,246.738831 
	C245.281464,239.791321 247.990067,235.001282 253.869629,232.268967 
	C259.077301,229.848892 263.937195,231.111954 268.193420,234.681122 
	C273.012726,238.722473 274.554413,244.741074 272.280670,249.838852 
	C269.578278,255.897644 263.555206,258.973785 256.264923,258.018463 
	C250.379822,257.247314 247.051422,253.771088 245.817444,246.738831 
M252.549164,238.069824 
	C248.015869,243.491806 248.039536,248.692993 252.614410,252.410965 
	C257.926697,256.728241 264.150085,255.931625 268.240723,250.410645 
	C270.726257,247.056015 270.497559,241.850632 267.737946,238.967194 
	C263.173035,234.197464 258.875092,233.789246 252.549164,238.069824 
z"/>
<path fill="#81F8B9" opacity="1.000000" stroke="none" 
	d="
M251.901489,176.825989 
	C259.351105,178.561142 262.063965,182.775742 260.116058,188.964249 
	C258.446106,194.269760 253.293976,196.759659 247.838470,194.897781 
	C243.907486,193.556183 241.621567,189.614975 242.100128,185.004135 
	C242.641708,179.785873 244.958542,177.764236 251.901489,176.825989 
M250.825851,191.713150 
	C255.864883,191.000397 258.721466,186.361923 255.967102,182.858810 
	C254.853531,181.442505 252.151520,180.056534 250.667404,180.463242 
	C248.871948,180.955261 246.890976,183.124359 246.264526,184.994522 
	C245.240112,188.052689 247.080200,190.335602 250.825851,191.713150 
z"/>
<path fill="#AFFED7" opacity="1.000000" stroke="none" 
	d="
M230.848999,281.134949 
	C243.853561,284.190613 249.334351,290.899567 247.923492,302.337189 
	C247.038406,309.512238 242.584976,314.552032 235.941589,316.929047 
	C230.418076,318.905365 224.827591,319.097076 219.428741,315.173065 
	C212.964920,310.474945 209.704041,304.643799 211.454025,296.840637 
	C213.679169,286.918732 220.040848,281.444763 230.848999,281.134949 
M224.976517,285.109100 
	C220.446121,287.561707 217.482651,291.094482 215.815872,296.142975 
	C213.720306,302.490204 216.190079,307.260742 220.196228,311.495056 
	C224.562973,316.110504 230.165634,315.970612 235.427872,313.525757 
	C240.548004,311.146881 244.564011,307.195312 244.891006,301.119110 
	C245.519272,289.444611 237.222824,282.576294 224.976517,285.109100 
z"/>
<path fill="#AFFED7" opacity="1.000000" stroke="none" 
	d="
M267.590027,350.240143 
	C263.478912,342.280609 265.203949,335.551147 270.301392,329.096222 
	C276.120544,321.727417 283.997314,322.223236 291.767670,323.556122 
	C298.571381,324.723145 305.033875,336.707672 303.816071,344.574951 
	C302.596588,352.453064 295.079773,359.761261 287.001282,360.923096 
	C279.309631,362.029327 271.449310,357.811310 267.590027,350.240143 
M297.407776,332.246887 
	C290.260101,322.132538 275.390991,323.275330 270.211090,334.714691 
	C266.396271,343.139374 270.208160,351.187744 276.749634,355.599274 
	C283.015839,359.825134 293.147430,357.044250 297.678131,351.059113 
	C302.394226,344.829041 301.027527,338.953003 297.407776,332.246887 
z"/>
<path fill="#AFFED7" opacity="1.000000" stroke="none" 
	d="
M252.846558,237.825455 
	C258.875092,233.789246 263.173035,234.197464 267.737946,238.967194 
	C270.497559,241.850632 270.726257,247.056015 268.240723,250.410645 
	C264.150085,255.931625 257.926697,256.728241 252.614410,252.410965 
	C248.039536,248.692993 248.015869,243.491806 252.846558,237.825455 
M264.255676,240.225021 
	C260.677643,237.114563 256.520569,237.254410 254.415558,241.003220 
	C253.064423,243.409454 253.338547,248.258972 254.975952,250.450150 
	C257.370514,253.654510 261.133301,251.913849 264.201996,249.621048 
	C268.020111,246.768295 267.345703,243.868652 264.255676,240.225021 
z"/>
<path fill="#ADFED5" opacity="1.000000" stroke="none" 
	d="
M250.463181,191.600189 
	C247.080200,190.335602 245.240112,188.052689 246.264526,184.994522 
	C246.890976,183.124359 248.871948,180.955261 250.667404,180.463242 
	C252.151520,180.056534 254.853531,181.442505 255.967102,182.858810 
	C258.721466,186.361923 255.864883,191.000397 250.463181,191.600189 
z"/>
<path fill="#8AF9C0" opacity="1.000000" stroke="none" 
	d="
M225.366547,285.038849 
	C237.222824,282.576294 245.519272,289.444611 244.891006,301.119110 
	C244.564011,307.195312 240.548004,311.146881 235.427872,313.525757 
	C230.165634,315.970612 224.562973,316.110504 220.196228,311.495056 
	C216.190079,307.260742 213.720306,302.490204 215.815872,296.142975 
	C217.482651,291.094482 220.446121,287.561707 225.366547,285.038849 
M241.104202,301.975800 
	C241.746719,294.910309 239.107895,289.629333 234.131195,288.020905 
	C228.561264,286.220734 222.550003,288.193207 219.645264,292.774139 
	C216.197006,298.212250 218.188324,306.968201 223.543762,309.915985 
	C230.015167,313.478058 237.320801,310.488098 241.104202,301.975800 
z"/>
<path fill="#8AF9C0" opacity="1.000000" stroke="none" 
	d="
M297.610535,332.558868 
	C301.027527,338.953003 302.394226,344.829041 297.678131,351.059113 
	C293.147430,357.044250 283.015839,359.825134 276.749634,355.599274 
	C270.208160,351.187744 266.396271,343.139374 270.211090,334.714691 
	C275.390991,323.275330 290.260101,322.132538 297.610535,332.558868 
M282.923492,354.023499 
	C284.251129,353.995239 285.603638,354.121033 286.902008,353.911469 
	C291.903168,353.104248 296.506317,348.067352 297.033173,342.961212 
	C297.601624,337.451935 294.047668,331.891876 288.509186,329.625885 
	C283.616577,327.624176 278.144836,329.222870 274.753937,333.644867 
	C268.791504,341.420349 271.892548,349.962494 282.923492,354.023499 
z"/>
<path fill="#8CFBC2" opacity="1.000000" stroke="none" 
	d="
M264.546936,240.465210 
	C267.345703,243.868652 268.020111,246.768295 264.201996,249.621048 
	C261.133301,251.913849 257.370514,253.654510 254.975952,250.450150 
	C253.338547,248.258972 253.064423,243.409454 254.415558,241.003220 
	C256.520569,237.254410 260.677643,237.114563 264.546936,240.465210 
M258.710114,248.308914 
	C260.440826,247.252090 262.171539,246.195267 263.902283,245.138458 
	C263.064606,243.817184 262.386505,241.567764 261.352264,241.389969 
	C259.761536,241.116501 257.926361,242.265274 256.194885,242.810608 
	C256.791351,244.581070 257.387848,246.351532 258.710114,248.308914 
z"/>
<path fill="#076D29" opacity="1.000000" stroke="none" 
	d="
M241.029037,302.383209 
	C237.320801,310.488098 230.015167,313.478058 223.543762,309.915985 
	C218.188324,306.968201 216.197006,298.212250 219.645264,292.774139 
	C222.550003,288.193207 228.561264,286.220734 234.131195,288.020905 
	C239.107895,289.629333 241.746719,294.910309 241.029037,302.383209 
M234.819229,292.510712 
	C233.890411,292.163635 232.983887,291.729980 232.028992,291.484192 
	C227.573563,290.337280 222.671570,293.013733 221.321167,297.283081 
	C220.166824,300.932587 222.733551,305.741272 226.701080,307.362122 
	C230.567642,308.941742 234.379990,306.902466 236.807220,302.644684 
	C238.964035,298.861267 237.295868,296.022247 234.819229,292.510712 
z"/>
<path fill="#056524" opacity="1.000000" stroke="none" 
	d="
M282.518250,353.969788 
	C271.892548,349.962494 268.791504,341.420349 274.753937,333.644867 
	C278.144836,329.222870 283.616577,327.624176 288.509186,329.625885 
	C294.047668,331.891876 297.601624,337.451935 297.033173,342.961212 
	C296.506317,348.067352 291.903168,353.104248 286.902008,353.911469 
	C285.603638,354.121033 284.251129,353.995239 282.518250,353.969788 
M283.610992,332.932159 
	C279.703003,332.761322 276.782562,335.046326 276.340698,338.338104 
	C275.932190,341.381195 276.762726,345.342377 278.576538,347.744934 
	C280.932312,350.865356 285.053772,351.686127 288.873108,349.448425 
	C292.840088,347.124207 293.840454,343.308533 292.839630,339.148499 
	C291.830566,334.954132 288.855499,332.824860 283.610992,332.932159 
z"/>
<path fill="#089641" opacity="1.000000" stroke="none" 
	d="
M258.347229,248.215454 
	C257.387848,246.351532 256.791351,244.581070 256.194885,242.810608 
	C257.926361,242.265274 259.761536,241.116501 261.352264,241.389969 
	C262.386505,241.567764 263.064606,243.817184 263.902283,245.138458 
	C262.171539,246.195267 260.440826,247.252090 258.347229,248.215454 
z"/>
<path fill="#000000" opacity="1.000000" stroke="none" 
	d="
M235.105469,292.774170 
	C237.295868,296.022247 238.964035,298.861267 236.807220,302.644684 
	C234.379990,306.902466 230.567642,308.941742 226.701080,307.362122 
	C222.733551,305.741272 220.166824,300.932587 221.321167,297.283081 
	C222.671570,293.013733 227.573563,290.337280 232.028992,291.484192 
	C232.983887,291.729980 233.890411,292.163635 235.105469,292.774170 
z"/>
<path fill="#000000" opacity="1.000000" stroke="none" 
	d="
M284.024414,332.938721 
	C288.855499,332.824860 291.830566,334.954132 292.839630,339.148499 
	C293.840454,343.308533 292.840088,347.124207 288.873108,349.448425 
	C285.053772,351.686127 280.932312,350.865356 278.576538,347.744934 
	C276.762726,345.342377 275.932190,341.381195 276.340698,338.338104 
	C276.782562,335.046326 279.703003,332.761322 284.024414,332.938721 
z"/>
</svg>