<?xml version="1.0" encoding="iso-8859-1"?>
<!-- Uploaded to: SVG Repo, www.svgrepo.com, Generator: SVG Repo Mixer Tools -->
<svg height="800px" width="800px" version="1.1" id="Layer_1" xmlns="http://www.w3.org/2000/svg" xmlns:xlink="http://www.w3.org/1999/xlink" 
	 viewBox="0 0 512 512" xml:space="preserve">
<g transform="translate(1 1)">
	<polygon style="fill:#FFE100;" points="212.333,101.4 297.667,101.4 297.667,75.8 212.333,75.8 	"/>
	<g>
		<polygon style="fill:#FFA800;" points="314.733,101.4 195.267,101.4 172.227,144.067 337.773,144.067 		"/>
		<polygon style="fill:#FFA800;" points="255,33.133 220.867,75.8 289.133,75.8 		"/>
	</g>
	<g>
		<polygon style="fill:#FFE100;" points="161.133,314.733 348.867,314.733 348.867,144.067 161.133,144.067 		"/>
		<polygon style="fill:#FFE100;" points="186.733,502.467 323.267,502.467 323.267,314.733 186.733,314.733 		"/>
	</g>
	<path style="fill:#FFA800;" d="M306.2,229.4c0-28.16-23.04-51.2-51.2-51.2s-51.2,23.04-51.2,51.2s23.04,51.2,51.2,51.2
		S306.2,257.56,306.2,229.4"/>
	<g>
		<path style="fill:#0C0C0C;" d="M323.267,511H186.733c-5.12,0-8.533-3.413-8.533-8.533V314.733c0-5.12,3.413-8.533,8.533-8.533
			h136.533c5.12,0,8.533,3.413,8.533,8.533v187.733C331.8,507.587,328.387,511,323.267,511z M195.267,493.933h119.467V323.267
			H195.267V493.933z"/>
		<path style="fill:#0C0C0C;" d="M348.867,323.267H161.133c-5.12,0-8.533-3.413-8.533-8.533V144.067c0-5.12,3.413-8.533,8.533-8.533
			h187.733c5.12,0,8.533,3.413,8.533,8.533v42.667c0,5.12-3.413,8.533-8.533,8.533c-5.12,0-8.533-3.413-8.533-8.533V152.6H169.667
			v153.6h170.667V255c0-5.12,3.413-8.533,8.533-8.533c5.12,0,8.533,3.413,8.533,8.533v59.733
			C357.4,319.853,353.987,323.267,348.867,323.267z"/>
		<path style="fill:#0C0C0C;" d="M357.4,220.867c0,5.12-3.413,8.533-8.533,8.533c-5.12,0-8.533-3.413-8.533-8.533
			c0-5.12,3.413-8.533,8.533-8.533C353.987,212.333,357.4,215.747,357.4,220.867"/>
		<path style="fill:#0C0C0C;" d="M337.773,152.6H172.227c-3.413,0-5.973-1.707-7.68-4.267s-1.707-5.973,0-8.533l23.04-42.667
			c1.707-2.56,4.267-4.267,7.68-4.267h119.467c3.413,0,5.973,1.707,7.68,4.267l23.04,42.667c1.707,2.56,1.707,5.973,0,8.533
			C343.747,150.893,340.333,152.6,337.773,152.6z M186.733,135.533h136.533l-13.653-25.6H200.387L186.733,135.533z"/>
		<path style="fill:#0C0C0C;" d="M297.667,109.933h-85.333c-5.12,0-8.533-3.413-8.533-8.533V75.8c0-5.12,3.413-8.533,8.533-8.533
			h85.333c5.12,0,8.533,3.413,8.533,8.533v25.6C306.2,106.52,302.787,109.933,297.667,109.933z M220.867,92.867h68.267v-8.533
			h-68.267V92.867z"/>
		<path style="fill:#0C0C0C;" d="M289.133,84.333h-68.267c-3.413,0-5.973-1.707-7.68-5.12c-1.707-2.56-0.853-5.973,0.853-8.533
			l34.133-42.667c3.413-4.267,10.24-4.267,13.653,0L295.96,70.68c1.707,2.56,2.56,5.973,0.853,9.387
			C295.107,82.627,292.547,84.333,289.133,84.333z M238.787,67.267h32.427L255,46.787L238.787,67.267z"/>
		<path style="fill:#0C0C0C;" d="M255,237.933c-5.12,0-8.533-3.413-8.533-8.533v-25.6c0-5.12,3.413-8.533,8.533-8.533
			s8.533,3.413,8.533,8.533v25.6C263.533,234.52,260.12,237.933,255,237.933z"/>
		<path style="fill:#0C0C0C;" d="M272.067,237.933H255c-5.12,0-8.533-3.413-8.533-8.533c0-5.12,3.413-8.533,8.533-8.533h17.067
			c5.12,0,8.533,3.413,8.533,8.533C280.6,234.52,277.187,237.933,272.067,237.933z"/>
		<path style="fill:#0C0C0C;" d="M255,289.133c-33.28,0-59.733-26.453-59.733-59.733S221.72,169.667,255,169.667
			s59.733,26.453,59.733,59.733S288.28,289.133,255,289.133z M255,186.733c-23.893,0-42.667,18.773-42.667,42.667
			s18.773,42.667,42.667,42.667s42.667-18.773,42.667-42.667S278.893,186.733,255,186.733z"/>
		<path style="fill:#0C0C0C;" d="M255,476.867c-5.12,0-8.533-3.413-8.533-8.533V348.867c0-5.12,3.413-8.533,8.533-8.533
			s8.533,3.413,8.533,8.533v119.467C263.533,473.453,260.12,476.867,255,476.867z"/>
		<path style="fill:#0C0C0C;" d="M220.867,476.867c-5.12,0-8.533-3.413-8.533-8.533V348.867c0-5.12,3.413-8.533,8.533-8.533
			c5.12,0,8.533,3.413,8.533,8.533v119.467C229.4,473.453,225.987,476.867,220.867,476.867z"/>
		<path style="fill:#0C0C0C;" d="M289.133,476.867c-5.12,0-8.533-3.413-8.533-8.533V348.867c0-5.12,3.413-8.533,8.533-8.533
			c5.12,0,8.533,3.413,8.533,8.533v119.467C297.667,473.453,294.253,476.867,289.133,476.867z"/>
		<path style="fill:#0C0C0C;" d="M374.467,511H135.533c-5.12,0-8.533-3.413-8.533-8.533c0-5.12,3.413-8.533,8.533-8.533h238.933
			c5.12,0,8.533,3.413,8.533,8.533C383,507.587,379.587,511,374.467,511z"/>
		<path style="fill:#0C0C0C;" d="M255,38.253c-5.12,0-8.533-3.413-8.533-8.533V7.533C246.467,2.413,249.88-1,255-1
			s8.533,3.413,8.533,8.533V29.72C263.533,34.84,260.12,38.253,255,38.253z"/>
	</g>
</g>
</svg>