<?xml version="1.0" encoding="iso-8859-1"?>
<!-- Uploaded to: SVG Repo, www.svgrepo.com, Generator: SVG Repo Mixer Tools -->
<svg height="800px" width="800px" version="1.1" id="Layer_1" xmlns="http://www.w3.org/2000/svg" xmlns:xlink="http://www.w3.org/1999/xlink" 
	 viewBox="0 0 496 496" xml:space="preserve">
<path style="fill:#1D5A70;" d="M420.8,415.6c24-32,38.4-76.8,38.4-123.2c0-121.6-99.2-220.8-220.8-220.8S17.6,170,17.6,292.4
	c0,45.6,13.6,91.2,37.6,123.2H420.8z"/>
<path style="fill:#143E49;" d="M392,415.6c7.2-16,10.4-43.2,10.4-67.2c0-121.6-99.2-220.8-220.8-220.8C135.2,127.6,92,142,56,166.8
	C32,203.6,17.6,246,17.6,292.4c0,45.6,13.6,91.2,37.6,123.2H392z"/>
<g>
	<path style="fill:#FFB600;" d="M153.6,358.8c0,8.8-7.2,15.2-15.2,15.2L76,394.8c-8.8,0-4-27.2-4-36v-56c0-8.8,7.2-15.2,15.2-15.2
		H104c8.8,0,14.4,7.2,21.6,22.4L153.6,358.8z"/>
	<path style="fill:#FFB600;" d="M104,345.2c0,2.4-0.8,22.4-2.4,22.4l-48-14.4c-2.4,0-4.8-2.4-4.8-4.8v-32c-0.8-2.4,4.8-4.8,7.2-4.8
		h47.2c2.4,0,1.6,2.4,1.6,4.8v28.8H104z"/>
	<path style="fill:#FFB600;" d="M167.2,358.8c0,8.8-20.8,15.2-28.8,15.2l-51.2,20.8c-8.8,0-15.2-27.2-15.2-36v-56
		c0-8.8,7.2-15.2,15.2-15.2H104c8.8,0,14.4,7.2,21.6,22.4L167.2,358.8z"/>
	<path style="fill:#FFB600;" d="M257.6,387.6c0,15.2-12.8,28-28,28H118.4c-15.2,0-55.2-11.2-55.2-26.4l15.2-2.4
		c0-15.2,24.8-27.2,40.8-27.2h111.2C244.8,359.6,257.6,372.4,257.6,387.6L257.6,387.6z"/>
</g>
<g>
	<path style="fill:#FFA300;" d="M272.8,403.6c0,9.6-8,20-17.6,20H44.8c-9.6,0-4-10.4-4-20l0,0c0-9.6,8-20,17.6-20h196.8
		C264.8,383.6,272.8,394,272.8,403.6L272.8,403.6z"/>
	<path style="fill:#FFA300;" d="M255.2,383.6h-6.4c0,0,0,1.6,0,0.8c0-15.2-12.8-24.8-28-24.8h-68l-27.2-48
		c-7.2-15.2-13.6-24-21.6-24H87.2c-6.4,0-11.2,4-13.6,9.6C68,298,64,303.6,64,310v1.6h-8c-2.4,0-8,2.4-8,4.8v28c0,2.4,4,4.8,5.6,4.8
		l18.4,6.4v3.2c0,4.8,2.4,16,5.6,24.8c0,0.8,0-0.8,0,0h-4.8H59.2c-9.6,0-17.6,10.4-17.6,20s-6.4,20,4,20H256
		c9.6,0,17.6-10.4,17.6-20C272.8,394,264.8,383.6,255.2,383.6z"/>
	<path style="fill:#FFA300;" d="M255.2,383.6h-6.4c0,0,0,1.6,0,0.8c0-15.2-12.8-24.8-28-24.8h-68l-27.2-48
		c-7.2-15.2-13.6-24-21.6-24H87.2c-6.4,0-11.2,4-13.6,9.6C68,298,64,303.6,64,310v1.6H52c-2.4,0-4,2.4-4,4.8v28c0,2.4,4,4.8,5.6,4.8
		l18.4,6.4v3.2c0,4.8,2.4,16,5.6,24.8c0,0.8,0-0.8,0,0h-4.8H59.2c-9.6,0-17.6,10.4-17.6,20s-6.4,20,4,20H256
		c9.6,0,17.6-10.4,17.6-20C272.8,394,264.8,383.6,255.2,383.6z"/>
</g>
<g>
	<path style="fill:#E58B15;" d="M272.8,403.6c0-9.6-8-20-17.6-20l0,0h-6.4c0,0,0,1.6,0,0.8c0-15.2-12.8-24.8-28-24.8h-61.6h-6.4
		l-27.2-48c-7.2-15.2-13.6-24-21.6-24H93.6c-6.4,0-10.4,4-12.8,9.6C75.2,298,72,303.6,72,310v1.6h-9.6l0,0c-2.4,0-6.4,2.4-6.4,4.8
		v28c0,2.4,2.4,4,5.6,5.6l18.4,6.4v3.2c0,4.8,1.6,16,4.8,24.8c0,0.8-0.8-0.8-0.8,0h-4.8h-6.4h-8c-9.6,0-17.6,10.4-17.6,20
		s-6.4,20,4,20h204C264.8,423.6,272.8,413.2,272.8,403.6z"/>
	<path style="fill:#E58B15;" d="M272.8,403.6c0-9.6-8-20-17.6-20l0,0h-6.4c0,0,0,1.6,0,0.8c0-15.2-12.8-24.8-28-24.8h-61.6h-6.4
		l-27.2-48c-7.2-15.2-13.6-24-21.6-24H93.6c-6.4,0-10.4,4-12.8,9.6C75.2,298,72,303.6,72,310v1.6h-9.6h-3.2c-1.6,0-3.2,2.4-3.2,4.8
		v28c0,2.4,3.2,4,5.6,5.6l18.4,6.4v3.2c0,4.8,1.6,16,4.8,24.8c0,0.8-0.8-0.8-0.8,0h-4.8h-6.4h-8c-9.6,0-17.6,10.4-17.6,20
		s-6.4,20,4,20h204C264.8,423.6,272.8,413.2,272.8,403.6z"/>
</g>
<path style="fill:#D1712A;" d="M272.8,403.6c0-9.6-8-20-17.6-20l0,0h-6.4c0,0,0,1.6,0,0.8c0-15.2-12.8-24.8-28-24.8h-52h-6.4h-3.2
	h-6.4L125.6,310c-7.2-15.2-12.8-22.4-21.6-22.4h-0.8c-6.4,0-11.2,4-13.6,9.6C84,298,80,303.6,80,310v1.6h-8h-4c-2.4,0-4,2.4-4,4.8
	v28c0,2.4,2.4,4,5.6,4.8l18.4,6.4v3.2c0,4.8,2.4,16,5.6,24.8c0,0.8,0-0.8,0,0h-4.8h-6.4h-3.2h-4c-9.6,0-17.6,10.4-17.6,20
	s-6.4,20,4,20H256C264.8,423.6,272.8,413.2,272.8,403.6z"/>
<polygon style="fill:#E87118;" points="494.4,415.6 424,344.4 352.8,415.6 "/>
<polygon style="fill:#C65E09;" points="494.4,415.6 424,344.4 364,415.6 "/>
<polygon style="fill:#AA5507;" points="494.4,415.6 424,344.4 412.8,415.6 "/>
<polygon style="fill:#FFD400;" points="451.2,415.6 363.2,327.6 275.2,415.6 "/>
<polygon style="fill:#FFB600;" points="451.2,415.6 363.2,327.6 289.6,415.6 "/>
<polygon style="fill:#E58B15;" points="451.2,415.6 363.2,327.6 350.4,415.6 "/>
<path style="fill:#FFB600;" d="M496,416.4c0,4-3.2,7.2-7.2,7.2H7.2c-4,0-7.2-3.2-7.2-7.2v-1.6c0-4,3.2-7.2,7.2-7.2h481.6
	c4,0,7.2,3.2,7.2,7.2L496,416.4L496,416.4z"/>
<path style="fill:#C3D3D8;" d="M100,206c0-24.8,17.6-46.4,40.8-52c-4-0.8-8.8-1.6-12.8-1.6c-29.6,0-53.6,24-53.6,53.6
	s24,53.6,53.6,53.6c4.8,0,8.8-0.8,12.8-1.6C116.8,251.6,100,230.8,100,206z"/>
<path style="fill:#DAE5E8;" d="M132,152.4c-27.2,3.2-48,25.6-48,53.6c0,28,20.8,50.4,48,53.6c3.2,0,5.6-0.8,8-1.6
	c-23.2-5.6-40.8-27.2-40.8-52c0-24.8,17.6-46.4,40.8-52C137.6,153.2,135.2,152.4,132,152.4z"/>
<g>
	<polygon style="fill:#D1712A;" points="68,423.6 302.4,423.6 268.8,407.6 40,407.6 	"/>
	
		<ellipse transform="matrix(0.7122 -0.702 0.702 0.7122 -95.3731 170.9001)" style="fill:#D1712A;" cx="160.731" cy="201.76" rx="13.6" ry="0.8"/>
	
		<ellipse transform="matrix(0.7122 0.702 -0.702 0.7122 187.8008 -55.0993)" style="fill:#D1712A;" cx="161.096" cy="201.479" rx="13.6" ry="0.8"/>
	<ellipse style="fill:#D1712A;" cx="228.8" cy="221.2" rx="0.8" ry="10.4"/>
	<ellipse style="fill:#D1712A;" cx="228.8" cy="221.2" rx="10.4" ry="0.8"/>
</g>
<g>
	<ellipse style="fill:#FFB600;" cx="318.4" cy="182" rx="0.8" ry="10.4"/>
	<ellipse style="fill:#FFB600;" cx="318.4" cy="182" rx="10.4" ry="0.8"/>
</g>
<g>
	
		<ellipse transform="matrix(-0.7027 -0.7115 0.7115 -0.7027 274.6301 762.156)" style="fill:#DAE5E8;" cx="296.554" cy="323.699" rx="12" ry="0.8"/>
	
		<ellipse transform="matrix(0.7071 -0.7071 0.7071 0.7071 -141.8865 304.8662)" style="fill:#DAE5E8;" cx="297.063" cy="323.705" rx="12" ry="0.8"/>
</g>
</svg>