<svg version="1.1" id="Layer_1" xmlns="http://www.w3.org/2000/svg" xmlns:xlink="http://www.w3.org/1999/xlink" x="0px" y="0px"
	 width="100%" viewBox="0 0 500 500" enable-background="new 0 0 500 500" xml:space="preserve">
<path fill="#000000" opacity="1.000000" stroke="none" 
	d="
M276.000000,501.000000 
	C184.000015,501.000000 92.500046,501.000000 1.000049,501.000000 
	C1.000033,334.333405 1.000033,167.666794 1.000016,1.000139 
	C167.666565,1.000092 334.333130,1.000092 500.999756,1.000046 
	C500.999847,167.666519 500.999847,334.333038 500.999939,500.999786 
	C426.166656,501.000000 351.333344,501.000000 276.000000,501.000000 
M393.702332,242.926956 
	C394.514160,242.839905 395.326019,242.752838 397.046753,242.812164 
	C403.833954,242.804428 410.621735,242.844131 417.408112,242.766235 
	C420.234467,242.733810 422.842987,241.984390 422.901123,238.493729 
	C422.953644,235.340012 421.886871,232.884811 417.088959,233.036804 
	C411.716553,232.824677 406.344147,232.612534 400.971741,232.400406 
	C400.915741,231.824600 400.859772,231.248795 400.803772,230.672989 
	C404.672119,226.505524 408.488251,222.288025 412.421570,218.182800 
	C417.743622,212.628159 421.776306,206.775787 421.156494,198.377640 
	C420.553894,190.212860 415.641510,182.535919 408.948700,181.121185 
	C397.627441,178.728043 388.928864,182.189102 384.918549,190.661636 
	C383.220459,194.249100 382.423859,197.990585 386.480377,200.266342 
	C390.679565,202.622147 392.070099,199.109421 393.755096,196.045212 
	C396.839478,190.436234 402.031342,189.111435 407.698029,192.096344 
	C411.378662,194.035126 412.157104,199.017609 409.343628,204.410294 
	C408.141785,206.713959 406.647125,208.959045 404.884888,210.859192 
	C398.588745,217.648193 392.113464,224.270874 385.720795,230.970612 
	C381.964752,234.906998 382.049896,238.903000 386.371246,242.599442 
	C388.550812,242.640884 390.730347,242.682327 393.702332,242.926956 
M91.854301,203.990372 
	C96.606773,203.663483 101.354851,203.178192 106.112724,203.046524 
	C113.410126,202.844604 120.714256,202.886017 128.747650,202.933792 
	C130.094879,201.016968 132.647858,199.007263 132.509018,197.204926 
	C132.296509,194.446198 129.769241,192.616302 126.414825,193.071411 
	C124.965439,193.268082 123.476067,193.170013 121.503563,193.071609 
	C121.335884,193.114136 121.168205,193.156677 120.073624,193.051071 
	C109.384277,193.101013 98.694931,193.150955 87.503838,193.062988 
	C87.336258,193.107727 87.168686,193.152466 86.209930,193.057709 
	C85.142319,193.096848 84.074707,193.135986 82.504333,193.043167 
	C82.337601,193.090271 82.170868,193.137390 81.289513,193.186050 
	C77.904228,195.045212 76.597214,197.820419 77.030251,201.707748 
	C77.341797,204.504395 77.094139,207.363510 77.093468,210.194748 
	C77.088097,232.677948 77.063560,255.161163 77.089661,277.644318 
	C77.096039,283.140472 79.120697,285.788696 83.480904,285.801575 
	C97.967171,285.844299 112.458115,285.925507 126.935181,285.539215 
	C128.888580,285.487091 130.772903,282.846039 132.689209,281.403778 
	C131.090637,279.364960 129.758347,276.991302 127.785782,275.422791 
	C126.734459,274.586884 124.576294,275.083160 122.917542,275.080536 
	C111.322388,275.062347 99.727188,275.070923 86.999641,275.070923 
	C86.999641,266.622223 86.913857,258.723755 87.040634,250.828690 
	C87.093491,247.536957 88.713486,245.838943 92.401756,245.923782 
	C101.057228,246.122910 109.720848,245.946503 118.381012,245.972870 
	C121.981720,245.983826 123.955101,244.062637 124.147552,240.695221 
	C124.292450,238.159805 119.998009,235.682816 117.030701,236.048035 
	C113.624100,236.467300 110.189690,236.942398 106.770889,236.917053 
	C101.178314,236.875595 95.588585,236.449051 89.133102,235.987244 
	C88.727432,235.560074 87.990135,235.150955 87.965759,234.703018 
	C87.592239,227.841385 87.195305,220.976868 87.066696,214.108109 
	C87.015129,211.354263 87.373802,208.532913 88.026520,205.859680 
	C88.241287,204.980072 89.968399,204.469727 91.854301,203.990372 
M266.012115,250.764053 
	C266.034363,246.190308 265.297211,241.434570 269.395874,237.912460 
	C272.621216,235.140808 275.620605,232.077133 279.016144,229.538864 
	C285.560486,224.646774 290.830139,225.996140 294.077026,233.985931 
	C294.175751,248.616272 294.124634,263.250488 294.502197,277.873627 
	C294.575928,280.727814 296.313843,283.539093 297.284180,286.370148 
	C298.133484,286.477173 298.982788,286.584229 299.832092,286.691254 
	C301.451813,284.221497 304.414459,281.780365 304.467896,279.277161 
	C304.759796,265.598114 304.222809,251.903961 304.202209,238.214676 
	C304.189789,229.948929 303.073456,222.389175 294.608246,217.565201 
	C294.095673,217.497818 293.583069,217.430420 292.561829,217.097168 
	C292.370758,217.087662 292.179657,217.078140 291.352844,216.563477 
	C280.026001,213.755585 272.899811,221.947205 264.821991,227.409943 
	C260.781433,220.295975 255.990982,216.024277 247.696289,215.944626 
	C239.526779,215.866180 234.669281,220.990829 229.268784,226.373962 
	C228.921722,223.799698 229.198807,221.812256 228.359360,220.594406 
	C227.158539,218.852325 225.248718,216.748901 223.439560,216.538605 
	C221.925674,216.362640 219.719666,218.391907 218.575089,219.986572 
	C217.676147,221.238968 217.698502,223.320419 217.709824,225.030960 
	C217.779251,235.532852 217.979355,246.033829 218.101349,256.535492 
	C218.192566,264.387512 218.231689,272.240143 218.263977,280.789978 
	C218.712067,284.247192 221.191727,285.852020 224.137711,285.499756 
	C227.520691,285.095215 228.607513,282.424622 228.577194,278.963501 
	C228.475311,267.337250 228.638275,255.708664 228.918030,243.378357 
	C233.446808,238.257156 237.470215,232.526001 242.671494,228.216461 
	C246.519196,225.028412 254.605469,225.667236 254.968948,232.407806 
	C255.538483,242.969284 255.182022,253.578857 255.303360,264.167084 
	C255.366791,269.701874 255.266403,275.273560 255.883835,280.756073 
	C256.395264,285.297180 261.458008,286.852966 264.108032,283.130127 
	C265.739288,280.838440 265.315186,277.083710 265.945953,273.503235 
	C265.903625,273.341919 265.861267,273.180603 265.963226,272.301300 
	C265.918854,271.086334 265.874481,269.871338 265.873932,267.863708 
	C265.475555,267.591980 265.077179,267.320251 264.680603,266.887970 
	C264.680603,266.887970 264.519012,266.672943 265.064301,266.242584 
	C265.242004,265.600250 265.419678,264.957916 265.945618,263.895142 
	C265.919891,259.799103 265.894135,255.703064 266.012115,250.764053 
M152.414032,230.048172 
	C151.734009,230.377457 151.053970,230.706726 149.963776,231.599701 
	C147.443497,236.493423 149.068115,239.838486 154.433609,239.926437 
	C166.177811,240.118912 177.930954,240.137177 189.670929,239.844742 
	C191.601349,239.796661 194.179611,238.217056 195.148956,236.573105 
	C195.822266,235.431213 194.252045,232.966446 193.325211,230.437225 
	C190.913864,230.029480 188.508362,229.315460 186.090134,229.269394 
	C177.626984,229.108185 169.158737,229.110962 160.694000,229.199478 
	C158.140808,229.226166 155.592636,229.733887 153.007858,229.993164 
	C153.007858,229.993164 153.016052,230.036591 152.414032,230.048172 
M349.764648,226.725586 
	C354.702362,226.498459 358.975189,227.647415 362.934570,231.054520 
	C364.476654,232.381485 368.372009,232.660461 370.167999,231.628571 
	C373.212799,229.879135 372.034821,226.723679 370.137848,224.301056 
	C365.982727,218.994614 360.209320,216.852982 353.743286,216.166718 
	C336.752563,214.363480 322.387573,228.677460 319.362396,243.362732 
	C315.197571,263.580139 325.942352,283.789520 345.999786,286.233582 
	C353.087006,287.097198 360.841278,287.533478 367.776154,281.983459 
	C371.875702,279.875885 373.466736,276.044067 371.123352,272.550781 
	C368.477203,268.606201 364.963867,271.130493 361.816833,273.304199 
	C356.912201,276.691895 351.406281,276.690002 345.733063,275.479279 
	C334.388977,273.058380 327.944244,260.942932 328.900177,249.568329 
	C329.917816,237.459045 336.514526,228.934052 349.764648,226.725586 
M150.212784,255.700851 
	C148.299896,261.121338 149.912628,263.693848 155.475555,263.730652 
	C166.787720,263.805511 178.102371,263.646393 189.412399,263.819214 
	C193.248001,263.877777 196.309280,263.168579 196.149445,258.746735 
	C196.008713,254.853287 193.470383,253.098877 189.480927,253.134186 
	C178.170624,253.234344 166.857834,253.101624 155.549072,253.268326 
	C153.936844,253.292114 152.341583,254.467712 150.212784,255.700851 
z"/>
<path fill="#FEF891" opacity="1.000000" stroke="none" 
	d="
M265.597351,264.315613 
	C265.419678,264.957916 265.242004,265.600250 264.340210,266.756042 
	C263.456757,269.909271 263.520172,272.587646 263.071136,275.177185 
	C262.674377,277.465271 261.706451,279.654266 260.990723,281.887024 
	C260.286987,279.555206 259.013184,277.232849 258.974274,274.889984 
	C258.761292,262.072327 259.032806,249.246002 258.779633,236.429749 
	C258.581024,226.374115 251.228867,220.976120 242.803787,224.857147 
	C234.969925,228.465866 230.488770,235.756897 225.778229,242.602188 
	C225.441071,243.092133 225.445221,243.881088 225.446915,244.530609 
	C225.478897,256.762939 225.534485,268.995239 225.317139,281.449219 
	C223.683258,281.777679 222.317383,281.884491 220.962738,281.523315 
	C220.874390,262.359497 220.774780,243.663635 220.720276,224.734863 
	C220.765366,224.501953 220.670563,224.037079 220.741547,223.673676 
	C221.792587,222.072098 222.772614,220.833923 223.752655,219.595734 
	C224.275101,220.996902 225.063171,222.361176 225.263977,223.807022 
	C225.666534,226.705124 225.748062,229.647827 226.040527,233.643631 
	C232.904373,227.377472 237.156036,219.717880 246.229843,218.912552 
	C256.248657,218.023376 260.897888,223.992142 263.365082,233.348618 
	C266.896088,230.560196 269.833160,228.240829 273.027527,225.828918 
	C273.513336,225.460968 273.741882,225.185532 274.114746,224.664398 
	C274.840881,223.944733 275.422699,223.470810 276.207947,222.900238 
	C276.667084,222.635788 276.869690,222.418427 277.225891,221.902893 
	C278.248352,221.423691 279.064056,221.193146 280.098053,220.894440 
	C280.595947,220.687820 280.815491,220.484573 281.377197,220.091431 
	C285.173950,219.662994 288.568542,219.359604 292.095581,219.346558 
	C292.856140,220.689377 293.484192,221.741821 293.995972,222.882858 
	C293.982361,222.938416 294.085022,222.905411 294.546143,222.845215 
	C298.732300,225.764603 301.236450,229.363251 301.221283,234.462570 
	C301.178772,248.769974 301.242004,263.077667 301.261139,277.385254 
	C301.261810,277.884186 301.415985,278.492188 301.190765,278.861694 
	C300.516357,279.967896 299.688934,280.980835 298.921234,282.030151 
	C298.268494,281.038177 297.411346,280.118469 297.026978,279.031586 
	C296.713318,278.144531 296.966370,277.057709 296.964844,276.059479 
	C296.944305,262.749695 296.987213,249.439133 296.825806,236.131058 
	C296.804260,234.354874 295.747162,232.591248 295.167572,230.458160 
	C294.170227,225.591537 290.916351,224.394104 286.517273,224.305557 
	C285.524231,224.165283 284.851349,224.123566 283.825623,224.054794 
	C282.644043,224.347046 281.815308,224.666351 280.704529,225.172958 
	C275.958130,229.261703 271.493805,233.163116 266.743774,237.186371 
	C265.657318,238.222122 264.856628,239.136047 263.945068,240.442978 
	C263.738739,243.935699 263.643219,247.035416 263.451355,250.483246 
	C263.419525,251.306732 263.484070,251.782089 263.490295,252.377914 
	C263.431976,252.498367 263.551117,252.738037 263.441833,253.219940 
	C263.263458,255.632767 262.848694,257.634674 263.226349,259.473846 
	C263.576294,261.178192 264.773346,262.708618 265.597351,264.315613 
z"/>
<path fill="#EBC529" opacity="1.000000" stroke="none" 
	d="
M83.007095,193.175110 
	C84.074707,193.135986 85.142319,193.096848 86.707855,193.251465 
	C87.205780,193.445206 87.651291,193.505127 87.651291,193.505127 
	C87.651291,193.505127 88.005585,193.200882 88.005585,193.200882 
	C98.694931,193.150955 109.384277,193.101013 120.638947,193.249924 
	C121.204277,193.448776 121.650032,193.510666 121.650032,193.510666 
	C121.650032,193.510666 122.004860,193.205826 122.004860,193.205826 
	C123.476067,193.170013 124.965439,193.268082 126.414825,193.071411 
	C129.769241,192.616302 132.296509,194.446198 132.509018,197.204926 
	C132.647858,199.007263 130.094879,201.016968 128.377228,202.578247 
	C128.001373,201.821747 127.995926,201.420792 128.053665,200.797714 
	C128.116867,200.575607 128.231277,200.128418 128.500992,199.832703 
	C129.959991,195.689468 127.265259,195.882462 124.891869,195.879990 
	C111.471397,195.865982 98.050728,195.860764 84.630630,195.938797 
	C83.399017,195.945953 82.170937,196.560410 80.694687,197.127167 
	C80.341759,198.237640 80.235359,199.113846 80.078072,200.362793 
	C80.025826,201.486557 80.024460,202.237595 79.975975,203.456635 
	C79.984680,215.629333 80.040504,227.334030 80.058807,239.487976 
	C80.054611,242.943817 80.087936,245.950378 80.053635,249.425873 
	C80.006424,258.266785 80.026840,266.638763 80.007065,275.426758 
	C80.275108,282.581451 80.645035,282.949554 87.245079,282.861328 
	C87.670265,282.861786 87.839470,282.831604 88.474945,282.843506 
	C101.935921,282.855133 114.930626,282.824707 128.235931,282.726868 
	C128.788254,281.679504 129.509216,280.103973 129.177353,279.836975 
	C128.347839,279.169556 127.040550,279.095917 125.461609,278.788727 
	C113.308968,278.795807 101.619347,278.748993 89.930634,278.830933 
	C86.493546,278.855042 84.043259,278.001465 83.983376,273.570374 
	C84.040146,265.065521 84.034805,257.030457 84.046730,248.589569 
	C83.876190,245.923233 83.908669,243.810410 87.388321,243.845673 
	C88.480789,243.839371 89.210991,243.753418 90.329422,243.718338 
	C91.498703,243.750519 92.279778,243.731827 93.512856,243.806549 
	C98.950554,243.830078 103.936234,243.760193 109.335541,243.737427 
	C110.855789,243.747849 111.962410,243.711151 113.441467,243.768219 
	C115.301094,243.633636 116.788300,243.405289 118.648956,243.161255 
	C119.593872,242.172043 120.165337,241.198502 120.736801,240.224960 
	C119.745422,239.834290 118.744003,239.094894 117.764702,239.123108 
	C115.492035,239.188583 113.223404,239.911957 110.964912,239.859680 
	C102.345352,239.660141 93.730461,239.259125 84.984314,238.612640 
	C84.735214,237.186752 84.615608,236.081619 84.789032,235.085556 
	C86.720596,235.524734 88.359131,235.854843 89.997658,236.184952 
	C95.588585,236.449051 101.178314,236.875595 106.770889,236.917053 
	C110.189690,236.942398 113.624100,236.467300 117.030701,236.048035 
	C119.998009,235.682816 124.292450,238.159805 124.147552,240.695221 
	C123.955101,244.062637 121.981720,245.983826 118.381012,245.972870 
	C109.720848,245.946503 101.057228,246.122910 92.401756,245.923782 
	C88.713486,245.838943 87.093491,247.536957 87.040634,250.828690 
	C86.913857,258.723755 86.999641,266.622223 86.999641,275.070923 
	C99.727188,275.070923 111.322388,275.062347 122.917542,275.080536 
	C124.576294,275.083160 126.734459,274.586884 127.785782,275.422791 
	C129.758347,276.991302 131.090637,279.364960 132.689209,281.403778 
	C130.772903,282.846039 128.888580,285.487091 126.935181,285.539215 
	C112.458115,285.925507 97.967171,285.844299 83.480904,285.801575 
	C79.120697,285.788696 77.096039,283.140472 77.089661,277.644318 
	C77.063560,255.161163 77.088097,232.677948 77.093468,210.194748 
	C77.094139,207.363510 77.341797,204.504395 77.030251,201.707748 
	C76.597214,197.820419 77.904228,195.045212 81.750038,193.308136 
	C82.210564,193.430222 82.656456,193.483093 82.656456,193.483093 
	C82.656456,193.483093 83.007095,193.175110 83.007095,193.175110 
z"/>
<path fill="#E4BF22" opacity="1.000000" stroke="none" 
	d="
M385.919617,242.038361 
	C382.049896,238.903000 381.964752,234.906998 385.720795,230.970612 
	C392.113464,224.270874 398.588745,217.648193 404.884888,210.859192 
	C406.647125,208.959045 408.141785,206.713959 409.343628,204.410294 
	C412.157104,199.017609 411.378662,194.035126 407.698029,192.096344 
	C402.031342,189.111435 396.839478,190.436234 393.755096,196.045212 
	C392.070099,199.109421 390.679565,202.622147 386.480377,200.266342 
	C382.423859,197.990585 383.220459,194.249100 384.918549,190.661636 
	C388.928864,182.189102 397.627441,178.728043 408.948700,181.121185 
	C415.641510,182.535919 420.553894,190.212860 421.156494,198.377640 
	C421.776306,206.775787 417.743622,212.628159 412.421570,218.182800 
	C408.488251,222.288025 404.672119,226.505524 400.803772,230.672989 
	C400.859772,231.248795 400.915741,231.824600 400.971741,232.400406 
	C406.344147,232.612534 411.716553,232.824677 417.445892,233.457520 
	C416.202576,234.432343 414.602356,234.986450 412.550018,235.637360 
	C409.016083,235.677917 405.934235,235.621689 402.776550,235.505966 
	C402.511017,235.363403 402.334869,235.391449 401.736267,235.608444 
	C398.961395,235.686325 396.622528,235.686325 394.283691,235.686325 
	C394.802277,233.174789 395.637909,232.013168 396.606781,230.975983 
	C401.946472,225.259659 407.408112,219.654663 412.655457,213.855408 
	C418.303101,207.613724 420.751953,200.551239 417.341614,192.279434 
	C414.728485,185.941330 409.486298,183.477753 403.141083,183.063843 
	C396.461975,182.628143 389.521759,186.489365 387.607635,191.845810 
	C387.008881,193.521332 387.883972,195.723511 388.084412,197.684631 
	C389.209442,196.533218 390.640381,195.554001 391.403229,194.198730 
	C393.876984,189.804047 397.581818,188.029846 402.498627,187.916275 
	C407.201874,187.807632 410.507660,189.894485 412.760986,193.764160 
	C415.439514,198.364029 414.044891,205.080185 409.272461,210.260910 
	C403.074585,216.989059 396.641876,223.501892 390.488007,230.269058 
	C387.651764,233.387924 384.009705,236.594269 387.288086,241.605423 
	C386.529724,241.851883 386.224670,241.945114 385.919617,242.038361 
z"/>
<path fill="#E1BC24" opacity="1.000000" stroke="none" 
	d="
M367.087036,282.185303 
	C360.841278,287.533478 353.087006,287.097198 345.999786,286.233582 
	C325.942352,283.789520 315.197571,263.580139 319.362396,243.362732 
	C322.387573,228.677460 336.752563,214.363480 353.743286,216.166718 
	C360.209320,216.852982 365.982727,218.994614 370.137848,224.301056 
	C372.034821,226.723679 373.212799,229.879135 370.167999,231.628571 
	C368.372009,232.660461 364.476654,232.381485 362.934570,231.054520 
	C358.975189,227.647415 354.702362,226.498459 349.129639,226.485748 
	C347.992706,225.811172 347.490845,225.376419 347.309570,224.707382 
	C353.209686,223.627487 358.449860,224.053085 363.213013,227.651199 
	C364.612091,228.708069 366.755219,228.779922 368.557343,229.303207 
	C367.791199,227.606827 367.133148,225.847931 366.205811,224.244781 
	C365.834869,223.603500 364.880463,223.289536 364.175110,222.853363 
	C354.609436,216.938400 345.131927,218.024185 335.963226,223.604004 
	C324.981628,230.287094 319.607239,244.400772 322.199615,259.085785 
	C324.539124,272.338135 332.722534,282.129608 347.246246,283.316406 
	C354.178192,283.882843 360.759644,283.203064 366.974854,280.275299 
	C367.026794,281.166718 367.056915,281.676025 367.087036,282.185303 
z"/>
<path fill="#E1B71F" opacity="1.000000" stroke="none" 
	d="
M276.004547,222.996887 
	C275.422699,223.470810 274.840881,223.944733 273.864166,224.764923 
	C273.236267,225.381287 273.003265,225.651367 272.770233,225.921448 
	C269.833160,228.240829 266.896088,230.560196 263.365082,233.348618 
	C260.897888,223.992142 256.248657,218.023376 246.229843,218.912552 
	C237.156036,219.717880 232.904373,227.377472 226.040527,233.643631 
	C225.748062,229.647827 225.666534,226.705124 225.263977,223.807022 
	C225.063171,222.361176 224.275101,220.996902 223.752655,219.595734 
	C222.772614,220.833923 221.792587,222.072098 220.647446,223.775101 
	C220.360275,224.523788 220.424545,224.766403 220.675171,224.967758 
	C220.774780,243.663635 220.874390,262.359497 220.681442,281.481445 
	C219.690598,281.302490 218.992294,280.697479 218.294006,280.092499 
	C218.231689,272.240143 218.192566,264.387512 218.101349,256.535492 
	C217.979355,246.033829 217.779251,235.532852 217.709824,225.030960 
	C217.698502,223.320419 217.676147,221.238968 218.575089,219.986572 
	C219.719666,218.391907 221.925674,216.362640 223.439560,216.538605 
	C225.248718,216.748901 227.158539,218.852325 228.359360,220.594406 
	C229.198807,221.812256 228.921722,223.799698 229.268784,226.373962 
	C234.669281,220.990829 239.526779,215.866180 247.696289,215.944626 
	C255.990982,216.024277 260.781433,220.295975 264.821991,227.409943 
	C272.899811,221.947205 280.026001,213.755585 291.669495,217.147095 
	C291.978455,218.172546 291.970764,218.614395 291.963104,219.056213 
	C288.568542,219.359604 285.173950,219.662994 281.153198,220.140900 
	C280.244904,220.464722 280.029144,220.680435 279.879761,220.962585 
	C279.064056,221.193146 278.248352,221.423691 276.997467,221.957611 
	C276.277161,222.431076 276.091248,222.676376 276.004547,222.996887 
z"/>
<path fill="#EBC529" opacity="1.000000" stroke="none" 
	d="
M225.585129,281.227539 
	C225.534485,268.995239 225.478897,256.762939 225.446915,244.530609 
	C225.445221,243.881088 225.441071,243.092133 225.778229,242.602188 
	C230.488770,235.756897 234.969925,228.465866 242.803787,224.857147 
	C251.228867,220.976120 258.581024,226.374115 258.779633,236.429749 
	C259.032806,249.246002 258.761292,262.072327 258.974274,274.889984 
	C259.013184,277.232849 260.286987,279.555206 260.990723,281.887024 
	C261.706451,279.654266 262.674377,277.465271 263.071136,275.177185 
	C263.520172,272.587646 263.456757,269.909271 264.067566,266.971222 
	C264.519012,266.672943 264.680603,266.887970 264.622986,267.370972 
	C264.986908,268.121460 265.408508,268.388916 265.830109,268.656372 
	C265.874481,269.871338 265.918854,271.086334 265.769836,272.758301 
	C265.416534,273.531036 265.495667,273.787903 265.813904,273.985870 
	C265.315186,277.083710 265.739288,280.838440 264.108032,283.130127 
	C261.458008,286.852966 256.395264,285.297180 255.883835,280.756073 
	C255.266403,275.273560 255.366791,269.701874 255.303360,264.167084 
	C255.182022,253.578857 255.538483,242.969284 254.968948,232.407806 
	C254.605469,225.667236 246.519196,225.028412 242.671494,228.216461 
	C237.470215,232.526001 233.446808,238.257156 228.590607,244.069885 
	C228.142776,254.770920 228.151306,264.784973 227.800201,274.786407 
	C227.724014,276.956696 226.357391,279.081696 225.585129,281.227539 
z"/>
<path fill="#E1BC24" opacity="1.000000" stroke="none" 
	d="
M292.095581,219.346573 
	C291.970764,218.614395 291.978455,218.172546 291.987366,217.399658 
	C292.179657,217.078140 292.370758,217.087662 292.996979,217.389023 
	C293.892487,217.805267 294.352844,217.929657 294.813202,218.054047 
	C303.073456,222.389175 304.189789,229.948929 304.202209,238.214676 
	C304.222809,251.903961 304.759796,265.598114 304.467896,279.277161 
	C304.414459,281.780365 301.451813,284.221497 299.832092,286.691254 
	C298.982788,286.584229 298.133484,286.477173 297.284180,286.370148 
	C296.313843,283.539093 294.575928,280.727814 294.502197,277.873627 
	C294.124634,263.250488 294.175751,248.616272 294.156921,233.235931 
	C294.547760,231.931229 294.858704,231.376526 295.169647,230.821808 
	C295.747162,232.591248 296.804260,234.354874 296.825806,236.131058 
	C296.987213,249.439133 296.944305,262.749695 296.964844,276.059479 
	C296.966370,277.057709 296.713318,278.144531 297.026978,279.031586 
	C297.411346,280.118469 298.268494,281.038177 298.921234,282.030151 
	C299.688934,280.980835 300.516357,279.967896 301.190765,278.861694 
	C301.415985,278.492188 301.261810,277.884186 301.261139,277.385254 
	C301.242004,263.077667 301.178772,248.769974 301.221283,234.462570 
	C301.236450,229.363251 298.732300,225.764603 294.502075,222.850021 
	C294.099548,222.882019 294.112274,222.794281 294.112274,222.794281 
	C293.484192,221.741821 292.856140,220.689377 292.095581,219.346573 
z"/>
<path fill="#E1BC24" opacity="1.000000" stroke="none" 
	d="
M150.475632,255.405548 
	C152.341583,254.467712 153.936844,253.292114 155.549072,253.268326 
	C166.857834,253.101624 178.170624,253.234344 189.480927,253.134186 
	C193.470383,253.098877 196.008713,254.853287 196.149445,258.746735 
	C196.309280,263.168579 193.248001,263.877777 189.412399,263.819214 
	C178.102371,263.646393 166.787720,263.805511 155.475555,263.730652 
	C149.912628,263.693848 148.299896,261.121338 150.475632,255.405548 
M158.715012,261.022034 
	C169.023636,261.032776 179.333145,261.107513 189.639572,260.962189 
	C190.757141,260.946442 191.856750,259.657623 192.964706,258.959320 
	C191.879623,258.243622 190.822083,256.964478 189.704681,256.909851 
	C184.894150,256.674713 180.066055,256.799438 175.244354,256.792419 
	C168.759918,256.782990 162.273315,256.684235 155.792938,256.841766 
	C154.568634,256.871521 153.369064,257.919373 152.158096,258.497467 
	C153.366531,259.318939 154.526703,260.230225 155.806824,260.918365 
	C156.330154,261.199677 157.113083,260.998077 158.715012,261.022034 
z"/>
<path fill="#E1B71F" opacity="1.000000" stroke="none" 
	d="
M367.431580,282.084381 
	C367.056915,281.676025 367.026794,281.166718 367.164398,279.969482 
	C367.738495,277.675201 368.144867,276.068848 368.551239,274.462494 
	C367.094086,274.750183 365.364441,274.629272 364.223022,275.390411 
	C355.370300,281.293701 342.088257,280.166473 334.355438,272.845917 
	C324.090729,263.128510 324.025909,244.517807 331.124023,234.693634 
	C334.884125,229.489395 339.634613,224.813278 346.988953,224.941666 
	C347.490845,225.376419 347.992706,225.811172 348.687805,226.410858 
	C336.514526,228.934052 329.917816,237.459045 328.900177,249.568329 
	C327.944244,260.942932 334.388977,273.058380 345.733063,275.479279 
	C351.406281,276.690002 356.912201,276.691895 361.816833,273.304199 
	C364.963867,271.130493 368.477203,268.606201 371.123352,272.550781 
	C373.466736,276.044067 371.875702,279.875885 367.431580,282.084381 
z"/>
<path fill="#EBC529" opacity="1.000000" stroke="none" 
	d="
M193.684174,231.092712 
	C194.252045,232.966446 195.822266,235.431213 195.148956,236.573105 
	C194.179611,238.217056 191.601349,239.796661 189.670929,239.844742 
	C177.930954,240.137177 166.177811,240.118912 154.433609,239.926437 
	C149.068115,239.838486 147.443497,236.493423 150.426453,231.358398 
	C151.598114,230.756912 152.307083,230.396759 153.016052,230.036591 
	C153.016052,230.036591 153.007858,229.993164 153.380539,230.025223 
	C154.844482,230.872681 155.935745,231.688080 156.633881,232.606750 
	C154.658569,233.513474 153.076385,234.316910 151.494217,235.120346 
	C152.502701,235.748734 153.505112,236.912216 154.520615,236.923752 
	C166.251709,237.057129 177.985336,237.077484 189.716980,236.976288 
	C192.494598,236.952316 193.772812,235.569489 192.012207,232.534882 
	C192.602753,231.876373 193.143463,231.484543 193.684174,231.092712 
z"/>
<path fill="#E1B71F" opacity="1.000000" stroke="none" 
	d="
M193.504684,230.764969 
	C193.143463,231.484543 192.602753,231.876373 191.627655,232.563965 
	C190.428818,232.759720 189.664398,232.659683 188.744919,232.435989 
	C188.104187,232.373840 187.618500,232.435364 186.663391,232.576965 
	C178.751678,232.602234 171.309357,232.547394 163.710327,232.382187 
	C163.080048,232.345352 162.606491,232.418884 161.711716,232.568329 
	C159.869324,232.597321 158.448166,232.550400 157.027008,232.503479 
	C155.935745,231.688080 154.844482,230.872681 153.397705,230.039276 
	C155.592636,229.733887 158.140808,229.226166 160.694000,229.199478 
	C169.158737,229.110962 177.626984,229.108185 186.090134,229.269394 
	C188.508362,229.315460 190.913864,230.029480 193.504684,230.764969 
z"/>
<path fill="#E1B71F" opacity="1.000000" stroke="none" 
	d="
M295.167572,230.458160 
	C294.858704,231.376526 294.547760,231.931229 294.104858,232.772324 
	C290.830139,225.996140 285.560486,224.646774 279.016144,229.538864 
	C275.620605,232.077133 272.621216,235.140808 269.395874,237.912460 
	C265.297211,241.434570 266.034363,246.190308 265.645874,250.999374 
	C264.702332,250.868179 264.125031,250.501648 263.547729,250.135132 
	C263.643219,247.035416 263.738739,243.935699 264.223389,240.539978 
	C265.418152,239.184158 266.223816,238.124359 267.029480,237.064545 
	C271.493805,233.163116 275.958130,229.261703 281.096008,225.176453 
	C282.554932,225.002136 283.340302,225.011673 284.416504,225.020447 
	C285.417358,224.814484 286.127411,224.609299 286.837463,224.404114 
	C290.916351,224.394104 294.170227,225.591537 295.167572,230.458160 
z"/>
<path fill="#E1B71F" opacity="1.000000" stroke="none" 
	d="
M89.565384,236.086090 
	C88.359131,235.854843 86.720596,235.524734 84.744576,234.687393 
	C84.323608,223.798599 84.240143,213.417053 84.340279,202.737457 
	C86.009018,202.016953 87.494141,201.594498 89.175125,201.382248 
	C89.915306,202.325150 90.459633,203.057831 91.003967,203.790527 
	C89.968399,204.469727 88.241287,204.980072 88.026520,205.859680 
	C87.373802,208.532913 87.015129,211.354263 87.066696,214.108109 
	C87.195305,220.976868 87.592239,227.841385 87.965759,234.703018 
	C87.990135,235.150955 88.727432,235.560074 89.565384,236.086090 
z"/>
<path fill="#E4BF22" opacity="1.000000" stroke="none" 
	d="
M91.429138,203.890442 
	C90.459633,203.057831 89.915306,202.325150 89.640839,201.304077 
	C101.617561,200.922516 113.324425,200.829346 125.394943,200.815781 
	C126.502548,200.936859 127.246513,200.978348 127.990471,201.019836 
	C127.995926,201.420792 128.001373,201.821747 128.011169,202.523438 
	C120.714256,202.886017 113.410126,202.844604 106.112724,203.046524 
	C101.354851,203.178192 96.606773,203.663483 91.429138,203.890442 
z"/>
<path fill="#E1BC24" opacity="1.000000" stroke="none" 
	d="
M413.002106,235.540573 
	C414.602356,234.986450 416.202576,234.432343 417.899414,233.567108 
	C421.886871,232.884811 422.953644,235.340012 422.901123,238.493729 
	C422.842987,241.984390 420.234467,242.733810 417.408112,242.766235 
	C410.621735,242.844131 403.833954,242.804428 396.932861,242.536850 
	C399.948059,242.172012 403.093201,242.245163 406.200989,241.938995 
	C408.492889,241.713196 410.736053,240.992218 413.430817,240.392502 
	C415.897156,239.466599 417.933594,238.640091 419.970062,237.813568 
	C417.970795,237.129440 415.972961,236.441010 413.970764,235.765610 
	C413.658142,235.660156 413.325500,235.614090 413.002106,235.540573 
z"/>
<path fill="#E1BC24" opacity="1.000000" stroke="none" 
	d="
M225.317139,281.449219 
	C226.357391,279.081696 227.724014,276.956696 227.800201,274.786407 
	C228.151306,264.784973 228.142776,254.770920 228.481537,244.421188 
	C228.638275,255.708664 228.475311,267.337250 228.577194,278.963501 
	C228.607513,282.424622 227.520691,285.095215 224.137711,285.499756 
	C221.191727,285.852020 218.712067,284.247192 218.278992,280.441223 
	C218.992294,280.697479 219.690598,281.302490 220.670197,281.949371 
	C222.317383,281.884491 223.683258,281.777679 225.317139,281.449219 
z"/>
<path fill="#E4BF22" opacity="1.000000" stroke="none" 
	d="
M413.000916,240.491882 
	C410.736053,240.992218 408.492889,241.713196 406.200989,241.938995 
	C403.093201,242.245163 399.948059,242.172012 396.478394,242.463654 
	C395.326019,242.752838 394.514160,242.839905 392.968994,242.614532 
	C390.925476,242.015640 389.615265,241.729172 388.693115,241.281067 
	C397.054382,240.910263 405.027649,240.701080 413.000916,240.491882 
z"/>
<path fill="#E4BF22" opacity="1.000000" stroke="none" 
	d="
M263.451355,250.483246 
	C264.125031,250.501648 264.702332,250.868179 265.574005,251.420868 
	C265.894135,255.703064 265.919891,259.799103 265.771484,264.105377 
	C264.773346,262.708618 263.576294,261.178192 263.226349,259.473846 
	C262.848694,257.634674 263.263458,255.632767 263.470764,253.165344 
	C263.608917,252.628860 263.548584,252.257462 263.548584,252.257462 
	C263.484070,251.782089 263.419525,251.306732 263.451355,250.483246 
z"/>
<path fill="#E1BC24" opacity="1.000000" stroke="none" 
	d="
M388.305084,241.442688 
	C389.615265,241.729172 390.925476,242.015640 392.572784,242.512939 
	C390.730347,242.682327 388.550812,242.640884 386.145447,242.318909 
	C386.224670,241.945114 386.529724,241.851883 387.378693,241.604401 
	C387.922577,241.450150 388.305084,241.442688 388.305084,241.442688 
z"/>
<path fill="#E1B71F" opacity="1.000000" stroke="none" 
	d="
M152.715042,230.042389 
	C152.307083,230.396759 151.598114,230.756912 150.631531,231.076538 
	C151.053970,230.706726 151.734009,230.377457 152.715042,230.042389 
z"/>
<path fill="#E1B71F" opacity="1.000000" stroke="none" 
	d="
M294.710724,217.809616 
	C294.352844,217.929657 293.892487,217.805267 293.251312,217.521942 
	C293.583069,217.430420 294.095673,217.497818 294.710724,217.809616 
z"/>
<path fill="#E1B71F" opacity="1.000000" stroke="none" 
	d="
M265.852020,268.260040 
	C265.408508,268.388916 264.986908,268.121460 264.622070,267.451263 
	C265.077179,267.320251 265.475555,267.591980 265.852020,268.260040 
z"/>
<path fill="#E4BF22" opacity="1.000000" stroke="none" 
	d="
M265.879944,273.744568 
	C265.495667,273.787903 265.416534,273.531036 265.697693,273.117279 
	C265.861267,273.180603 265.903625,273.341919 265.879944,273.744568 
z"/>
<path fill="#E1B71F" opacity="1.000000" stroke="none" 
	d="
M121.754211,193.138718 
	C122.004860,193.205826 121.650032,193.510666 121.650032,193.510666 
	C121.650032,193.510666 121.204277,193.448776 121.102402,193.323990 
	C121.168205,193.156677 121.335884,193.114136 121.754211,193.138718 
z"/>
<path fill="#E1B71F" opacity="1.000000" stroke="none" 
	d="
M87.754715,193.131927 
	C88.005585,193.200882 87.651291,193.505127 87.651291,193.505127 
	C87.651291,193.505127 87.205780,193.445206 87.103439,193.321213 
	C87.168686,193.152466 87.336258,193.107727 87.754715,193.131927 
z"/>
<path fill="#E1B71F" opacity="1.000000" stroke="none" 
	d="
M82.755714,193.109131 
	C83.007095,193.175110 82.656456,193.483093 82.656456,193.483093 
	C82.656456,193.483093 82.210564,193.430222 82.107346,193.307358 
	C82.170868,193.137390 82.337601,193.090271 82.755714,193.109131 
z"/>
<path fill="#EBC529" opacity="1.000000" stroke="none" 
	d="
M266.743774,237.186371 
	C266.223816,238.124359 265.418152,239.184158 264.334198,240.146973 
	C264.856628,239.136047 265.657318,238.222122 266.743774,237.186371 
z"/>
<path fill="#E1BC24" opacity="1.000000" stroke="none" 
	d="
M286.517273,224.305557 
	C286.127411,224.609299 285.417358,224.814484 284.409973,224.784378 
	C284.112640,224.549072 284.178467,224.081833 284.178467,224.081833 
	C284.851349,224.123566 285.524231,224.165283 286.517273,224.305557 
z"/>
<path fill="#FFF57F" opacity="1.000000" stroke="none" 
	d="
M283.825623,224.054794 
	C284.178467,224.081833 284.112640,224.549072 284.119171,224.785141 
	C283.340302,225.011673 282.554932,225.002136 281.378052,224.989136 
	C281.815308,224.666351 282.644043,224.347046 283.825623,224.054794 
z"/>
<path fill="#FFF57F" opacity="1.000000" stroke="none" 
	d="
M273.027527,225.828918 
	C273.003265,225.651367 273.236267,225.381287 273.719879,225.010651 
	C273.741882,225.185532 273.513336,225.460968 273.027527,225.828918 
z"/>
<path fill="#E1B71F" opacity="1.000000" stroke="none" 
	d="
M263.490295,252.377914 
	C263.548584,252.257462 263.608917,252.628860 263.580017,252.683441 
	C263.551117,252.738037 263.431976,252.498367 263.490295,252.377914 
z"/>
<path fill="#EBC529" opacity="1.000000" stroke="none" 
	d="
M220.720261,224.734863 
	C220.424545,224.766403 220.360275,224.523788 220.576447,224.138489 
	C220.670563,224.037079 220.765366,224.501953 220.720261,224.734863 
z"/>
<path fill="#FFF57F" opacity="1.000000" stroke="none" 
	d="
M294.143616,222.877197 
	C294.085022,222.905411 293.982361,222.938416 293.995972,222.882858 
	C294.112274,222.794281 294.099548,222.882019 294.143616,222.877197 
z"/>
<path fill="#FFF57F" opacity="1.000000" stroke="none" 
	d="
M276.207947,222.900238 
	C276.091248,222.676376 276.277161,222.431076 276.790710,222.206253 
	C276.869690,222.418427 276.667084,222.635788 276.207947,222.900238 
z"/>
<path fill="#FFF57F" opacity="1.000000" stroke="none" 
	d="
M280.098053,220.894424 
	C280.029144,220.680435 280.244904,220.464722 280.751038,220.265961 
	C280.815491,220.484573 280.595947,220.687820 280.098053,220.894424 
z"/>
<path fill="#FEF99A" opacity="1.000000" stroke="none" 
	d="
M125.031296,200.736176 
	C113.324425,200.829346 101.617561,200.922516 89.444977,201.093872 
	C87.494141,201.594498 86.009018,202.016953 83.923538,202.727386 
	C82.223160,203.006454 81.123131,202.997543 80.023102,202.988617 
	C80.024460,202.237595 80.025826,201.486557 80.301407,200.119781 
	C80.697495,198.633652 80.819359,197.763260 80.941223,196.892868 
	C82.170937,196.560410 83.399017,195.945953 84.630630,195.938797 
	C98.050728,195.860764 111.471397,195.865982 124.891869,195.879990 
	C127.265259,195.882462 129.959991,195.689468 128.157349,199.789749 
	C126.706429,200.273727 125.868858,200.504944 125.031296,200.736176 
z"/>
<path fill="#FEF99A" opacity="1.000000" stroke="none" 
	d="
M86.989098,282.830627 
	C80.645035,282.949554 80.275108,282.581451 80.314552,275.283997 
	C81.748573,274.496826 82.834923,274.268494 83.921272,274.040161 
	C84.043259,278.001465 86.493546,278.855042 89.930634,278.830933 
	C101.619347,278.748993 113.308968,278.795807 125.652550,279.076508 
	C126.846352,280.504486 127.385841,281.649384 127.925339,282.794312 
	C114.930626,282.824707 101.935921,282.855133 88.364227,282.732300 
	C87.462944,282.439636 87.196899,282.523499 86.989098,282.830627 
z"/>
<path fill="#FEF99A" opacity="1.000000" stroke="none" 
	d="
M80.121262,248.956970 
	C80.087936,245.950378 80.054611,242.943817 80.473259,239.475861 
	C82.321426,238.987442 83.717628,238.960403 85.113823,238.933365 
	C93.730461,239.259125 102.345352,239.660141 110.964912,239.859680 
	C113.223404,239.911957 115.492035,239.188583 117.764702,239.123108 
	C118.744003,239.094894 119.745422,239.834290 120.736801,240.224960 
	C120.165337,241.198502 119.593872,242.172043 118.250473,243.100952 
	C116.008705,243.262360 114.538872,243.468399 113.069038,243.674438 
	C111.962410,243.711151 110.855789,243.747849 108.999016,243.531540 
	C103.186195,243.423401 98.123520,243.568283 93.060844,243.713135 
	C92.279778,243.731827 91.498703,243.750519 90.116554,243.554642 
	C88.685669,243.482056 87.855873,243.624039 87.026070,243.766022 
	C83.908669,243.810410 83.876190,245.923233 83.653900,248.586884 
	C82.202965,248.978989 81.162109,248.967972 80.121262,248.956970 
z"/>
<path fill="#FFF57F" opacity="1.000000" stroke="none" 
	d="
M84.984314,238.612640 
	C83.717628,238.960403 82.321426,238.987442 80.510780,239.026611 
	C80.040504,227.334030 79.984680,215.629333 79.975983,203.456635 
	C81.123131,202.997543 82.223160,203.006454 83.739929,203.025436 
	C84.240143,213.417053 84.323608,223.798599 84.451538,234.578308 
	C84.615608,236.081619 84.735214,237.186752 84.984314,238.612640 
z"/>
<path fill="#FFF57F" opacity="1.000000" stroke="none" 
	d="
M80.053635,249.425888 
	C81.162109,248.967972 82.202965,248.978989 83.636642,248.992706 
	C84.034805,257.030457 84.040146,265.065521 83.983376,273.570374 
	C82.834923,274.268494 81.748573,274.496826 80.354736,274.867950 
	C80.026840,266.638763 80.006424,258.266785 80.053635,249.425888 
z"/>
<path fill="#FFF57F" opacity="1.000000" stroke="none" 
	d="
M93.512856,243.806549 
	C98.123520,243.568283 103.186195,243.423401 108.585396,243.484406 
	C103.936234,243.760193 98.950554,243.830078 93.512856,243.806549 
z"/>
<path fill="#FFF57F" opacity="1.000000" stroke="none" 
	d="
M128.235931,282.726868 
	C127.385841,281.649384 126.846352,280.504486 126.115921,279.071777 
	C127.040550,279.095917 128.347839,279.169556 129.177353,279.836975 
	C129.509216,280.103973 128.788254,281.679504 128.235931,282.726868 
z"/>
<path fill="#FFF57F" opacity="1.000000" stroke="none" 
	d="
M113.441467,243.768219 
	C114.538872,243.468399 116.008705,243.262360 117.877022,243.116638 
	C116.788300,243.405289 115.301094,243.633636 113.441467,243.768219 
z"/>
<path fill="#FFF57F" opacity="1.000000" stroke="none" 
	d="
M125.394943,200.815765 
	C125.868858,200.504944 126.706429,200.273727 127.887634,200.085449 
	C128.231277,200.128418 128.116867,200.575607 128.053665,200.797729 
	C127.246513,200.978348 126.502548,200.936859 125.394943,200.815765 
z"/>
<path fill="#FFF57F" opacity="1.000000" stroke="none" 
	d="
M87.388321,243.845673 
	C87.855873,243.624039 88.685669,243.482056 89.728333,243.503769 
	C89.210991,243.753418 88.480789,243.839371 87.388321,243.845673 
z"/>
<path fill="#FFF57F" opacity="1.000000" stroke="none" 
	d="
M80.694687,197.127167 
	C80.819359,197.763260 80.697495,198.633652 80.352295,199.747040 
	C80.235359,199.113846 80.341759,198.237640 80.694687,197.127167 
z"/>
<path fill="#FFF57F" opacity="1.000000" stroke="none" 
	d="
M87.245079,282.861328 
	C87.196899,282.523499 87.462944,282.439636 87.897949,282.690247 
	C87.839470,282.831604 87.670265,282.861786 87.245079,282.861328 
z"/>
<path fill="#FEF78A" opacity="1.000000" stroke="none" 
	d="
M388.693115,241.281067 
	C388.305084,241.442688 387.922577,241.450150 387.831970,241.451172 
	C384.009705,236.594269 387.651764,233.387924 390.488007,230.269058 
	C396.641876,223.501892 403.074585,216.989059 409.272461,210.260910 
	C414.044891,205.080185 415.439514,198.364029 412.760986,193.764160 
	C410.507660,189.894485 407.201874,187.807632 402.498627,187.916275 
	C397.581818,188.029846 393.876984,189.804047 391.403229,194.198730 
	C390.640381,195.554001 389.209442,196.533218 388.084412,197.684631 
	C387.883972,195.723511 387.008881,193.521332 387.607635,191.845810 
	C389.521759,186.489365 396.461975,182.628143 403.141083,183.063843 
	C409.486298,183.477753 414.728485,185.941330 417.341614,192.279434 
	C420.751953,200.551239 418.303101,207.613724 412.655457,213.855408 
	C407.408112,219.654663 401.946472,225.259659 396.606781,230.975983 
	C395.637909,232.013168 394.802277,233.174789 394.283691,235.686325 
	C396.622528,235.686325 398.961395,235.686325 401.902771,235.675140 
	C402.505310,235.663956 402.852386,235.565460 402.852386,235.565460 
	C405.934235,235.621689 409.016083,235.677917 412.550018,235.637360 
	C413.325500,235.614090 413.658142,235.660156 413.970764,235.765610 
	C415.972961,236.441010 417.970795,237.129440 419.970062,237.813568 
	C417.933594,238.640091 415.897156,239.466599 413.430817,240.392517 
	C405.027649,240.701080 397.054382,240.910263 388.693115,241.281067 
z"/>
<path fill="#E1BC24" opacity="1.000000" stroke="none" 
	d="
M402.776550,235.505951 
	C402.852386,235.565460 402.505310,235.663956 402.338806,235.597260 
	C402.334869,235.391449 402.511017,235.363403 402.776550,235.505951 
z"/>
<path fill="#FEF78A" opacity="1.000000" stroke="none" 
	d="
M347.309570,224.707382 
	C339.634613,224.813278 334.884125,229.489395 331.124023,234.693634 
	C324.025909,244.517807 324.090729,263.128510 334.355438,272.845917 
	C342.088257,280.166473 355.370300,281.293701 364.223022,275.390411 
	C365.364441,274.629272 367.094086,274.750183 368.551239,274.462494 
	C368.144867,276.068848 367.738495,277.675201 367.142578,279.587341 
	C360.759644,283.203064 354.178192,283.882843 347.246246,283.316406 
	C332.722534,282.129608 324.539124,272.338135 322.199615,259.085785 
	C319.607239,244.400772 324.981628,230.287094 335.963226,223.604004 
	C345.131927,218.024185 354.609436,216.938400 364.175110,222.853363 
	C364.880463,223.289536 365.834869,223.603500 366.205811,224.244781 
	C367.133148,225.847931 367.791199,227.606827 368.557343,229.303207 
	C366.755219,228.779922 364.612091,228.708069 363.213013,227.651199 
	C358.449860,224.053085 353.209686,223.627487 347.309570,224.707382 
z"/>
<path fill="#FEF891" opacity="1.000000" stroke="none" 
	d="
M158.246460,261.019104 
	C157.113083,260.998077 156.330154,261.199677 155.806824,260.918365 
	C154.526703,260.230225 153.366531,259.318939 152.158096,258.497467 
	C153.369064,257.919373 154.568634,256.871521 155.792938,256.841766 
	C162.273315,256.684235 168.759918,256.782990 175.244354,256.792419 
	C180.066055,256.799438 184.894150,256.674713 189.704681,256.909851 
	C190.822083,256.964478 191.879623,258.243622 192.964706,258.959320 
	C191.856750,259.657623 190.757141,260.946442 189.639572,260.962189 
	C179.333145,261.107513 169.023636,261.032776 158.246460,261.019104 
z"/>
<path fill="#FEF891" opacity="1.000000" stroke="none" 
	d="
M156.633881,232.606750 
	C158.448166,232.550400 159.869324,232.597321 161.993851,232.674561 
	C163.087158,232.634109 163.477112,232.563339 163.867050,232.492554 
	C171.309357,232.547394 178.751678,232.602234 186.948166,232.688019 
	C188.101547,232.665863 188.500763,232.612762 188.899963,232.559662 
	C189.664398,232.659683 190.428818,232.759720 191.577805,232.830658 
	C193.772812,235.569489 192.494598,236.952316 189.716980,236.976288 
	C177.985336,237.077484 166.251709,237.057129 154.520615,236.923752 
	C153.505112,236.912216 152.502701,235.748734 151.494217,235.120346 
	C153.076385,234.316910 154.658569,233.513474 156.633881,232.606750 
z"/>
<path fill="#EBC529" opacity="1.000000" stroke="none" 
	d="
M163.710327,232.382172 
	C163.477112,232.563339 163.087158,232.634109 162.415085,232.598648 
	C162.606491,232.418884 163.080048,232.345352 163.710327,232.382172 
z"/>
<path fill="#EBC529" opacity="1.000000" stroke="none" 
	d="
M188.744919,232.436005 
	C188.500763,232.612762 188.101547,232.665863 187.417572,232.607925 
	C187.618500,232.435364 188.104187,232.373840 188.744919,232.436005 
z"/>
</svg>