<svg version="1.1" id="Layer_1" xmlns="http://www.w3.org/2000/svg" xmlns:xlink="http://www.w3.org/1999/xlink" x="0px" y="0px"
	 width="100%" viewBox="0 0 500 500" enable-background="new 0 0 500 500" xml:space="preserve">
<path fill="#000000" opacity="1.000000" stroke="none" 
	d="
M280.000000,501.000000 
	C186.666687,501.000000 93.833374,501.000000 1.000050,501.000000 
	C1.000033,334.333405 1.000033,167.666794 1.000017,1.000139 
	C167.666565,1.000093 334.333130,1.000093 500.999756,1.000046 
	C500.999847,167.666519 500.999847,334.333038 500.999939,500.999786 
	C427.500000,501.000000 354.000000,501.000000 280.000000,501.000000 
M281.043518,126.856575 
	C281.043518,126.856575 281.369781,127.137276 281.301086,127.620201 
	C281.534332,128.016495 281.767548,128.412796 282.075928,129.601562 
	C284.623444,137.791550 287.340698,145.934494 289.630737,154.195847 
	C290.485626,157.279816 291.187317,159.699066 295.055450,158.809006 
	C298.777649,157.952530 300.895355,156.017136 299.987915,151.790390 
	C297.062683,138.165009 292.722687,125.037994 286.326721,112.633377 
	C281.024292,102.349548 273.860992,94.040245 263.030212,89.011086 
	C249.103287,82.544258 232.819534,89.274597 224.172409,100.413940 
	C212.846741,115.003860 205.579956,131.610168 201.736694,149.707962 
	C201.076248,152.817978 199.969177,155.833160 199.169434,158.549118 
	C189.883377,155.500122 180.886642,152.881836 172.140015,149.597458 
	C158.179062,144.355103 143.806015,143.005539 129.123306,144.259781 
	C117.482140,145.254211 106.327881,155.377365 104.152039,167.551651 
	C102.825974,174.971283 103.700081,181.895142 106.950554,188.549606 
	C110.973465,196.785416 115.064255,204.992401 119.350410,213.092941 
	C120.830170,215.889587 123.098907,217.738831 126.716057,215.881607 
	C130.349640,214.015945 130.712860,211.326431 129.141418,207.992722 
	C128.436798,206.497894 127.499451,205.111130 126.818741,203.606979 
	C123.022705,195.219025 118.607620,187.034454 115.679779,178.350281 
	C112.205505,168.045364 117.580582,157.507645 128.624298,155.488586 
	C134.318817,154.447495 140.357925,154.509735 146.162613,155.001907 
	C162.451630,156.383057 177.729645,161.670517 192.675354,168.025772 
	C195.811127,169.359177 196.368927,171.511581 195.968689,174.777008 
	C194.175980,189.404007 192.432205,204.045822 191.196655,218.726532 
	C190.860077,222.725662 189.778931,225.572464 186.760300,228.097610 
	C179.233795,234.393677 171.486053,240.494492 164.517136,247.372787 
	C151.926392,259.799774 139.421097,272.364563 127.662033,285.568207 
	C116.503975,298.096985 109.185692,313.041016 104.346565,329.113647 
	C99.694794,344.564026 109.672783,362.704285 124.905296,364.638184 
	C134.971970,365.916260 145.504105,365.981995 155.534958,364.545441 
	C173.036911,362.038971 189.709671,356.011566 205.705551,348.463776 
	C218.934860,342.221436 231.981384,335.581268 244.983688,328.874634 
	C248.957733,326.824829 252.222946,326.258270 256.447998,328.645508 
	C267.062256,334.642700 278.027710,340.016052 288.749420,345.829315 
	C289.727081,346.359406 290.721191,348.482056 290.422028,349.479645 
	C288.542358,355.748199 285.886169,361.801788 284.263275,368.125732 
	C281.158813,380.222748 275.044403,390.690399 267.566040,400.413788 
	C259.420105,411.005127 246.850082,413.292725 238.099060,404.331787 
	C231.374512,397.445923 226.210907,388.639038 221.871262,379.929962 
	C217.345306,370.847046 214.637955,360.857941 211.150833,351.307007 
	C205.448151,351.186737 201.761597,353.821259 202.646683,357.688690 
	C206.792892,375.805542 213.105408,393.063171 224.898056,407.722961 
	C234.668167,419.868469 251.051819,423.739594 263.511780,417.487946 
	C263.718048,417.393890 263.829163,417.233673 263.967133,417.039520 
	C263.967133,417.039520 264.000336,416.917725 264.702881,416.828369 
	C271.252594,414.147827 275.836975,409.123016 279.635986,403.495026 
	C288.125732,390.918121 294.166809,377.191162 298.047913,362.495026 
	C299.023071,358.802612 300.618622,355.274048 301.853729,351.877380 
	C309.577209,354.539185 316.405457,357.000946 323.303894,359.247192 
	C337.537048,363.881775 352.135437,366.431396 367.129883,365.858826 
	C374.238281,365.587402 381.293396,364.604858 387.198853,359.902161 
	C398.083069,351.234650 401.044342,340.118347 397.210022,327.063385 
	C392.598511,311.362274 384.094360,297.630798 374.015778,285.033081 
	C365.685455,274.620636 356.203217,265.129730 346.560822,254.490585 
	C348.788574,252.583481 351.588257,250.746002 353.676727,248.301010 
	C362.158905,238.370697 370.748260,228.502975 378.679718,218.138962 
	C387.379089,206.771454 394.233429,194.384491 398.002106,180.316422 
	C403.667114,159.169281 386.310303,143.032715 369.515015,143.992447 
	C360.602081,144.501755 351.451843,144.306015 342.869934,146.357697 
	C329.800598,149.482193 316.716156,153.313004 304.392365,158.601547 
	C287.020050,166.056625 270.356079,175.157318 253.321213,183.414047 
	C252.020844,184.044327 249.894119,184.135834 248.636810,183.507187 
	C237.023315,177.700485 225.684860,171.312836 213.891388,165.913208 
	C209.535095,163.918701 209.612717,161.907730 210.792435,158.343140 
	C213.844406,149.121445 216.588562,139.796478 219.721161,130.603241 
	C223.807083,118.612335 231.163742,108.776947 240.653000,100.537773 
	C245.345062,96.463814 256.049622,95.746811 260.142426,99.492104 
	C265.041016,103.974777 269.414825,109.030937 274.044098,114.065186 
	C274.044098,114.065186 274.272186,114.057259 274.331665,114.439308 
	C274.477661,114.681725 274.692047,114.809669 275.319702,115.644073 
	C275.504669,115.876190 275.689606,116.108307 275.733643,116.331512 
	C275.733643,116.331512 275.895935,116.373009 276.064148,116.797279 
	C276.064148,116.797279 276.471893,117.002365 276.624908,117.646210 
	C277.757874,119.710808 278.890808,121.775414 280.205231,124.562241 
	C280.325592,124.779335 280.445953,124.996437 280.437531,125.568344 
	C280.624817,125.855049 280.812103,126.141762 281.043518,126.856575 
M123.557732,230.272903 
	C119.468536,241.272079 123.611008,251.922699 133.539703,255.937347 
	C142.950378,259.742523 154.122528,255.100952 158.403625,245.607407 
	C162.438095,236.660690 158.484283,224.702438 149.921921,220.580627 
	C141.953659,216.744827 128.294098,218.702438 123.557732,230.272903 
z"/>
<path fill="#B65FE6" opacity="1.000000" stroke="none" 
	d="
M263.231201,417.371735 
	C251.051819,423.739594 234.668167,419.868469 224.898056,407.722961 
	C213.105408,393.063171 206.792892,375.805542 202.646683,357.688690 
	C201.761597,353.821259 205.448151,351.186737 211.150833,351.307007 
	C214.637955,360.857941 217.345306,370.847046 221.871262,379.929962 
	C226.210907,388.639038 231.374512,397.445923 238.099060,404.331787 
	C246.850082,413.292725 259.420105,411.005127 267.566040,400.413788 
	C275.044403,390.690399 281.158813,380.222748 284.263275,368.125732 
	C285.886169,361.801788 288.542358,355.748199 290.422028,349.479645 
	C290.721191,348.482056 289.727081,346.359406 288.749420,345.829315 
	C278.027710,340.016052 267.062256,334.642700 256.447998,328.645508 
	C252.222946,326.258270 248.957733,326.824829 244.983688,328.874634 
	C231.981384,335.581268 218.934860,342.221436 205.705551,348.463776 
	C189.709671,356.011566 173.036911,362.038971 155.534958,364.545441 
	C145.504105,365.981995 134.971970,365.916260 124.905296,364.638184 
	C109.672783,362.704285 99.694794,344.564026 104.346565,329.113647 
	C109.185692,313.041016 116.503975,298.096985 127.662033,285.568207 
	C139.421097,272.364563 151.926392,259.799774 164.517136,247.372787 
	C171.486053,240.494492 179.233795,234.393677 186.760300,228.097610 
	C189.778931,225.572464 190.860077,222.725662 191.196655,218.726532 
	C192.432205,204.045822 194.175980,189.404007 195.968689,174.777008 
	C196.368927,171.511581 195.811127,169.359177 192.675354,168.025772 
	C177.729645,161.670517 162.451630,156.383057 146.162613,155.001907 
	C140.357925,154.509735 134.318817,154.447495 128.624298,155.488586 
	C117.580582,157.507645 112.205505,168.045364 115.679779,178.350281 
	C118.607620,187.034454 123.022705,195.219025 126.818741,203.606979 
	C127.499451,205.111130 128.436798,206.497894 129.141418,207.992722 
	C130.712860,211.326431 130.349640,214.015945 126.716057,215.881607 
	C123.098907,217.738831 120.830170,215.889587 119.350410,213.092941 
	C115.064255,204.992401 110.973465,196.785416 106.950554,188.549606 
	C103.700081,181.895142 102.825974,174.971283 104.152039,167.551651 
	C106.327881,155.377365 117.482140,145.254211 129.123306,144.259781 
	C143.806015,143.005539 158.179062,144.355103 172.140015,149.597458 
	C180.886642,152.881836 189.883377,155.500122 199.169434,158.549118 
	C199.969177,155.833160 201.076248,152.817978 201.736694,149.707962 
	C205.579956,131.610168 212.846741,115.003860 224.172409,100.413940 
	C232.819534,89.274597 249.103287,82.544258 263.030212,89.011086 
	C273.860992,94.040245 281.024292,102.349548 286.326721,112.633377 
	C292.722687,125.037994 297.062683,138.165009 299.987915,151.790390 
	C300.895355,156.017136 298.777649,157.952530 295.055450,158.809006 
	C291.187317,159.699066 290.485626,157.279816 289.630737,154.195847 
	C287.340698,145.934494 284.623444,137.791550 282.014648,128.976868 
	C281.758820,127.947205 281.564301,127.542244 281.369781,127.137276 
	C281.369781,127.137276 281.043518,126.856575 281.010925,126.481491 
	C280.912598,125.775780 280.775238,125.478149 280.566284,125.213531 
	C280.445953,124.996437 280.325592,124.779335 280.114746,123.869568 
	C280.263977,122.125549 280.503693,121.074203 281.011780,120.267975 
	C284.834625,131.069595 288.324432,141.648819 292.018799,152.156128 
	C292.526306,153.599564 294.050232,154.685623 295.103607,155.937134 
	C295.759399,154.268372 296.500183,152.625549 297.022339,150.915970 
	C297.192291,150.359528 296.802155,149.626236 296.650177,148.978058 
	C293.358307,134.940353 288.332245,121.533791 281.138611,109.055023 
	C268.222351,86.649208 241.455475,81.997459 225.381210,103.817703 
	C220.976089,109.797508 216.906693,116.302544 214.151749,123.156799 
	C209.701508,134.228836 206.430069,145.777649 202.747482,157.153152 
	C201.812424,160.041565 201.102463,162.758514 197.026428,161.237030 
	C190.947037,158.967712 184.802658,156.873199 178.708633,154.642273 
	C163.699173,149.147598 148.305740,145.989304 132.231857,146.807861 
	C117.352867,147.565598 106.093102,159.091034 106.811378,173.940384 
	C107.501694,188.211456 114.594711,200.234451 122.259361,211.825150 
	C122.836426,212.697800 124.638779,212.760208 125.871552,213.199249 
	C125.986183,211.832657 126.640198,210.200607 126.121094,209.145920 
	C123.991737,204.819656 121.393700,200.726959 119.173546,196.441879 
	C114.850487,188.097992 111.219734,179.486725 112.133812,169.799103 
	C113.179771,158.713837 122.871300,150.974213 136.179321,151.232147 
	C157.138214,151.638382 176.907135,157.334518 195.765747,166.225571 
	C197.249237,166.924973 198.365433,169.384338 198.731918,171.210495 
	C199.140442,173.246094 198.528107,175.496262 198.305161,177.647339 
	C196.831207,191.868713 195.161453,206.073471 193.975693,220.318619 
	C193.646530,224.273178 192.579453,227.196320 189.564972,229.822525 
	C177.392822,240.426849 165.151550,250.969147 153.355331,261.983673 
	C134.321777,279.755981 118.021881,299.591248 108.605171,324.333923 
	C105.013947,333.769989 104.960045,342.764404 110.721123,351.506744 
	C116.604210,360.434265 125.402336,363.067535 135.296997,363.290924 
	C165.834579,363.980377 192.688568,351.594818 219.428085,339.102234 
	C228.008774,335.093353 236.218933,330.247314 244.401718,325.448547 
	C248.810211,322.863159 252.562088,323.017944 256.982269,325.500122 
	C268.298218,331.854675 279.881927,337.731873 291.215454,344.056396 
	C292.489960,344.767609 293.819122,347.372955 293.483459,348.678345 
	C288.525421,367.958618 282.427338,386.909180 269.774384,402.686066 
	C261.765717,412.672089 249.430038,416.470001 237.957672,408.257965 
	C228.864182,401.748749 223.915176,392.332458 219.636032,382.583984 
	C215.643707,373.488953 212.527649,364.009247 208.987808,354.597717 
	C204.826859,354.697235 205.217987,357.226013 205.848114,360.071014 
	C208.984451,374.231384 215.145172,387.229645 222.500031,399.488190 
	C225.780380,404.955658 231.307632,409.430023 236.612625,413.246552 
	C245.081390,419.339203 254.569031,417.983795 263.914978,415.212769 
	C263.959045,416.008240 263.979706,416.462982 264.000336,416.917725 
	C264.000336,416.917725 263.967133,417.039520 263.793488,417.065979 
	C263.619843,417.092468 263.231201,417.371735 263.231201,417.371735 
z"/>
<path fill="#B55DE5" opacity="1.000000" stroke="none" 
	d="
M264.351624,416.873047 
	C263.979706,416.462982 263.959045,416.008240 263.946716,415.230225 
	C263.955048,414.906952 263.924561,414.969910 264.127502,414.848328 
	C264.587860,414.539703 264.805176,414.313965 265.180115,413.781189 
	C270.048706,408.605713 275.611694,404.273285 279.215240,398.678772 
	C288.294586,384.582947 294.135498,368.952942 297.996490,352.641510 
	C298.984436,348.467712 300.508606,347.793915 304.600616,349.456757 
	C324.603241,357.584869 345.058258,363.826813 367.039856,363.297058 
	C389.440613,362.757202 401.340912,344.945068 393.346375,324.070831 
	C383.680481,298.832489 366.983276,278.815979 347.266052,260.986145 
	C343.366516,257.459930 342.993042,255.137482 346.287811,251.356934 
	C355.572723,240.703125 365.102081,230.245651 374.007080,219.281937 
	C383.723083,207.319763 391.338867,194.189301 395.362061,179.013275 
	C400.090637,161.176407 385.126678,146.811859 368.990326,146.583237 
	C346.407867,146.263290 325.445312,152.506012 305.241943,161.293121 
	C288.322968,168.651749 272.096954,177.620468 255.675140,186.091476 
	C252.339752,187.811981 249.630341,187.946823 246.356628,186.133392 
	C236.892609,180.890915 227.277985,175.921097 217.768265,170.759872 
	C214.207260,168.827194 209.084335,167.411621 207.745071,164.396133 
	C206.347488,161.249344 208.428268,156.406784 209.373566,152.396378 
	C213.581757,134.543121 220.018295,117.708374 232.427795,103.733223 
	C245.725815,88.757446 262.637238,91.949142 273.039856,108.440979 
	C273.419006,109.126732 273.732849,109.552574 274.037384,109.978882 
	C274.028107,109.979355 274.057648,109.953812 274.039856,110.342636 
	C274.020050,111.767220 274.017975,112.802963 274.015930,113.838715 
	C269.414825,109.030937 265.041016,103.974777 260.142426,99.492104 
	C256.049622,95.746811 245.345062,96.463814 240.653000,100.537773 
	C231.163742,108.776947 223.807083,118.612335 219.721161,130.603241 
	C216.588562,139.796478 213.844406,149.121445 210.792435,158.343140 
	C209.612717,161.907730 209.535095,163.918701 213.891388,165.913208 
	C225.684860,171.312836 237.023315,177.700485 248.636810,183.507187 
	C249.894119,184.135834 252.020844,184.044327 253.321213,183.414047 
	C270.356079,175.157318 287.020050,166.056625 304.392365,158.601547 
	C316.716156,153.313004 329.800598,149.482193 342.869934,146.357697 
	C351.451843,144.306015 360.602081,144.501755 369.515015,143.992447 
	C386.310303,143.032715 403.667114,159.169281 398.002106,180.316422 
	C394.233429,194.384491 387.379089,206.771454 378.679718,218.138962 
	C370.748260,228.502975 362.158905,238.370697 353.676727,248.301010 
	C351.588257,250.746002 348.788574,252.583481 346.560822,254.490585 
	C356.203217,265.129730 365.685455,274.620636 374.015778,285.033081 
	C384.094360,297.630798 392.598511,311.362274 397.210022,327.063385 
	C401.044342,340.118347 398.083069,351.234650 387.198853,359.902161 
	C381.293396,364.604858 374.238281,365.587402 367.129883,365.858826 
	C352.135437,366.431396 337.537048,363.881775 323.303894,359.247192 
	C316.405457,357.000946 309.577209,354.539185 301.853729,351.877380 
	C300.618622,355.274048 299.023071,358.802612 298.047913,362.495026 
	C294.166809,377.191162 288.125732,390.918121 279.635986,403.495026 
	C275.836975,409.123016 271.252594,414.147827 264.351624,416.873047 
z"/>
<path fill="#B65EE6" opacity="1.000000" stroke="none" 
	d="
M123.757370,229.937134 
	C128.294098,218.702438 141.953659,216.744827 149.921921,220.580627 
	C158.484283,224.702438 162.438095,236.660690 158.403625,245.607407 
	C154.122528,255.100952 142.950378,259.742523 133.539703,255.937347 
	C123.611008,251.922699 119.468536,241.272079 123.757370,229.937134 
M132.126083,251.628967 
	C135.765854,252.461594 139.436691,254.093582 143.038681,253.953705 
	C149.700546,253.694962 153.942078,249.196884 156.178711,243.300842 
	C158.520065,237.128738 157.630844,230.999817 152.847809,226.197021 
	C148.349319,221.679947 142.829834,219.940399 136.431549,222.057236 
	C125.564400,225.652542 119.161896,241.768219 132.126083,251.628967 
z"/>
<path fill="#B65FE6" opacity="1.000000" stroke="none" 
	d="
M274.029999,113.951950 
	C274.017975,112.802963 274.020050,111.767220 274.346527,110.458405 
	C276.129852,112.440269 277.588776,114.695206 278.724976,116.960007 
	C277.758789,116.980698 277.115356,116.991531 276.471893,117.002365 
	C276.471893,117.002365 276.064148,116.797279 275.978333,116.579208 
	C275.892487,116.361145 275.874573,116.340424 275.874573,116.340424 
	C275.689606,116.108307 275.504669,115.876190 275.052246,115.086685 
	C274.642090,114.341385 274.471222,114.184044 274.272186,114.057259 
	C274.272186,114.057259 274.044098,114.065186 274.029999,113.951950 
z"/>
<path fill="#B55DE5" opacity="1.000000" stroke="none" 
	d="
M276.548401,117.324287 
	C277.115356,116.991531 277.758789,116.980698 278.711823,116.973640 
	C279.021393,116.977417 279.023529,116.962875 279.126038,117.151070 
	C279.385529,117.578568 279.570404,117.793945 279.998230,118.187622 
	C280.389984,118.934174 280.566681,119.478508 280.743408,120.022858 
	C280.503693,121.074203 280.263977,122.125549 280.023987,123.508453 
	C278.890808,121.775414 277.757874,119.710808 276.548401,117.324287 
z"/>
<path fill="#B55DE5" opacity="1.000000" stroke="none" 
	d="
M281.335449,127.378738 
	C281.564301,127.542244 281.758820,127.947205 281.977051,128.580627 
	C281.767548,128.412796 281.534332,128.016495 281.335449,127.378738 
z"/>
<path fill="#B55DE5" opacity="1.000000" stroke="none" 
	d="
M280.501892,125.390938 
	C280.775238,125.478149 280.912598,125.775780 280.988861,126.267441 
	C280.812103,126.141762 280.624817,125.855049 280.501892,125.390938 
z"/>
<path fill="#B55DE5" opacity="1.000000" stroke="none" 
	d="
M275.804108,116.335968 
	C275.874573,116.340424 275.892487,116.361145 275.894226,116.367081 
	C275.895935,116.373009 275.733643,116.331512 275.804108,116.335968 
z"/>
<path fill="#B55DE5" opacity="1.000000" stroke="none" 
	d="
M274.301941,114.248283 
	C274.471222,114.184044 274.642090,114.341385 274.879852,114.676224 
	C274.692047,114.809669 274.477661,114.681725 274.301941,114.248283 
z"/>
<path fill="#B55DE5" opacity="1.000000" stroke="none" 
	d="
M263.371490,417.429840 
	C263.231201,417.371735 263.619843,417.092468 263.732483,417.049866 
	C263.829163,417.233673 263.718048,417.393890 263.371490,417.429840 
z"/>
<path fill="#FCBAFE" opacity="1.000000" stroke="none" 
	d="
M281.011780,120.267975 
	C280.566681,119.478508 280.389984,118.934174 279.957123,117.964645 
	C279.561707,117.245659 279.335876,117.053467 279.023529,116.962875 
	C279.023529,116.962875 279.021393,116.977417 279.034546,116.963776 
	C277.588776,114.695206 276.129852,112.440269 274.364319,110.069580 
	C274.057648,109.953812 274.028107,109.979355 274.012939,109.700119 
	C273.656708,109.007614 273.315613,108.594337 272.974548,108.181061 
	C262.637238,91.949142 245.725815,88.757446 232.427795,103.733223 
	C220.018295,117.708374 213.581757,134.543121 209.373566,152.396378 
	C208.428268,156.406784 206.347488,161.249344 207.745071,164.396133 
	C209.084335,167.411621 214.207260,168.827194 217.768265,170.759872 
	C227.277985,175.921097 236.892609,180.890915 246.356628,186.133392 
	C249.630341,187.946823 252.339752,187.811981 255.675140,186.091476 
	C272.096954,177.620468 288.322968,168.651749 305.241943,161.293121 
	C325.445312,152.506012 346.407867,146.263290 368.990326,146.583237 
	C385.126678,146.811859 400.090637,161.176407 395.362061,179.013275 
	C391.338867,194.189301 383.723083,207.319763 374.007080,219.281937 
	C365.102081,230.245651 355.572723,240.703125 346.287811,251.356934 
	C342.993042,255.137482 343.366516,257.459930 347.266052,260.986145 
	C366.983276,278.815979 383.680481,298.832489 393.346375,324.070831 
	C401.340912,344.945068 389.440613,362.757202 367.039856,363.297058 
	C345.058258,363.826813 324.603241,357.584869 304.600616,349.456757 
	C300.508606,347.793915 298.984436,348.467712 297.996490,352.641510 
	C294.135498,368.952942 288.294586,384.582947 279.215240,398.678772 
	C275.611694,404.273285 270.048706,408.605713 264.940704,413.853363 
	C264.310577,414.452637 264.117584,414.711273 263.924561,414.969910 
	C263.924561,414.969910 263.955048,414.906952 263.923279,414.889465 
	C254.569031,417.983795 245.081390,419.339203 236.612625,413.246552 
	C231.307632,409.430023 225.780380,404.955658 222.500031,399.488190 
	C215.145172,387.229645 208.984451,374.231384 205.848114,360.071014 
	C205.217987,357.226013 204.826859,354.697235 208.987808,354.597717 
	C212.527649,364.009247 215.643707,373.488953 219.636032,382.583984 
	C223.915176,392.332458 228.864182,401.748749 237.957672,408.257965 
	C249.430038,416.470001 261.765717,412.672089 269.774384,402.686066 
	C282.427338,386.909180 288.525421,367.958618 293.483459,348.678345 
	C293.819122,347.372955 292.489960,344.767609 291.215454,344.056396 
	C279.881927,337.731873 268.298218,331.854675 256.982269,325.500122 
	C252.562088,323.017944 248.810211,322.863159 244.401718,325.448547 
	C236.218933,330.247314 228.008774,335.093353 219.428085,339.102234 
	C192.688568,351.594818 165.834579,363.980377 135.296997,363.290924 
	C125.402336,363.067535 116.604210,360.434265 110.721123,351.506744 
	C104.960045,342.764404 105.013947,333.769989 108.605171,324.333923 
	C118.021881,299.591248 134.321777,279.755981 153.355331,261.983673 
	C165.151550,250.969147 177.392822,240.426849 189.564972,229.822525 
	C192.579453,227.196320 193.646530,224.273178 193.975693,220.318619 
	C195.161453,206.073471 196.831207,191.868713 198.305161,177.647339 
	C198.528107,175.496262 199.140442,173.246094 198.731918,171.210495 
	C198.365433,169.384338 197.249237,166.924973 195.765747,166.225571 
	C176.907135,157.334518 157.138214,151.638382 136.179321,151.232147 
	C122.871300,150.974213 113.179771,158.713837 112.133812,169.799103 
	C111.219734,179.486725 114.850487,188.097992 119.173546,196.441879 
	C121.393700,200.726959 123.991737,204.819656 126.121094,209.145920 
	C126.640198,210.200607 125.986183,211.832657 125.871552,213.199249 
	C124.638779,212.760208 122.836426,212.697800 122.259361,211.825150 
	C114.594711,200.234451 107.501694,188.211456 106.811378,173.940384 
	C106.093102,159.091034 117.352867,147.565598 132.231857,146.807861 
	C148.305740,145.989304 163.699173,149.147598 178.708633,154.642273 
	C184.802658,156.873199 190.947037,158.967712 197.026428,161.237030 
	C201.102463,162.758514 201.812424,160.041565 202.747482,157.153152 
	C206.430069,145.777649 209.701508,134.228836 214.151749,123.156799 
	C216.906693,116.302544 220.976089,109.797508 225.381210,103.817703 
	C241.455475,81.997459 268.222351,86.649208 281.138611,109.055023 
	C288.332245,121.533791 293.358307,134.940353 296.650177,148.978058 
	C296.802155,149.626236 297.192291,150.359528 297.022339,150.915970 
	C296.500183,152.625549 295.759399,154.268372 295.103607,155.937134 
	C294.050232,154.685623 292.526306,153.599564 292.018799,152.156128 
	C288.324432,141.648819 284.834625,131.069595 281.011780,120.267975 
M343.014374,247.016235 
	C343.014374,247.016235 343.042358,247.079727 343.514709,246.865921 
	C343.711609,246.587143 343.908508,246.308350 344.651917,245.666519 
	C353.008209,236.203629 361.838501,227.110870 369.594086,217.178894 
	C378.200500,206.157333 385.506622,194.269028 389.207153,180.436905 
	C393.311493,165.095520 385.388611,152.863983 369.604767,151.387756 
	C365.332367,150.988174 360.919647,151.139282 356.660675,151.707306 
	C336.912262,154.341232 317.877930,159.365662 300.098755,168.717636 
	C287.301392,175.449173 274.199554,181.602478 261.411957,188.351852 
	C257.015930,190.672089 257.133026,192.404709 261.390594,195.000290 
	C268.197418,199.150024 275.195160,202.986572 282.326050,207.448044 
	C282.902435,207.820984 283.478790,208.193924 284.504608,208.820908 
	C284.665649,208.881592 284.826660,208.942291 285.224457,209.397751 
	C285.441223,209.637421 285.710663,209.770309 286.111237,209.874146 
	C286.111237,209.874146 286.219666,209.895142 286.520264,210.350266 
	C287.015320,210.547058 287.510406,210.743851 288.345184,211.463013 
	C289.224213,211.978287 290.103271,212.493561 291.288605,213.580597 
	C292.544952,214.335663 293.801270,215.090729 295.418488,216.283127 
	C295.919037,216.533112 296.419586,216.783096 297.160248,217.465332 
	C297.386444,217.726898 297.670868,217.880875 298.038147,217.989944 
	C298.038147,217.989944 298.095856,217.954330 298.537231,218.498901 
	C303.252716,220.528564 304.076691,219.930756 303.538330,214.983734 
	C302.360291,204.158096 301.137482,193.335938 300.150299,182.492569 
	C300.015625,181.013397 301.126678,179.420822 302.091583,176.639481 
	C303.772705,179.419052 304.512268,180.641861 305.181610,182.564255 
	C305.234467,183.026138 305.287292,183.488037 305.232452,184.787247 
	C306.214325,197.003677 307.081390,209.231400 308.282623,221.426224 
	C308.502167,223.655060 310.083069,225.749786 311.325592,228.438660 
	C311.948273,228.933792 312.570953,229.428925 313.446655,230.501373 
	C314.649139,231.294281 315.851654,232.087204 317.340881,233.316925 
	C317.623077,233.516876 317.905304,233.716827 318.438538,234.487946 
	C319.624359,235.327515 320.810181,236.167084 322.264771,237.517563 
	C322.845978,238.009125 323.427216,238.500671 324.291229,239.564575 
	C325.533569,240.364853 326.775909,241.165131 328.355347,242.524536 
	C329.671265,243.652267 330.987213,244.779999 332.548950,246.391327 
	C333.018738,246.646469 333.488525,246.901627 334.188293,247.687469 
	C334.794861,248.122528 335.401398,248.557602 336.332977,249.585815 
	C337.922913,249.407883 339.512878,249.229950 341.496185,248.836365 
	C341.743530,248.654327 341.927673,248.422165 342.507843,247.893204 
	C342.698395,247.608826 342.888947,247.324463 343.014374,247.016235 
M196.237320,307.104065 
	C195.441116,300.669159 194.887619,294.189758 193.721191,287.822662 
	C193.294937,285.495880 191.859192,282.949768 190.111481,281.345062 
	C184.850052,276.514313 179.131271,272.184753 173.779984,267.446106 
	C172.699890,266.489685 172.450272,264.595459 171.817764,263.133575 
	C173.559769,263.475677 175.626801,263.338257 176.979309,264.254974 
	C180.273026,266.487427 183.144424,269.334381 186.374252,271.673828 
	C187.737091,272.660950 189.574051,272.993530 191.195496,273.623627 
	C191.703461,271.967590 192.633270,270.315735 192.649658,268.654846 
	C192.743057,259.190277 192.674667,249.722549 192.504013,240.258728 
	C192.480194,238.937653 191.884201,236.845566 191.024048,236.523544 
	C190.005402,236.142212 188.164810,236.986023 187.113464,237.834991 
	C183.116318,241.062805 179.301483,244.515778 175.404755,247.868622 
	C158.836014,262.124847 143.558762,277.601166 130.552582,295.232574 
	C122.596519,306.017914 116.081650,317.443329 112.449059,330.538727 
	C108.527367,344.676422 118.640007,357.676453 133.571365,358.079468 
	C149.328369,358.504791 164.258438,355.071289 179.171631,350.650604 
	C199.942474,344.493591 218.784988,334.231567 237.580215,323.845001 
	C239.600388,322.728638 242.368240,320.730316 242.467911,319.006836 
	C242.566132,317.308624 240.003052,315.018005 238.107422,313.715118 
	C226.999084,306.080292 215.752304,298.646454 204.527267,291.182312 
	C203.249054,290.332336 201.815323,289.716248 199.384216,288.422607 
	C199.384216,292.484222 199.123367,295.412720 199.432068,298.279938 
	C200.446335,307.701019 201.744080,317.091888 202.723404,326.516144 
	C202.865250,327.881134 201.861023,329.365234 201.387146,330.794220 
	C200.533539,329.619385 199.121216,328.532257 198.920609,327.254883 
	C197.915421,320.854584 197.227524,314.404480 196.237320,307.104065 
M197.322403,271.127777 
	C196.736725,279.133514 201.170792,283.645538 207.582748,287.645264 
	C220.845551,295.918518 233.747116,304.775818 246.706726,313.526947 
	C250.076797,315.802612 252.791977,315.721375 256.180023,313.350372 
	C270.077606,303.624634 284.058167,294.009277 298.216278,284.668701 
	C302.814575,281.635040 304.623840,277.742035 304.534302,272.568573 
	C304.300964,259.085846 304.178436,245.598831 303.686157,232.125427 
	C303.613129,230.125854 302.291382,227.403870 300.676483,226.347977 
	C285.233093,216.250336 269.668732,206.330688 253.933365,196.696030 
	C252.142975,195.599808 248.524490,195.628235 246.712662,196.722717 
	C232.336060,205.407272 218.313248,214.678833 203.912079,223.320679 
	C198.665573,226.469025 197.403992,230.842682 197.382233,236.216431 
	C197.336349,247.543121 197.314331,258.869904 197.322403,271.127777 
M321.327271,350.044342 
	C336.772980,355.040710 352.399261,358.883423 368.844574,357.908417 
	C383.929932,357.014099 392.913452,345.425781 389.322632,330.763153 
	C387.946930,325.145691 385.964996,319.535522 383.342041,314.389587 
	C373.227112,294.545105 358.544983,278.243500 342.507904,263.054077 
	C339.378998,260.090546 336.558380,261.015961 333.639465,263.342438 
	C327.130066,268.530640 320.734344,273.881409 313.991089,278.748596 
	C310.046722,281.595581 307.644806,284.570770 307.876984,289.776306 
	C308.052277,293.707367 307.037781,297.692749 306.540039,301.652344 
	C305.067139,313.369049 303.692871,325.099609 302.060547,336.794098 
	C301.388977,341.605652 303.043549,344.303711 307.762726,345.573975 
	C312.097900,346.740936 316.305481,348.381958 321.327271,350.044342 
M261.010071,322.445953 
	C270.689301,327.572418 280.327637,332.778351 290.066162,337.789673 
	C294.516846,340.079956 296.526245,339.301514 297.202637,334.684326 
	C299.245972,320.736084 301.006866,306.745453 302.764526,292.757111 
	C303.247986,288.909698 301.224670,288.180511 298.324371,290.136169 
	C285.528656,298.764130 272.799469,307.490997 260.076080,316.225677 
	C257.126373,318.250702 257.706543,320.249695 261.010071,322.445953 
M199.097092,211.540222 
	C199.097092,214.229523 199.097092,216.918839 199.097092,220.129227 
	C201.254242,219.529831 202.317001,219.480759 203.090775,218.982712 
	C215.397964,211.060944 227.719650,203.159378 239.917847,195.071930 
	C243.997025,192.367401 243.776855,190.234085 239.238220,187.809647 
	C229.396362,182.552368 219.442368,177.505295 209.544037,172.353424 
	C206.460983,170.748779 204.475952,171.198029 203.964188,175.024109 
	C202.377411,186.887497 200.743118,198.744507 199.097092,211.540222 
M312.632233,273.966003 
	C318.971069,268.897095 325.319092,263.839630 331.644531,258.754028 
	C334.441437,256.505310 333.980438,254.412323 331.430878,252.208298 
	C327.659851,248.948288 324.127625,245.407410 320.297852,242.221588 
	C317.358551,239.776520 314.116974,237.694824 310.613037,235.165054 
	C309.912292,236.916245 309.473877,237.505020 309.469910,238.096725 
	C309.395477,249.239532 309.311554,260.383453 309.453125,271.524323 
	C309.464600,272.426483 311.095551,273.308105 312.632233,273.966003 
z"/>
<path fill="#B65FE6" opacity="1.000000" stroke="none" 
	d="
M273.039856,108.440979 
	C273.315613,108.594337 273.656708,109.007614 274.022217,109.699646 
	C273.732849,109.552574 273.419006,109.126732 273.039856,108.440979 
z"/>
<path fill="#B65FE6" opacity="1.000000" stroke="none" 
	d="
M264.127502,414.848328 
	C264.117584,414.711273 264.310577,414.452637 264.743011,414.121826 
	C264.805176,414.313965 264.587860,414.539703 264.127502,414.848328 
z"/>
<path fill="#FCBAFE" opacity="1.000000" stroke="none" 
	d="
M131.822968,251.400757 
	C119.161896,241.768219 125.564400,225.652542 136.431549,222.057236 
	C142.829834,219.940399 148.349319,221.679947 152.847809,226.197021 
	C157.630844,230.999817 158.520065,237.128738 156.178711,243.300842 
	C153.942078,249.196884 149.700546,253.694962 143.038681,253.953705 
	C139.436691,254.093582 135.765854,252.461594 131.822968,251.400757 
M131.666702,231.283600 
	C131.123856,232.486511 130.438004,233.646652 130.063049,234.899811 
	C128.482788,240.181259 131.885330,246.577927 137.479340,249.000000 
	C142.016937,250.964676 147.967834,248.758606 150.758591,244.077209 
	C153.778519,239.011398 152.736542,232.436707 148.327866,228.739761 
	C143.363937,224.577209 138.182022,225.200302 131.666702,231.283600 
z"/>
<path fill="#B65FE6" opacity="1.000000" stroke="none" 
	d="
M279.126038,117.151070 
	C279.335876,117.053467 279.561707,117.245659 279.742065,117.762436 
	C279.570404,117.793945 279.385529,117.578568 279.126038,117.151070 
z"/>
<path fill="#B55DE7" opacity="1.000000" stroke="none" 
	d="
M196.332703,307.537964 
	C197.227524,314.404480 197.915421,320.854584 198.920609,327.254883 
	C199.121216,328.532257 200.533539,329.619385 201.387146,330.794220 
	C201.861023,329.365234 202.865250,327.881134 202.723404,326.516144 
	C201.744080,317.091888 200.446335,307.701019 199.432068,298.279938 
	C199.123367,295.412720 199.384216,292.484222 199.384216,288.422607 
	C201.815323,289.716248 203.249054,290.332336 204.527267,291.182312 
	C215.752304,298.646454 226.999084,306.080292 238.107422,313.715118 
	C240.003052,315.018005 242.566132,317.308624 242.467911,319.006836 
	C242.368240,320.730316 239.600388,322.728638 237.580215,323.845001 
	C218.784988,334.231567 199.942474,344.493591 179.171631,350.650604 
	C164.258438,355.071289 149.328369,358.504791 133.571365,358.079468 
	C118.640007,357.676453 108.527367,344.676422 112.449059,330.538727 
	C116.081650,317.443329 122.596519,306.017914 130.552582,295.232574 
	C143.558762,277.601166 158.836014,262.124847 175.404755,247.868622 
	C179.301483,244.515778 183.116318,241.062805 187.113464,237.834991 
	C188.164810,236.986023 190.005402,236.142212 191.024048,236.523544 
	C191.884201,236.845566 192.480194,238.937653 192.504013,240.258728 
	C192.674667,249.722549 192.743057,259.190277 192.649658,268.654846 
	C192.633270,270.315735 191.703461,271.967590 191.195496,273.623627 
	C189.574051,272.993530 187.737091,272.660950 186.374252,271.673828 
	C183.144424,269.334381 180.273026,266.487427 176.979309,264.254974 
	C175.626801,263.338257 173.559769,263.475677 171.817764,263.133575 
	C172.450272,264.595459 172.699890,266.489685 173.779984,267.446106 
	C179.131271,272.184753 184.850052,276.514313 190.111481,281.345062 
	C191.859192,282.949768 193.294937,285.495880 193.721191,287.822662 
	C194.887619,294.189758 195.441116,300.669159 196.332703,307.537964 
M165.953217,260.324341 
	C158.075272,268.313110 149.296936,275.614685 142.544128,284.462219 
	C133.830719,295.878540 126.230019,308.246338 119.184074,320.785339 
	C116.151627,326.181946 114.228668,333.091156 114.449966,339.217468 
	C114.777794,348.292969 123.559830,354.483673 133.496429,355.115387 
	C147.143356,355.982971 160.079926,352.506470 173.122406,349.273621 
	C196.381287,343.508362 216.733353,331.358429 237.634598,320.397369 
	C239.675186,319.327209 240.321091,318.304352 237.395401,316.824554 
	C233.530182,314.869507 230.099625,312.057526 226.473358,309.627136 
	C218.416229,304.227020 210.353561,298.835144 201.919189,293.189606 
	C202.468201,297.330780 203.008560,300.915924 203.407547,304.516754 
	C204.282532,312.413300 205.020401,320.325439 205.946060,328.215759 
	C206.412262,332.189758 204.041016,334.005157 200.843506,334.125854 
	C197.317078,334.258972 195.700043,331.766571 195.960678,328.207245 
	C196.045349,327.050842 196.189468,325.866699 196.040115,324.730225 
	C194.403870,312.279327 192.767853,299.827698 190.969376,287.399780 
	C190.757935,285.938568 189.902191,284.223236 188.787247,283.297943 
	C182.766769,278.301636 176.684738,273.361664 170.381958,268.731659 
	C167.613113,266.697693 166.400101,264.662659 168.855103,262.028534 
	C171.175507,259.538849 173.816650,257.628967 177.365616,260.895844 
	C180.751999,264.013062 184.598694,266.630219 188.993225,270.051208 
	C188.993225,259.371643 188.993225,249.962723 188.993225,239.814484 
	C181.197968,246.743103 173.835327,253.287216 165.953217,260.324341 
z"/>
<path fill="#AE57E2" opacity="1.000000" stroke="none" 
	d="
M197.302460,270.662231 
	C197.314331,258.869904 197.336349,247.543121 197.382233,236.216431 
	C197.403992,230.842682 198.665573,226.469025 203.912079,223.320679 
	C218.313248,214.678833 232.336060,205.407272 246.712662,196.722717 
	C248.524490,195.628235 252.142975,195.599808 253.933365,196.696030 
	C269.668732,206.330688 285.233093,216.250336 300.676483,226.347977 
	C302.291382,227.403870 303.613129,230.125854 303.686157,232.125427 
	C304.178436,245.598831 304.300964,259.085846 304.534302,272.568573 
	C304.623840,277.742035 302.814575,281.635040 298.216278,284.668701 
	C284.058167,294.009277 270.077606,303.624634 256.180023,313.350372 
	C252.791977,315.721375 250.076797,315.802612 246.706726,313.526947 
	C233.747116,304.775818 220.845551,295.918518 207.582748,287.645264 
	C201.170792,283.645538 196.736725,279.133514 197.302460,270.662231 
M222.897614,294.700409 
	C231.550812,300.054901 240.136551,305.525269 248.928055,310.642120 
	C250.286530,311.432770 253.051453,311.298676 254.383636,310.414093 
	C269.203613,300.573853 283.913574,290.564667 298.507263,280.391724 
	C299.928497,279.401031 301.127014,277.025452 301.155426,275.272064 
	C301.366516,262.250793 301.067902,249.220230 301.348907,236.201630 
	C301.445190,231.743073 299.484619,229.064941 296.147858,226.877487 
	C282.869812,218.172943 269.544525,209.540085 256.308411,200.772400 
	C252.697159,198.380295 249.401779,197.841019 245.559631,200.365555 
	C231.786407,209.415421 217.874496,218.254486 204.121811,227.334961 
	C202.625290,228.323090 200.902039,230.324860 200.841187,231.916031 
	C200.346680,244.846313 199.902161,257.798157 200.198257,270.726135 
	C200.279022,274.252350 199.482101,278.768433 203.709381,281.492340 
	C210.030640,285.565582 216.144852,289.960144 222.897614,294.700409 
z"/>
<path fill="#B25AE5" opacity="1.000000" stroke="none" 
	d="
M336.007965,248.992661 
	C335.401398,248.557602 334.794861,248.122528 333.927612,247.193787 
	C333.212341,246.435959 332.757721,246.171844 332.303131,245.907715 
	C330.987213,244.779999 329.671265,243.652267 328.140015,241.939056 
	C327.602142,240.375015 327.279633,239.396469 327.281860,238.453247 
	C330.116638,240.593704 332.925812,242.435959 335.063080,244.868530 
	C337.921753,248.122208 339.945129,247.197754 342.317383,244.477036 
	C347.132812,238.954315 352.158936,233.613892 356.925842,228.050629 
	C369.148376,213.786179 380.106445,198.792770 386.361481,180.718811 
	C389.922760,170.428391 385.652832,159.113525 377.668701,156.477097 
	C372.179535,154.664551 365.888580,153.591629 360.233887,154.326462 
	C349.047791,155.780090 337.651276,157.574844 327.077179,161.310318 
	C311.927734,166.662140 297.366455,173.722641 282.695312,180.365601 
	C275.584930,183.585129 268.795837,187.514221 261.114288,191.510712 
	C264.797882,193.659576 267.820160,195.280716 270.697174,197.128036 
	C278.840332,202.356720 286.924072,207.678009 294.955902,213.041107 
	C294.880615,213.119370 294.729767,213.275681 294.362854,213.199097 
	C292.991394,213.084610 291.986847,213.046707 290.982300,213.008820 
	C290.103271,212.493561 289.224213,211.978287 287.993286,211.009338 
	C287.167511,210.335510 286.693573,210.115326 286.219666,209.895142 
	C286.219666,209.895142 286.111237,209.874146 285.919128,209.677475 
	C285.508545,209.278290 285.262085,209.119003 284.987671,209.002975 
	C284.826660,208.942291 284.665649,208.881592 284.175262,208.452301 
	C283.268005,207.707626 282.690125,207.331573 282.112213,206.955505 
	C275.195160,202.986572 268.197418,199.150024 261.390594,195.000290 
	C257.133026,192.404709 257.015930,190.672089 261.411957,188.351852 
	C274.199554,181.602478 287.301392,175.449173 300.098755,168.717636 
	C317.877930,159.365662 336.912262,154.341232 356.660675,151.707306 
	C360.919647,151.139282 365.332367,150.988174 369.604767,151.387756 
	C385.388611,152.863983 393.311493,165.095520 389.207153,180.436905 
	C385.506622,194.269028 378.200500,206.157333 369.594086,217.178894 
	C361.838501,227.110870 353.008209,236.203629 344.161377,245.979767 
	C343.461365,246.555252 343.251862,246.817490 343.042358,247.079742 
	C343.042358,247.079727 343.014374,247.016235 342.831116,247.166809 
	C342.448090,247.591537 342.248352,247.865692 342.048584,248.139862 
	C341.927673,248.422165 341.743530,248.654327 340.873260,248.919601 
	C338.836212,248.999435 337.422089,248.996048 336.007965,248.992661 
z"/>
<path fill="#B55EE5" opacity="1.000000" stroke="none" 
	d="
M320.948273,349.929230 
	C316.305481,348.381958 312.097900,346.740936 307.762726,345.573975 
	C303.043549,344.303711 301.388977,341.605652 302.060547,336.794098 
	C303.692871,325.099609 305.067139,313.369049 306.540039,301.652344 
	C307.037781,297.692749 308.052277,293.707367 307.876984,289.776306 
	C307.644806,284.570770 310.046722,281.595581 313.991089,278.748596 
	C320.734344,273.881409 327.130066,268.530640 333.639465,263.342438 
	C336.558380,261.015961 339.378998,260.090546 342.507904,263.054077 
	C358.544983,278.243500 373.227112,294.545105 383.342041,314.389587 
	C385.964996,319.535522 387.946930,325.145691 389.322632,330.763153 
	C392.913452,345.425781 383.929932,357.014099 368.844574,357.908417 
	C352.399261,358.883423 336.772980,355.040710 320.948273,349.929230 
M325.870941,273.326538 
	C322.308319,275.997284 318.754608,278.680115 315.180084,281.334808 
	C312.570557,283.272766 310.952576,285.367188 310.777924,289.073456 
	C310.427979,296.497650 309.276093,303.890839 308.306976,311.277344 
	C307.230927,319.478912 305.982513,327.657745 304.823395,335.848480 
	C304.342377,339.247681 304.642242,341.836609 308.902863,342.919128 
	C315.085510,344.489960 321.023956,347.000916 327.177612,348.711365 
	C340.243744,352.343201 353.402161,355.940247 367.134460,355.039764 
	C379.996613,354.196320 388.707611,347.304352 386.987823,333.499664 
	C386.608459,330.454498 385.794373,327.279144 384.383759,324.580170 
	C379.464203,315.167206 375.170959,305.198273 368.824921,296.814301 
	C359.854736,284.963501 349.269775,274.334900 339.366608,263.174286 
	C334.333252,266.936707 330.373901,269.896301 325.870941,273.326538 
z"/>
<path fill="#B35BE8" opacity="1.000000" stroke="none" 
	d="
M260.707275,322.244934 
	C257.706543,320.249695 257.126373,318.250702 260.076080,316.225677 
	C272.799469,307.490997 285.528656,298.764130 298.324371,290.136169 
	C301.224670,288.180511 303.247986,288.909698 302.764526,292.757111 
	C301.006866,306.745453 299.245972,320.736084 297.202637,334.684326 
	C296.526245,339.301514 294.516846,340.079956 290.066162,337.789673 
	C280.327637,332.778351 270.689301,327.572418 260.707275,322.244934 
M294.159210,333.415405 
	C296.036438,320.417755 297.913635,307.420074 299.790863,294.422424 
	C299.321930,294.285767 298.852997,294.149109 298.384064,294.012451 
	C286.140289,302.268585 273.896545,310.524719 261.031494,319.199799 
	C271.480286,324.626404 281.216156,329.729279 291.025726,334.686340 
	C291.783875,335.069427 293.059967,334.427673 294.159210,333.415405 
z"/>
<path fill="#B55DE7" opacity="1.000000" stroke="none" 
	d="
M199.112183,211.072113 
	C200.743118,198.744507 202.377411,186.887497 203.964188,175.024109 
	C204.475952,171.198029 206.460983,170.748779 209.544037,172.353424 
	C219.442368,177.505295 229.396362,182.552368 239.238220,187.809647 
	C243.776855,190.234085 243.997025,192.367401 239.917847,195.071930 
	C227.719650,203.159378 215.397964,211.060944 203.090775,218.982712 
	C202.317001,219.480759 201.254242,219.529831 199.097092,220.129227 
	C199.097092,216.918839 199.097092,214.229523 199.112183,211.072113 
M205.865982,179.671402 
	C204.345444,191.586487 202.824890,203.501572 201.196167,216.264450 
	C214.549591,207.444962 226.739517,199.393936 239.328430,191.079391 
	C228.553253,185.501892 218.074722,180.077942 207.447876,174.577225 
	C206.827454,176.372620 206.398849,177.612915 205.865982,179.671402 
z"/>
<path fill="#B45AE9" opacity="1.000000" stroke="none" 
	d="
M312.303101,274.082642 
	C311.095551,273.308105 309.464600,272.426483 309.453125,271.524323 
	C309.311554,260.383453 309.395477,249.239532 309.469910,238.096725 
	C309.473877,237.505020 309.912292,236.916245 310.613037,235.165054 
	C314.116974,237.694824 317.358551,239.776520 320.297852,242.221588 
	C324.127625,245.407410 327.659851,248.948288 331.430878,252.208298 
	C333.980438,254.412323 334.441437,256.505310 331.644531,258.754028 
	C325.319092,263.839630 318.971069,268.897095 312.303101,274.082642 
M323.794708,261.296967 
	C325.938019,259.423828 328.081360,257.550690 330.527863,255.412582 
	C324.569794,250.275284 319.104370,245.562744 313.120422,240.403107 
	C313.120422,250.643143 313.120422,259.795044 313.120422,270.034302 
	C316.982544,266.846466 320.095032,264.277405 323.794708,261.296967 
z"/>
<path fill="#C266EC" opacity="1.000000" stroke="none" 
	d="
M305.251831,181.864655 
	C304.512268,180.641861 303.772705,179.419052 302.091583,176.639481 
	C301.126678,179.420822 300.015625,181.013397 300.150299,182.492569 
	C301.137482,193.335938 302.360291,204.158096 303.538330,214.983734 
	C304.076691,219.930756 303.252716,220.528564 298.671265,218.202957 
	C301.784454,217.668442 301.400696,215.769562 301.219086,213.586487 
	C300.352142,203.164139 299.779938,192.716431 298.841400,182.301315 
	C298.414368,177.562454 300.469513,175.866653 304.963074,176.466522 
	C305.129456,178.484161 305.190643,180.174408 305.251831,181.864655 
z"/>
<path fill="#B25AE5" opacity="1.000000" stroke="none" 
	d="
M304.857880,176.139130 
	C300.469513,175.866653 298.414368,177.562454 298.841400,182.301315 
	C299.779938,192.716431 300.352142,203.164139 301.219086,213.586487 
	C301.400696,215.769562 301.784454,217.668442 298.450592,217.930664 
	C298.095856,217.954330 298.038147,217.989944 297.874695,217.774597 
	C297.485901,217.326202 297.222168,217.150833 296.920135,217.033096 
	C296.419586,216.783096 295.919037,216.533112 295.227783,215.739838 
	C294.934631,214.556259 294.832184,213.915970 294.729736,213.275681 
	C294.729767,213.275681 294.880615,213.119370 295.338745,213.099701 
	C296.986847,213.788620 298.176880,214.497223 300.193359,215.697968 
	C299.984894,212.466034 299.886475,210.073837 299.666992,207.692825 
	C298.856537,198.900833 297.824799,190.124512 297.242920,181.318069 
	C296.925781,176.518372 301.293182,173.689209 305.260193,175.735992 
	C305.126251,175.870514 304.857880,176.139130 304.857880,176.139130 
z"/>
<path fill="#C266EC" opacity="1.000000" stroke="none" 
	d="
M311.035522,227.906433 
	C310.083069,225.749786 308.502167,223.655060 308.282623,221.426224 
	C307.081390,209.231400 306.214325,197.003677 305.541504,184.425079 
	C306.476837,184.388931 307.103119,184.714966 307.830322,185.422836 
	C307.958252,186.859970 307.985229,187.915283 307.991394,189.434158 
	C308.992218,202.567307 310.013885,215.236862 311.035522,227.906433 
z"/>
<path fill="#B25AE5" opacity="1.000000" stroke="none" 
	d="
M311.180542,228.172546 
	C310.013885,215.236862 308.992218,202.567307 308.291504,189.699829 
	C309.381927,197.842865 310.453735,206.170563 310.819489,214.529160 
	C311.083435,220.561722 311.542328,226.190994 316.910675,230.091034 
	C316.832214,230.170425 316.675476,230.329330 316.335632,230.240570 
	C315.061737,230.075897 314.127686,229.999985 313.193634,229.924057 
	C312.570953,229.428925 311.948273,228.933792 311.180542,228.172546 
z"/>
<path fill="#B25AE5" opacity="1.000000" stroke="none" 
	d="
M324.008453,238.992218 
	C323.427216,238.500671 322.845978,238.009125 322.068298,236.923599 
	C320.643707,235.525345 319.415619,234.721054 318.187531,233.916763 
	C317.905304,233.716827 317.623077,233.516876 317.183167,232.774780 
	C316.908783,231.598206 316.792114,230.963776 316.675476,230.329330 
	C316.675476,230.329330 316.832214,230.170425 317.224823,230.220261 
	C320.409698,232.850876 323.201965,235.431671 325.744324,238.131622 
	C324.999115,238.497925 324.503784,238.745071 324.008453,238.992218 
z"/>
<path fill="#B25AE5" opacity="1.000000" stroke="none" 
	d="
M307.729431,185.041016 
	C307.103119,184.714966 306.476837,184.388931 305.595337,184.006409 
	C305.287292,183.488037 305.234467,183.026138 305.216736,182.214447 
	C305.190643,180.174408 305.129456,178.484161 304.963074,176.466522 
	C304.857880,176.139130 305.126251,175.870514 305.563049,175.956024 
	C306.576385,179.041367 307.152893,182.041199 307.729431,185.041016 
z"/>
<path fill="#C266EC" opacity="1.000000" stroke="none" 
	d="
M294.362854,213.199097 
	C294.832184,213.915970 294.934631,214.556259 295.047333,215.521164 
	C293.801270,215.090729 292.544952,214.335663 291.135437,213.294708 
	C291.986847,213.046707 292.991394,213.084610 294.362854,213.199097 
z"/>
<path fill="#C266EC" opacity="1.000000" stroke="none" 
	d="
M316.335632,230.240570 
	C316.792114,230.963776 316.908783,231.598206 317.039795,232.556381 
	C315.851654,232.087204 314.649139,231.294281 313.320129,230.212708 
	C314.127686,229.999985 315.061737,230.075897 316.335632,230.240570 
z"/>
<path fill="#C266EC" opacity="1.000000" stroke="none" 
	d="
M324.149841,239.278381 
	C324.503784,238.745071 324.999115,238.497925 325.996948,238.204529 
	C326.652008,238.244812 326.804535,238.331360 326.957092,238.417923 
	C327.279633,239.396469 327.602142,240.375015 327.971497,241.659485 
	C326.775909,241.165131 325.533569,240.364853 324.149841,239.278381 
z"/>
<path fill="#C266EC" opacity="1.000000" stroke="none" 
	d="
M336.170471,249.289246 
	C337.422089,248.996048 338.836212,248.999435 340.676575,249.027435 
	C339.512878,249.229950 337.922913,249.407883 336.170471,249.289246 
z"/>
<path fill="#C266EC" opacity="1.000000" stroke="none" 
	d="
M318.313049,234.202347 
	C319.415619,234.721054 320.643707,235.525345 321.933899,236.668152 
	C320.810181,236.167084 319.624359,235.327515 318.313049,234.202347 
z"/>
<path fill="#C266EC" opacity="1.000000" stroke="none" 
	d="
M282.219116,207.201782 
	C282.690125,207.331573 283.268005,207.707626 283.950562,208.325287 
	C283.478790,208.193924 282.902435,207.820984 282.219116,207.201782 
z"/>
<path fill="#C266EC" opacity="1.000000" stroke="none" 
	d="
M332.426025,246.149521 
	C332.757721,246.171844 333.212341,246.435959 333.812622,246.928436 
	C333.488525,246.901627 333.018738,246.646469 332.426025,246.149521 
z"/>
<path fill="#C266EC" opacity="1.000000" stroke="none" 
	d="
M286.369965,210.122711 
	C286.693573,210.115326 287.167511,210.335510 287.823425,210.748169 
	C287.510406,210.743851 287.015320,210.547058 286.369965,210.122711 
z"/>
<path fill="#C266EC" opacity="1.000000" stroke="none" 
	d="
M343.278534,246.972839 
	C343.251862,246.817490 343.461365,246.555252 343.888123,246.161285 
	C343.908508,246.308350 343.711609,246.587143 343.278534,246.972839 
z"/>
<path fill="#C266EC" opacity="1.000000" stroke="none" 
	d="
M342.278198,248.016541 
	C342.248352,247.865692 342.448090,247.591537 342.863708,247.178741 
	C342.888947,247.324463 342.698395,247.608826 342.278198,248.016541 
z"/>
<path fill="#C266EC" opacity="1.000000" stroke="none" 
	d="
M297.040192,217.249207 
	C297.222168,217.150833 297.485901,217.326202 297.862427,217.743256 
	C297.670868,217.880875 297.386444,217.726898 297.040192,217.249207 
z"/>
<path fill="#C266EC" opacity="1.000000" stroke="none" 
	d="
M285.106079,209.200363 
	C285.262085,209.119003 285.508545,209.278290 285.879883,209.638611 
	C285.710663,209.770309 285.441223,209.637421 285.106079,209.200363 
z"/>
<path fill="#BA60EA" opacity="1.000000" stroke="none" 
	d="
M131.888840,230.986664 
	C138.182022,225.200302 143.363937,224.577209 148.327866,228.739761 
	C152.736542,232.436707 153.778519,239.011398 150.758591,244.077209 
	C147.967834,248.758606 142.016937,250.964676 137.479340,249.000000 
	C131.885330,246.577927 128.482788,240.181259 130.063049,234.899811 
	C130.438004,233.646652 131.123856,232.486511 131.888840,230.986664 
M147.146118,243.589584 
	C147.920166,242.157593 149.456009,240.641098 149.308533,239.311310 
	C149.008148,236.602600 148.499191,233.335098 146.783951,231.516693 
	C144.768433,229.379929 141.769791,227.486343 138.098770,229.876160 
	C133.047409,233.164566 131.270813,237.766769 133.919815,242.250504 
	C136.861008,247.228745 140.991577,247.841202 147.146118,243.589584 
z"/>
<path fill="#000001" opacity="1.000000" stroke="none" 
	d="
M166.212952,260.077820 
	C173.835327,253.287216 181.197968,246.743103 188.993225,239.814484 
	C188.993225,249.962723 188.993225,259.371643 188.993225,270.051208 
	C184.598694,266.630219 180.751999,264.013062 177.365616,260.895844 
	C173.816650,257.628967 171.175507,259.538849 168.855103,262.028534 
	C166.400101,264.662659 167.613113,266.697693 170.381958,268.731659 
	C176.684738,273.361664 182.766769,278.301636 188.787247,283.297943 
	C189.902191,284.223236 190.757935,285.938568 190.969376,287.399780 
	C192.767853,299.827698 194.403870,312.279327 196.040115,324.730225 
	C196.189468,325.866699 196.045349,327.050842 195.960678,328.207245 
	C195.700043,331.766571 197.317078,334.258972 200.843506,334.125854 
	C204.041016,334.005157 206.412262,332.189758 205.946060,328.215759 
	C205.020401,320.325439 204.282532,312.413300 203.407547,304.516754 
	C203.008560,300.915924 202.468201,297.330780 201.919189,293.189606 
	C210.353561,298.835144 218.416229,304.227020 226.473358,309.627136 
	C230.099625,312.057526 233.530182,314.869507 237.395401,316.824554 
	C240.321091,318.304352 239.675186,319.327209 237.634598,320.397369 
	C216.733353,331.358429 196.381287,343.508362 173.122406,349.273621 
	C160.079926,352.506470 147.143356,355.982971 133.496429,355.115387 
	C123.559830,354.483673 114.777794,348.292969 114.449966,339.217468 
	C114.228668,333.091156 116.151627,326.181946 119.184074,320.785339 
	C126.230019,308.246338 133.830719,295.878540 142.544128,284.462219 
	C149.296936,275.614685 158.075272,268.313110 166.212952,260.077820 
z"/>
<path fill="#000001" opacity="1.000000" stroke="none" 
	d="
M222.622375,294.459229 
	C216.144852,289.960144 210.030640,285.565582 203.709381,281.492340 
	C199.482101,278.768433 200.279022,274.252350 200.198257,270.726135 
	C199.902161,257.798157 200.346680,244.846313 200.841187,231.916031 
	C200.902039,230.324860 202.625290,228.323090 204.121811,227.334961 
	C217.874496,218.254486 231.786407,209.415421 245.559631,200.365555 
	C249.401779,197.841019 252.697159,198.380295 256.308411,200.772400 
	C269.544525,209.540085 282.869812,218.172943 296.147858,226.877487 
	C299.484619,229.064941 301.445190,231.743073 301.348907,236.201630 
	C301.067902,249.220230 301.366516,262.250793 301.155426,275.272064 
	C301.127014,277.025452 299.928497,279.401031 298.507263,280.391724 
	C283.913574,290.564667 269.203613,300.573853 254.383636,310.414093 
	C253.051453,311.298676 250.286530,311.432770 248.928055,310.642120 
	C240.136551,305.525269 231.550812,300.054901 222.622375,294.459229 
M234.081375,274.510254 
	C244.025574,282.497131 257.649506,281.907043 268.247742,273.030426 
	C277.274811,265.469757 279.845184,249.962265 273.700195,240.134583 
	C267.345581,229.971634 250.921982,225.011276 240.321823,230.053467 
	C221.533005,238.990768 218.348495,259.712769 234.081375,274.510254 
z"/>
<path fill="#000001" opacity="1.000000" stroke="none" 
	d="
M327.281860,238.453247 
	C326.804535,238.331360 326.652008,238.244812 326.246857,238.085358 
	C323.201965,235.431671 320.409698,232.850876 317.303284,230.140869 
	C311.542328,226.190994 311.083435,220.561722 310.819489,214.529160 
	C310.453735,206.170563 309.381927,197.842865 308.312347,189.236267 
	C307.985229,187.915283 307.958252,186.859970 307.830322,185.422852 
	C307.152893,182.041199 306.576385,179.041367 305.697021,175.821503 
	C301.293182,173.689209 296.925781,176.518372 297.242920,181.318069 
	C297.824799,190.124512 298.856537,198.900833 299.666992,207.692825 
	C299.886475,210.073837 299.984894,212.466034 300.193359,215.697968 
	C298.176880,214.497223 296.986847,213.788620 295.414001,213.021423 
	C286.924072,207.678009 278.840332,202.356720 270.697174,197.128036 
	C267.820160,195.280716 264.797882,193.659576 261.114288,191.510712 
	C268.795837,187.514221 275.584930,183.585129 282.695312,180.365601 
	C297.366455,173.722641 311.927734,166.662140 327.077179,161.310318 
	C337.651276,157.574844 349.047791,155.780090 360.233887,154.326462 
	C365.888580,153.591629 372.179535,154.664551 377.668701,156.477097 
	C385.652832,159.113525 389.922760,170.428391 386.361481,180.718811 
	C380.106445,198.792770 369.148376,213.786179 356.925842,228.050629 
	C352.158936,233.613892 347.132812,238.954315 342.317383,244.477036 
	C339.945129,247.197754 337.921753,248.122208 335.063080,244.868530 
	C332.925812,242.435959 330.116638,240.593704 327.281860,238.453247 
z"/>
<path fill="#000000" opacity="1.000000" stroke="none" 
	d="
M326.142761,273.091217 
	C330.373901,269.896301 334.333252,266.936707 339.366608,263.174286 
	C349.269775,274.334900 359.854736,284.963501 368.824921,296.814301 
	C375.170959,305.198273 379.464203,315.167206 384.383759,324.580170 
	C385.794373,327.279144 386.608459,330.454498 386.987823,333.499664 
	C388.707611,347.304352 379.996613,354.196320 367.134460,355.039764 
	C353.402161,355.940247 340.243744,352.343201 327.177612,348.711365 
	C321.023956,347.000916 315.085510,344.489960 308.902863,342.919128 
	C304.642242,341.836609 304.342377,339.247681 304.823395,335.848480 
	C305.982513,327.657745 307.230927,319.478912 308.306976,311.277344 
	C309.276093,303.890839 310.427979,296.497650 310.777924,289.073456 
	C310.952576,285.367188 312.570557,283.272766 315.180084,281.334808 
	C318.754608,278.680115 322.308319,275.997284 326.142761,273.091217 
z"/>
<path fill="#000000" opacity="1.000000" stroke="none" 
	d="
M294.127258,333.838837 
	C293.059967,334.427673 291.783875,335.069427 291.025726,334.686340 
	C281.216156,329.729279 271.480286,324.626404 261.031494,319.199799 
	C273.896545,310.524719 286.140289,302.268585 298.384064,294.012451 
	C298.852997,294.149109 299.321930,294.285767 299.790863,294.422424 
	C297.913635,307.420074 296.036438,320.417755 294.127258,333.838837 
z"/>
<path fill="#000000" opacity="1.000000" stroke="none" 
	d="
M205.918121,179.262299 
	C206.398849,177.612915 206.827454,176.372620 207.447876,174.577225 
	C218.074722,180.077942 228.553253,185.501892 239.328430,191.079391 
	C226.739517,199.393936 214.549591,207.444962 201.196167,216.264450 
	C202.824890,203.501572 204.345444,191.586487 205.918121,179.262299 
z"/>
<path fill="#000000" opacity="1.000000" stroke="none" 
	d="
M323.501099,261.502655 
	C320.095032,264.277405 316.982544,266.846466 313.120422,270.034302 
	C313.120422,259.795044 313.120422,250.643143 313.120422,240.403107 
	C319.104370,245.562744 324.569794,250.275284 330.527863,255.412582 
	C328.081360,257.550690 325.938019,259.423828 323.501099,261.502655 
z"/>
<path fill="#000000" opacity="1.000000" stroke="none" 
	d="
M146.881592,243.861359 
	C140.991577,247.841202 136.861008,247.228745 133.919815,242.250504 
	C131.270813,237.766769 133.047409,233.164566 138.098770,229.876160 
	C141.769791,227.486343 144.768433,229.379929 146.783951,231.516693 
	C148.499191,233.335098 149.008148,236.602600 149.308533,239.311310 
	C149.456009,240.641098 147.920166,242.157593 146.881592,243.861359 
z"/>
<path fill="#B35BE2" opacity="1.000000" stroke="none" 
	d="
M233.825500,274.250641 
	C218.348495,259.712769 221.533005,238.990768 240.321823,230.053467 
	C250.921982,225.011276 267.345581,229.971634 273.700195,240.134583 
	C279.845184,249.962265 277.274811,265.469757 268.247742,273.030426 
	C257.649506,281.907043 244.025574,282.497131 233.825500,274.250641 
M237.389465,273.281891 
	C238.381226,273.888428 239.339661,274.559479 240.369965,275.091370 
	C249.752182,279.934937 260.724335,277.287659 268.603394,268.304169 
	C275.103485,260.892944 276.220398,249.024597 270.754761,241.497406 
	C264.900452,233.434921 256.820740,229.756317 246.892883,231.357040 
	C237.190857,232.921341 230.378540,238.523743 228.039124,248.155075 
	C225.646912,258.003754 228.533997,266.507507 237.389465,273.281891 
z"/>
<path fill="#FCB9FE" opacity="1.000000" stroke="none" 
	d="
M237.092255,273.061951 
	C228.533997,266.507507 225.646912,258.003754 228.039124,248.155075 
	C230.378540,238.523743 237.190857,232.921341 246.892883,231.357040 
	C256.820740,229.756317 264.900452,233.434921 270.754761,241.497406 
	C276.220398,249.024597 275.103485,260.892944 268.603394,268.304169 
	C260.724335,277.287659 249.752182,279.934937 240.369965,275.091370 
	C239.339661,274.559479 238.381226,273.888428 237.092255,273.061951 
M268.100708,260.208130 
	C268.366882,257.917145 268.868896,255.625000 268.857849,253.335358 
	C268.812866,244.020432 262.381989,236.875275 253.527695,236.100281 
	C241.966614,235.088364 234.256989,240.309753 232.456024,250.371170 
	C230.814255,259.543243 236.872116,269.431274 245.577881,271.789459 
	C254.648239,274.246429 261.466797,270.910461 268.100708,260.208130 
z"/>
<path fill="#B85FE8" opacity="1.000000" stroke="none" 
	d="
M267.941406,260.567108 
	C261.466797,270.910461 254.648239,274.246429 245.577881,271.789459 
	C236.872116,269.431274 230.814255,259.543243 232.456024,250.371170 
	C234.256989,240.309753 241.966614,235.088364 253.527695,236.100281 
	C262.381989,236.875275 268.812866,244.020432 268.857849,253.335358 
	C268.868896,255.625000 268.366882,257.917145 267.941406,260.567108 
M238.030975,263.236145 
	C238.685776,263.951294 239.285507,264.727905 240.004288,265.371582 
	C244.727386,269.601074 251.763962,270.436310 257.500458,267.485138 
	C263.254547,264.524933 266.835480,258.176941 266.091644,252.255341 
	C265.230896,245.402725 261.080414,240.491394 254.454208,239.157562 
	C248.313019,237.921356 242.304779,238.944946 238.491852,244.190033 
	C234.399399,249.819595 234.352997,256.238129 238.030975,263.236145 
z"/>
<path fill="#000000" opacity="1.000000" stroke="none" 
	d="
M237.919983,262.854736 
	C234.352997,256.238129 234.399399,249.819595 238.491852,244.190033 
	C242.304779,238.944946 248.313019,237.921356 254.454208,239.157562 
	C261.080414,240.491394 265.230896,245.402725 266.091644,252.255341 
	C266.835480,258.176941 263.254547,264.524933 257.500458,267.485138 
	C251.763962,270.436310 244.727386,269.601074 240.004288,265.371582 
	C239.285507,264.727905 238.685776,263.951294 237.919983,262.854736 
z"/>
</svg>